<?xml version="1.0" encoding="utf-8"?>
<svg version="1.1" id="Layer_1" xmlns="http://www.w3.org/2000/svg" xmlns:xlink="http://www.w3.org/1999/xlink" x="0px" y="0px"
	 viewBox="0 0 29.1 29.1" style="enable-background:new 0 0 29.1 29.1;" xml:space="preserve">
<style type="text/css">
	.st0{fill:#F0DC4E;}
</style>
<rect class="st0" width="29.1" height="29.1"/>
<path d="M15.3,24.9c-0.4,0.9-1.2,1.4-2.2,1.7c-1.5,0.3-2.8,0.1-3.9-0.5c-0.7-0.4-1.2-1.1-1.6-1.8c0.7-0.5,1.5-0.9,2.2-1.4
	c0,0,0.1,0.1,0.2,0.2c0.3,0.5,0.5,0.8,1,1c0.5,0.2,1.5,0.3,1.9-0.6c0.2-0.4,0.2-1.8,0.2-3.3c0-2.3,0-4.7,0-7h2.7c0,2.5,0,5,0,7.5
	C15.8,22.4,15.9,23.8,15.3,24.9z"/>
<path d="M26.6,24.1c-0.9,3.2-6.2,3.3-8.3,1.2c-0.4-0.5-0.7-0.8-1-1.3c1.1-0.6,1.1-0.6,2.2-1.3c0.6,0.9,1.1,1.4,2.1,1.6
	c1.3,0.2,2.7-0.3,2.4-1.7c-0.3-1.2-2.7-1.4-4.4-2.7c-1.7-1.1-2.1-3.9-0.7-5.4c0.5-0.6,1.2-1,2.1-1.2c0.3,0,0.6-0.1,0.9-0.1
	c1.6,0,2.7,0.4,3.4,1.2c0.2,0.2,0.4,0.4,0.7,0.9c-0.9,0.6-0.9,0.6-2.1,1.4c-0.3-0.6-0.7-0.9-1.2-1.1c-0.7-0.2-1.6,0-1.8,0.8
	c-0.1,0.2-0.1,0.5,0.1,0.9c0.3,0.7,1.3,1,2.2,1.4c2.6,1,3.4,2.2,3.6,3.5C26.9,23.3,26.6,24,26.6,24.1z"/>
</svg>
