<?xml version="1.0" encoding="utf-8"?>
<svg version="1.1" id="Layer_1" xmlns="http://www.w3.org/2000/svg" xmlns:xlink="http://www.w3.org/1999/xlink" x="0px" y="0px"
	 viewBox="0 0 102.9 29.3" style="enable-background:new 0 0 102.9 29.3;" xml:space="preserve">
<style type="text/css">
	.st0{fill-rule:evenodd;clip-rule:evenodd;fill:#273319;}
	.st1{fill-rule:evenodd;clip-rule:evenodd;fill:#8EC74E;}
	.st2{fill:#8EC74E;}
</style>
<g>
	<path class="st0" d="M16.2,15.5c0-0.3-0.2-0.6-0.4-0.8l-7.2-4.2c-0.1-0.1-0.3-0.1-0.4-0.1c0,0-0.1,0-0.1,0c-0.1,0-0.3,0-0.4,0.1
		l-7.2,4.2C0.2,14.8,0,15.1,0,15.5l0,11.2C0,26.8,0.1,27,0.2,27c0.1,0.1,0.3,0.1,0.4,0L5,24.6c0.3-0.2,0.4-0.4,0.4-0.8v-5.2
		c0-0.3,0.2-0.6,0.4-0.8l1.8-1.1c0.1-0.1,0.3-0.1,0.4-0.1c0.1,0,0.3,0,0.4,0.1l1.8,1.1c0.3,0.2,0.4,0.4,0.4,0.8v5.2
		c0,0.3,0.2,0.6,0.4,0.8l4.3,2.5c0.1,0.1,0.3,0.1,0.4,0c0.1-0.1,0.2-0.2,0.2-0.4L16.2,15.5z"/>
	<path class="st0" d="M54.8,0.1c-0.1-0.1-0.3-0.1-0.4,0c-0.1,0.1-0.2,0.2-0.2,0.4v11.1c0,0.1-0.1,0.2-0.2,0.3
		c-0.1,0.1-0.2,0.1-0.3,0l-1.8-1c-0.3-0.2-0.6-0.2-0.9,0l-7.2,4.2c-0.3,0.2-0.4,0.4-0.4,0.8V24c0,0.3,0.2,0.6,0.4,0.8L51,29
		c0.3,0.2,0.6,0.2,0.9,0l7.2-4.2c0.3-0.2,0.4-0.4,0.4-0.8V3.2c0-0.3-0.2-0.6-0.4-0.8L54.8,0.1z M54.1,21.3c0,0.1,0,0.1-0.1,0.2
		l-2.5,1.4c-0.1,0-0.1,0-0.2,0l-2.5-1.4c-0.1,0-0.1-0.1-0.1-0.2v-2.9c0-0.1,0-0.1,0.1-0.2l2.5-1.4c0.1,0,0.1,0,0.2,0l2.5,1.4
		c0.1,0,0.1,0.1,0.1,0.2V21.3z"/>
	<path class="st0" d="M80.7,18.3c0.3-0.2,0.4-0.4,0.4-0.8v-2c0-0.3-0.2-0.6-0.4-0.8l-7.2-4.2c-0.3-0.2-0.6-0.2-0.9,0l-7.2,4.2
		c-0.3,0.2-0.4,0.4-0.4,0.8v8.3c0,0.3,0.2,0.6,0.4,0.8l7.2,4.1c0.3,0.2,0.6,0.2,0.9,0l4.3-2.4c0.1-0.1,0.2-0.2,0.2-0.4
		c0-0.2-0.1-0.3-0.2-0.4l-7.3-4.2c-0.1-0.1-0.2-0.2-0.2-0.4v-2.6c0-0.2,0.1-0.3,0.2-0.4l2.3-1.3c0.1-0.1,0.3-0.1,0.4,0l2.3,1.3
		c0.1,0.1,0.2,0.2,0.2,0.4v2.1c0,0.2,0.1,0.3,0.2,0.4c0.1,0.1,0.3,0.1,0.4,0L80.7,18.3z"/>
	<path class="st1" d="M29.3,10.6c0.3-0.2,0.6-0.2,0.9,0l7.2,4.2c0.3,0.2,0.4,0.4,0.4,0.8v8.3c0,0.3-0.2,0.6-0.4,0.8l-7.2,4.2
		c-0.3,0.2-0.6,0.2-0.9,0l-7.2-4.2c-0.3-0.2-0.4-0.4-0.4-0.8v-8.3c0-0.3,0.2-0.6,0.4-0.8L29.3,10.6z"/>
	<path class="st2" d="M94.7,28.9c-0.2,0-0.5-0.1-0.7-0.2l-2.3-1.3c-0.3-0.2-0.2-0.3-0.1-0.3c0.5-0.2,0.5-0.2,1-0.5c0,0,0.1,0,0.2,0
		l1.7,1c0.1,0,0.2,0,0.2,0l6.8-3.9c0.1,0,0.1-0.1,0.1-0.2v-7.9c0-0.1,0-0.1-0.1-0.2l-6.8-3.9c-0.1,0-0.1,0-0.2,0l-6.8,3.9
		c-0.1,0-0.1,0.1-0.1,0.2v7.9c0,0.1,0,0.1,0.1,0.2l1.9,1.1c1,0.5,1.6-0.1,1.6-0.7v-7.8c0-0.1,0.1-0.2,0.2-0.2h0.9
		c0.1,0,0.2,0.1,0.2,0.2v7.8c0,1.4-0.7,2.1-2,2.1c-0.4,0-0.7,0-1.6-0.4l-1.8-1c-0.4-0.3-0.7-0.7-0.7-1.2v-7.9c0-0.5,0.3-1,0.7-1.2
		l6.8-3.9c0.4-0.2,1-0.2,1.4,0l6.8,3.9c0.4,0.3,0.7,0.7,0.7,1.2v7.9c0,0.5-0.3,1-0.7,1.2l-6.8,3.9C95.2,28.9,94.9,28.9,94.7,28.9z"
		/>
	<path class="st2" d="M96.8,23.5c-3,0-3.6-1.4-3.6-2.5c0-0.1,0.1-0.2,0.2-0.2h0.9c0.1,0,0.2,0.1,0.2,0.2c0.1,0.9,0.5,1.4,2.3,1.4
		c1.4,0,2-0.3,2-1.1c0-0.4-0.2-0.8-2.4-1c-1.9-0.2-3-0.6-3-2.1c0-1.4,1.2-2.2,3.1-2.2c2.2,0,3.3,0.8,3.4,2.4c0,0.1,0,0.1-0.1,0.2
		c0,0-0.1,0.1-0.1,0.1h-0.9c-0.1,0-0.2-0.1-0.2-0.2c-0.2-0.9-0.7-1.2-2.1-1.2c-1.6,0-1.8,0.5-1.8,1c0,0.5,0.2,0.6,2.3,0.9
		c2.1,0.3,3.1,0.7,3.1,2.1C100.2,22.6,99,23.5,96.8,23.5z"/>
	<path class="st1" d="M72.9,18c0.1,0,0.1,0,0.2,0l1.4,0.8c0.1,0,0.1,0.1,0.1,0.1v1.6c0,0.1,0,0.1-0.1,0.1l-1.4,0.8
		c-0.1,0-0.1,0-0.2,0l-1.4-0.8c-0.1,0-0.1-0.1-0.1-0.1v-1.6c0-0.1,0-0.1,0.1-0.1L72.9,18z"/>
</g>
</svg>
