<?xml version="1.0" encoding="utf-8"?>
<svg version="1.1" id="Layer_1" xmlns="http://www.w3.org/2000/svg" xmlns:xlink="http://www.w3.org/1999/xlink" x="0px" y="0px"
	 viewBox="0 0 74.6 29.1" style="enable-background:new 0 0 74.6 29.1;" xml:space="preserve">
<style type="text/css">
	.st0{fill:#CC3937;}
</style>
<path class="st0" d="M0,0v24.9h20.7v4.2h16.6v-4.2h37.3V0H0z M20.7,20.7h-4.2V8.3h-4.2v12.4H4.2V4.2h16.5L20.7,20.7L20.7,20.7z
	 M41.5,20.7h-8.2v4.2h-8.3V4.2h16.5C41.5,4.2,41.5,20.7,41.5,20.7z M70.5,20.7h-4.2V8.3h-4.2v12.4H58V8.3h-4.2v12.4h-8.2V4.2h24.9
	L70.5,20.7L70.5,20.7z M37.3,16.6h-4V8.3h4V16.6z"/>
</svg>
