<?xml version="1.0" encoding="utf-8"?>
<!-- Generator: Adobe Illustrator 16.0.0, SVG Export Plug-In . SVG Version: 6.00 Build 0)  -->
<!DOCTYPE svg PUBLIC "-//W3C//DTD SVG 1.1//EN" "http://www.w3.org/Graphics/SVG/1.1/DTD/svg11.dtd">
<svg version="1.1" id="Layer_1" xmlns="http://www.w3.org/2000/svg" xmlns:xlink="http://www.w3.org/1999/xlink" x="0px" y="0px"
	 width="145.671px" height="77.561px" viewBox="0 0 145.671 77.561" enable-background="new 0 0 145.671 77.561"
	 xml:space="preserve">
<g>
	<path fill="#5089A1" d="M145.671,22.114v33.332c0,1.316-1.142,2.835-2.396,3.185L76.282,77.188
		c-0.855,0.236-2.084,0.373-3.366,0.373c-1.284,0-2.511-0.137-3.366-0.373L2.483,58.631C1.184,58.271,0,56.752,0,55.446V22.114
		c0-1.307,1.186-2.825,2.487-3.185L69.524,0.373C70.383,0.137,71.612,0,72.902,0c1.289,0,2.521,0.137,3.377,0.373l66.987,18.557
		C144.525,19.277,145.671,20.797,145.671,22.114z"/>
	<path fill="#FFFFFF" d="M22.675,32.311c1.369,1.385,2.091,3.104,2.091,5.297v2.355c0,2.201-0.722,4.039-2.091,5.416
		c-1.368,1.377-3.215,2.113-5.464,2.113h-7.43v-1.588l2.203-0.331V31.998l-2.203-0.331v-1.362h2.14h5.29
		C19.46,30.305,21.307,30.927,22.675,32.311z M22.563,37.585c0-1.625-0.561-2.928-1.48-3.978c-0.92-1.049-2.277-1.54-3.871-1.54
		h-3.022v13.662h3.022c1.594,0,2.951-0.603,3.871-1.652c0.92-1.049,1.48-2.473,1.48-4.113V37.585z M39.184,45.729h-6.926v-6.17
		h6.611v-2.203h-6.611v-5.289h6.783l0.189,2.204h1.842v-3.966H27.852v1.362l2.203,0.331v13.576l-2.203,0.331v1.588h13.662v-4.408
		h-2.141L39.184,45.729z M55.176,31.667l1.594,0.22l-3.805,11.192l-0.391,1.328h-0.07l-0.377-1.328l-3.844-11.164l1.604-0.249
		v-1.362h-5.289v1.362l1.268,0.237l5.668,15.589h2l5.881-15.589l1.49-0.237v-1.362h-5.729V31.667z M62.668,33.831h2.209l0.166-1.763
		h3.795v13.507l-1.762,0.331v1.588h6.17v-1.588l-2.205-0.331V32.067h3.99l0.178,1.763h2.004v-3.526H62.668V33.831z M93.875,45.799
		L94.4,45.87v1.623h-1.195c-0.908,0-1.463-0.363-1.846-0.996c-0.383-0.631-0.484-1.443-0.484-2.344v-1.338
		c0-0.938-0.363-1.764-0.906-2.332c-0.545-0.568-1.365-0.924-2.279-0.924h-3.867v6.015l2.205,0.331v1.588h-6.17v-1.588l1.762-0.331
		V31.998l-1.762-0.331v-1.362h1.76h5.635c1.877,0,3.316,0.352,4.318,1.184s1.504,1.982,1.504,3.513c0,0.836-0.232,1.562-0.699,2.208
		c-0.465,0.647-1.131,1.148-2,1.52c0.939,0.307,1.643,0.805,2.057,1.498c0.414,0.695,0.646,1.547,0.646,2.564v1.385
		c0,0.529,0.041,0.92,0.176,1.172C93.389,45.602,93.566,45.751,93.875,45.799z M90.742,34.945c0-0.907-0.283-1.59-0.852-2.119
		c-0.568-0.528-1.449-0.758-2.639-0.758h-3.43v5.729h3.191c1.303,0,2.25-0.212,2.842-0.71
		C90.447,36.591,90.742,35.899,90.742,34.945z M110.414,32.413c1.439,1.665,2.057,3.749,2.057,6.25v0.248
		c0,2.509-0.629,4.593-2.068,6.249c-1.439,1.657-3.258,2.486-5.545,2.486c-2.225,0-3.967-0.829-5.355-2.486
		c-1.389-1.656-2.018-3.74-2.018-6.249v-0.248c0-2.501,0.652-4.584,2.041-6.25s3.174-2.498,5.4-2.498
		C107.213,29.915,108.973,30.748,110.414,32.413z M110.266,38.638c0-2.004-0.449-3.639-1.408-4.906
		c-0.959-1.266-2.258-1.899-3.953-1.899c-1.627,0-2.916,0.635-3.828,1.906c-0.91,1.271-1.387,2.903-1.387,4.899v0.272
		c0,2.021,0.477,3.663,1.387,4.929c0.912,1.268,2.191,1.9,3.816,1.9c1.721,0,3.029-0.631,3.977-1.894s1.396-2.907,1.396-4.936
		V38.638z M115.555,31.667l1.764,0.331v13.576l-1.764,0.331v1.588h6.17v-1.588l-1.762-0.331V31.998l1.762-0.331v-1.362h-6.17V31.667
		z M124.369,30.305v3.526h1.895l0.166-1.763h3.67v13.507l-1.764,0.331v1.588h6.17v-1.588l-1.764-0.331V32.067h3.678l0.178,1.763
		h1.875v-3.526H124.369z"/>
</g>
</svg>
