<?xml version="1.0" encoding="utf-8"?>
<!-- Generator: Adobe Illustrator 16.0.0, SVG Export Plug-In . SVG Version: 6.00 Build 0)  -->
<!DOCTYPE svg PUBLIC "-//W3C//DTD SVG 1.1//EN" "http://www.w3.org/Graphics/SVG/1.1/DTD/svg11.dtd">
<svg version="1.1" id="Layer_1" xmlns="http://www.w3.org/2000/svg" xmlns:xlink="http://www.w3.org/1999/xlink" x="0px" y="0px"
	 width="89.927px" height="16.145px" viewBox="0 0 89.927 16.145" enable-background="new 0 0 89.927 16.145" xml:space="preserve">
<g>
	<path fill-rule="evenodd" clip-rule="evenodd" fill="#8EC74E" d="M-86.132-117.848c0.406-0.234,0.905-0.234,1.314,0l10.88,6.28
		c0.409,0.234,0.659,0.668,0.659,1.138v12.569c0,0.471-0.25,0.903-0.657,1.139l-10.88,6.283c-0.411,0.236-0.91,0.236-1.316,0
		l-10.88-6.283c-0.407-0.235-0.657-0.668-0.657-1.139v-12.57c0-0.469,0.25-0.903,0.661-1.137L-86.132-117.848z"/>
	<path fill-rule="evenodd" clip-rule="evenodd" fill="#FFFFFF" d="M-53.33-107.458c0-0.245-0.128-0.471-0.341-0.592l-5.642-3.247
		c-0.097-0.056-0.203-0.085-0.311-0.09c-0.011,0-0.052,0-0.06,0c-0.107,0.005-0.214,0.034-0.312,0.09l-5.643,3.247
		c-0.211,0.122-0.341,0.347-0.341,0.592l0.013,8.745c0,0.121,0.063,0.234,0.17,0.294c0.104,0.062,0.234,0.062,0.338,0l3.354-1.92
		c0.213-0.126,0.341-0.349,0.341-0.592v-4.085c0-0.243,0.13-0.468,0.341-0.59l1.428-0.822c0.106-0.062,0.223-0.092,0.342-0.092
		c0.116,0,0.235,0.03,0.34,0.092l1.427,0.822c0.211,0.122,0.341,0.347,0.341,0.59v4.085c0,0.243,0.131,0.467,0.341,0.592l3.354,1.92
		c0.105,0.062,0.236,0.062,0.341,0c0.103-0.06,0.17-0.173,0.17-0.294L-53.33-107.458z"/>
	<path fill-rule="evenodd" clip-rule="evenodd" fill="#FFFFFF" d="M-23.198-119.479c-0.106-0.059-0.235-0.058-0.34,0.004
		c-0.104,0.061-0.168,0.173-0.168,0.294v8.66c0,0.085-0.046,0.164-0.119,0.207c-0.073,0.042-0.165,0.042-0.239,0l-1.412-0.814
		c-0.212-0.122-0.472-0.122-0.682,0l-5.646,3.258c-0.211,0.122-0.341,0.347-0.341,0.591v6.517c0,0.243,0.13,0.468,0.341,0.59
		l5.646,3.26c0.21,0.122,0.471,0.122,0.682,0l5.646-3.26c0.21-0.122,0.339-0.347,0.339-0.59v-16.245
		c0-0.247-0.133-0.475-0.349-0.595L-23.198-119.479z M-23.724-102.905c0,0.061-0.031,0.117-0.084,0.147l-1.938,1.117
		c-0.053,0.03-0.117,0.03-0.17,0l-1.938-1.117c-0.053-0.031-0.086-0.087-0.086-0.147v-2.238c0-0.061,0.033-0.117,0.086-0.147
		l1.938-1.12c0.053-0.03,0.117-0.03,0.171,0l1.938,1.12c0.053,0.03,0.084,0.087,0.084,0.147V-102.905z"/>
	<path fill-rule="evenodd" clip-rule="evenodd" fill="#FFFFFF" d="M-3.003-105.201c0.21-0.122,0.338-0.347,0.338-0.59v-1.579
		c0-0.243-0.128-0.468-0.338-0.59l-5.609-3.256c-0.211-0.123-0.472-0.123-0.682-0.001l-5.645,3.257
		c-0.211,0.122-0.341,0.347-0.341,0.591v6.515c0,0.245,0.132,0.471,0.345,0.592l5.606,3.196c0.208,0.118,0.462,0.119,0.67,0.003
		l3.391-1.885c0.109-0.06,0.176-0.172,0.176-0.295c0.001-0.123-0.064-0.237-0.171-0.298l-5.679-3.26
		c-0.105-0.061-0.172-0.174-0.172-0.295v-2.042c0-0.122,0.066-0.234,0.171-0.295l1.768-1.019c0.105-0.061,0.235-0.061,0.341,0
		l1.767,1.019c0.107,0.061,0.172,0.173,0.172,0.295v1.607c0,0.122,0.064,0.234,0.172,0.295c0.104,0.061,0.235,0.061,0.34,0
		L-3.003-105.201z"/>
	<path fill-rule="evenodd" clip-rule="evenodd" fill="#8EC74E" d="M-43.065-111.251c0.211-0.122,0.47-0.122,0.682,0l5.644,3.257
		c0.212,0.122,0.342,0.347,0.342,0.59v6.52c0,0.244-0.13,0.468-0.341,0.591l-5.644,3.259c-0.213,0.123-0.472,0.123-0.683,0
		l-5.644-3.259c-0.211-0.122-0.341-0.347-0.341-0.591v-6.52c0-0.243,0.13-0.468,0.343-0.59L-43.065-111.251z"/>
	<path fill="#8EC74E" d="M7.955-96.941c-0.194,0-0.388-0.051-0.558-0.149L5.62-98.142c-0.266-0.148-0.136-0.201-0.049-0.231
		c0.354-0.123,0.426-0.151,0.805-0.365c0.039-0.022,0.091-0.014,0.132,0.01l1.364,0.811c0.05,0.027,0.12,0.027,0.166,0l5.322-3.072
		c0.049-0.028,0.08-0.085,0.08-0.144v-6.143c0-0.06-0.031-0.116-0.082-0.146l-5.32-3.069c-0.049-0.029-0.114-0.029-0.163,0
		l-5.319,3.07c-0.052,0.029-0.084,0.087-0.084,0.145v6.143c0,0.059,0.032,0.114,0.084,0.142l1.457,0.843
		c0.791,0.395,1.276-0.071,1.276-0.539v-6.064c0-0.085,0.067-0.153,0.154-0.153h0.675c0.085,0,0.154,0.067,0.154,0.153v6.064
		c0,1.056-0.575,1.661-1.575,1.661c-0.309,0-0.55,0-1.227-0.333l-1.396-0.804c-0.346-0.199-0.559-0.571-0.559-0.971v-6.143
		c0-0.399,0.213-0.771,0.559-0.97l5.322-3.076c0.337-0.19,0.783-0.19,1.119,0l5.321,3.076c0.345,0.199,0.559,0.571,0.559,0.97v6.143
		c0,0.399-0.214,0.771-0.559,0.971l-5.321,3.073C8.346-96.992,8.152-96.941,7.955-96.941z"/>
	<path fill="#8EC74E" d="M9.6-101.173c-2.33,0-2.817-1.069-2.817-1.966c0-0.085,0.068-0.153,0.153-0.153h0.689
		c0.076,0,0.14,0.055,0.152,0.13c0.104,0.701,0.414,1.054,1.822,1.054c1.121,0,1.599-0.253,1.599-0.849
		c0-0.343-0.136-0.597-1.878-0.769c-1.456-0.143-2.358-0.465-2.358-1.63c0-1.074,0.906-1.714,2.424-1.714
		c1.706,0,2.549,0.591,2.656,1.861c0.003,0.043-0.012,0.086-0.041,0.118c-0.029,0.031-0.069,0.049-0.113,0.049h-0.69
		c-0.071,0-0.135-0.051-0.149-0.12c-0.165-0.738-0.568-0.973-1.662-0.973c-1.225,0-1.366,0.427-1.366,0.746
		c0,0.387,0.169,0.5,1.821,0.718c1.635,0.217,2.412,0.523,2.412,1.672C12.253-101.837,11.285-101.173,9.6-101.173z"/>
	<path fill-rule="evenodd" clip-rule="evenodd" fill="#8EC74E" d="M-9.037-105.507c0.041-0.023,0.091-0.023,0.131,0l1.083,0.625
		c0.04,0.023,0.065,0.067,0.065,0.113v1.251c0,0.047-0.025,0.09-0.065,0.113l-1.083,0.625c-0.04,0.023-0.09,0.023-0.131,0
		l-1.082-0.625c-0.042-0.023-0.065-0.066-0.065-0.113v-1.251c0-0.046,0.023-0.09,0.065-0.113L-9.037-105.507z"/>
</g>
<path fill="#F42534" d="M87.631-105.272l-12.28-12.28c-0.707-0.707-1.854-0.707-2.562,0l-2.55,2.55l3.234,3.235
	c0.752-0.254,1.614-0.084,2.213,0.516c0.603,0.603,0.771,1.472,0.511,2.227l3.118,3.117c0.755-0.26,1.624-0.092,2.228,0.512
	c0.842,0.841,0.842,2.205,0,3.048c-0.843,0.842-2.207,0.842-3.049,0c-0.634-0.634-0.79-1.564-0.469-2.344l-2.908-2.908v7.651
	c0.205,0.101,0.398,0.237,0.569,0.407c0.842,0.842,0.842,2.206,0,3.049c-0.842,0.841-2.206,0.841-3.048,0
	c-0.842-0.843-0.842-2.207,0-3.049c0.209-0.208,0.449-0.365,0.706-0.47v-7.722c-0.257-0.105-0.497-0.261-0.706-0.471
	c-0.637-0.637-0.791-1.573-0.463-2.356l-3.189-3.189l-8.421,8.419c-0.707,0.708-0.707,1.855,0,2.563l12.281,12.279
	c0.706,0.708,1.854,0.708,2.562,0l12.223-12.222C88.338-103.417,88.338-104.565,87.631-105.272z"/>
<path fill="#CC3937" d="M-97.225-78.369v23.561h19.601v3.934h15.652v-3.934h35.253v-23.561H-97.225z M-77.624-58.769h-3.946v-11.706
	h-3.948v11.706h-7.729v-15.64h15.624V-58.769z M-58.023-58.769h-7.759v3.96h-7.866v-19.6h15.625V-58.769z M-30.529-58.769h-3.948
	v-11.706h-3.946v11.706h-3.945v-11.706h-3.949v11.706h-7.758v-15.64h23.547V-58.769z M-61.972-62.716h-3.811v-7.758h3.811V-62.716z"
	/>
<g>
	<path fill="#6863A7" d="M34.264-60.648v-8.661c0-0.61-0.448-0.874-0.976-0.874c-1.058,0-2.379,0.264-3.578,0.792v8.743h-2.439
		v-16.081h2.439v5.305c1.159-0.426,2.541-0.792,3.924-0.792c2.216,0,3.049,1.362,3.049,3.231v8.336H34.264L34.264-60.648z
		 M41.236-65.893c0.081,2.907,0.65,3.477,2.438,3.477c1.403,0,2.988-0.468,4.208-0.936l0.407,1.83
		c-1.302,0.59-2.887,1.159-4.777,1.159c-4.066,0-4.696-2.235-4.696-5.794c0-1.951,0.142-3.72,0.61-5.346
		c1.219-0.468,2.846-0.712,4.898-0.712c3.335,0,4.351,1.85,4.351,5.083v1.24H41.236L41.236-65.893z M44.325-70.183
		c-0.73,0-1.891,0.02-2.846,0.203c-0.101,0.488-0.224,1.159-0.265,2.399h5.083C46.298-69.269,45.993-70.183,44.325-70.183
		L44.325-70.183z M53.25-69.391v8.743h-2.44v-9.84c2.054-1.118,4.229-1.464,5.652-1.565v2.033
		C55.465-69.939,54.204-69.817,53.25-69.391L53.25-69.391z M62.906-60.364c-3.641,0-5.286-1.789-5.286-5.875
		c0-4.33,2.175-5.977,5.286-5.977c3.638,0,5.284,1.789,5.284,5.875C68.19-62.01,66.015-60.364,62.906-60.364L62.906-60.364z
		 M62.906-70.183c-1.871,0-2.907,1.077-2.907,3.944c0,3.131,0.874,3.822,2.907,3.822c1.869,0,2.906-1.058,2.906-3.924
		C65.812-69.472,64.938-70.183,62.906-70.183L62.906-70.183z M79.96-60.648h-2.866c-0.67-1.789-1.605-3.619-3.049-5.204h-1.281
		v5.204h-2.439v-16.081h2.439v9.229h1.139c1.24-1.281,2.195-2.866,2.866-4.432h2.744c-0.935,1.891-2.134,3.558-3.476,4.92
		C77.644-64.979,78.903-62.823,79.96-60.648L79.96-60.648z M84.533-60.364c-2.215,0-3.049-1.362-3.049-3.232v-8.336h2.419v8.64
		c0,0.611,0.447,0.875,0.976,0.875c1.058,0,2.5-0.264,3.701-0.793v-8.722h2.438v9.8C88.132-60.546,85.916-60.364,84.533-60.364
		L84.533-60.364z"/>
	<path fill-rule="evenodd" clip-rule="evenodd" fill="#6863A7" d="M19.298-54.695H2.313c-1.452,0-2.629-1.177-2.629-2.63v-22.318
		c0-1.453,1.177-2.63,2.629-2.63h16.984c1.452,0,2.63,1.177,2.63,2.63v22.318C21.928-55.872,20.75-54.695,19.298-54.695
		L19.298-54.695z M21.026-79.494c0-1.038-0.842-1.879-1.879-1.879H2.465c-1.038,0-1.879,0.842-1.879,1.879v22.019
		c0,1.038,0.841,1.879,1.879,1.879h16.683c1.037,0,1.879-0.842,1.879-1.879V-79.494L21.026-79.494z"/>
	<path fill="#6863A7" d="M13.624-58.49v-10.953c0,0,0.712-2.621-8.775,1.073c-0.018,0.046-0.018-10.128-0.018-10.128l3.1-0.019
		v6.519c0,0,8.681-3.419,8.681,2.592c0,6.012,0,10.916,0,10.916H13.624L13.624-58.49z M15.391-74.571c0,0-3.251,0-3.288,0
		c1.184-1.447,2.255-3.926,2.255-3.926h3.399C17.757-78.498,17.175-76.882,15.391-74.571L15.391-74.571z M4.888-58.508v-6.237
		l3.119,3.119L4.888-58.508L4.888-58.508z"/>
</g>
<path fill="#5089A1" d="M-45.413-146.096v12.388c0,0.49-0.424,1.054-0.891,1.184l-24.897,6.896
	c-0.318,0.088-0.774,0.139-1.251,0.139c-0.477,0-0.933-0.051-1.251-0.139l-24.925-6.896c-0.483-0.134-0.923-0.698-0.923-1.184
	v-12.388c0-0.485,0.44-1.05,0.924-1.184l24.914-6.896c0.319-0.088,0.776-0.139,1.255-0.139c0.479,0,0.937,0.051,1.255,0.139
	l24.896,6.896C-45.838-147.15-45.413-146.585-45.413-146.096z M-24.213-146.09c1.369,1.385,2.091,3.104,2.091,5.297v2.355
	c0,2.202-0.722,4.039-2.091,5.416c-1.368,1.377-3.215,2.113-5.464,2.113h-7.43v-1.587l2.203-0.331v-13.576l-2.203-0.331v-1.362h2.14
	h5.29C-27.428-148.097-25.581-147.475-24.213-146.09z M-24.325-140.817c0-1.625-0.561-2.928-1.48-3.978
	c-0.92-1.049-2.277-1.54-3.871-1.54h-3.022v13.663h3.022c1.594,0,2.951-0.603,3.871-1.652s1.48-2.473,1.48-4.114V-140.817z
	 M-7.704-132.671h-6.926v-6.17h6.611v-2.204h-6.611v-5.289h6.783l0.189,2.204h1.842v-3.966h-13.221v1.362l2.203,0.331v13.576
	l-2.203,0.331v1.587h13.662v-4.407h-2.141L-7.704-132.671z M8.288-146.734l1.594,0.22l-3.805,11.192l-0.391,1.328h-0.07
	l-0.377-1.328l-3.844-11.164l1.604-0.249v-1.362H-2.29v1.362l1.267,0.237l5.669,15.588h2l5.881-15.588l1.49-0.237v-1.362H8.288
	V-146.734z M15.78-144.571h2.208l0.166-1.763h3.796v13.507l-1.763,0.331v1.587h6.17v-1.587l-2.204-0.331v-13.507h3.99l0.178,1.763
	h2.003v-3.526H15.78V-144.571z M46.986-132.603l0.525,0.071v1.623h-1.195c-0.907,0-1.463-0.363-1.846-0.995
	c-0.383-0.631-0.484-1.444-0.484-2.344v-1.338c0-0.939-0.362-1.764-0.906-2.332c-0.545-0.568-1.364-0.924-2.279-0.924h-3.866v6.015
	l2.204,0.331v1.587h-6.17v-1.587l1.763-0.331v-13.576l-1.763-0.331v-1.362h1.761h5.634c1.877,0,3.317,0.352,4.319,1.184
	s1.504,1.982,1.504,3.513c0,0.836-0.233,1.562-0.699,2.209c-0.465,0.647-1.132,1.148-2,1.519c0.939,0.308,1.642,0.805,2.056,1.499
	c0.415,0.694,0.647,1.546,0.647,2.564v1.385c0,0.529,0.041,0.919,0.175,1.172C46.5-132.8,46.679-132.65,46.986-132.603z
	 M43.854-143.457c0-0.907-0.284-1.59-0.852-2.119c-0.568-0.528-1.449-0.758-2.64-0.758h-3.429v5.729h3.191
	c1.302,0,2.249-0.212,2.841-0.709S43.854-142.502,43.854-143.457z M63.525-145.989c1.44,1.665,2.057,3.748,2.057,6.25v0.248
	c0,2.509-0.628,4.592-2.067,6.25c-1.44,1.657-3.258,2.485-5.546,2.485c-2.225,0-3.966-0.829-5.354-2.485
	c-1.389-1.657-2.018-3.74-2.018-6.25v-0.248c0-2.501,0.652-4.584,2.041-6.25s3.174-2.498,5.399-2.498
	C60.325-148.486,62.085-147.654,63.525-145.989z M63.378-139.764c0-2.004-0.45-3.639-1.409-4.906
	c-0.958-1.266-2.257-1.899-3.953-1.899c-1.626,0-2.915,0.635-3.827,1.906c-0.911,1.271-1.388,2.904-1.388,4.899v0.272
	c0,2.02,0.477,3.663,1.388,4.929c0.912,1.267,2.19,1.9,3.816,1.9c1.72,0,3.029-0.631,3.977-1.894
	c0.947-1.262,1.396-2.907,1.396-4.936V-139.764z M68.667-146.734l1.763,0.331v13.576l-1.763,0.331v1.587h6.17v-1.587l-1.763-0.331
	v-13.576l1.763-0.331v-1.362h-6.17V-146.734z M77.481-148.097v3.526h1.895l0.166-1.763h3.669v13.507l-1.764,0.331v1.587h6.171
	v-1.587l-1.764-0.331v-13.507h3.677l0.178,1.763h1.875v-3.526H77.481z"/>
<g>
	<path fill="#131B28" d="M-50.805-30.543v-0.001l-0.675,2.39L-50.805-30.543L-50.805-30.543z M-47.338-25.357l-0.743-0.004
		L-47.338-25.357z M-46.596-25.353l-0.743-0.004L-46.596-25.353z M-47.139-22.092l0.775-2.957L-47.139-22.092L-47.139-22.092
		L-47.139-22.092z M-30.753-35.708l-1.443,6.79L-30.753-35.708z M-34.465-35.708l-1.097,5.072L-34.465-35.708L-34.465-35.708z
		 M-31-36.014h-3.088c-0.171,0-0.341,0.138-0.378,0.305l-1.097,5.072l-1.096,5.073c-0.036,0.167-0.207,0.304-0.378,0.304h-1.874
		h-0.312c-2.162,0-1.912-1.496-1.47-3.545c0.006-0.021,0.01-0.041,0.014-0.062l0.049-0.258c0.003-0.017,0.007-0.033,0.01-0.049
		l0.099-0.525l0.105-0.564c0.032-0.169,0.08-0.418,0.113-0.574l0.497-2.436l0.5-2.435c0.034-0.168-0.079-0.306-0.25-0.306h-3.17
		c-0.171,0-0.341,0.138-0.376,0.306l-0.681,3.233l-0.683,3.233c-0.001,0.001-0.001,0.003-0.001,0.005l-0.063,0.3
		c-0.784,3.584-0.576,7.002,3.69,7.109c0.069,0.002,0.124,0.002,0.124,0.002h6.696c0.172,0,0.342-0.138,0.377-0.306l1.445-6.789
		l1.443-6.79C-30.717-35.876-30.828-36.014-31-36.014L-31-36.014z M-18.68-25.225c0.172,0,0.284,0.138,0.25,0.305l-0.301,1.466
		 M-19.03-21.987l0.301-1.466L-19.03-21.987C-19.03-21.987-19.03-21.987-19.03-21.987L-19.03-21.987z M-26.939-27.112
		c-0.002-0.161,0.181-0.437,0.353-0.437l-0.387-0.006C-27.146-25.808-26.939-27.112-26.939-27.112L-26.939-27.112z M-18.68-25.225
		c0.172,0,0.284,0.138,0.25,0.305l-0.301,1.466l-0.049,0.239 M-19.03-21.986l0.252-1.228L-19.03-21.986
		C-19.03-21.986-19.03-21.986-19.03-21.986L-19.03-21.986z M-69.818-27.076l0.48-2.126l-0.549,2.431l-0.526,2.476l0.462-2.17
		C-69.916-26.633-69.855-26.908-69.818-27.076L-69.818-27.076z M-64.076-36.05h-3.392c-0.172,0-0.343,0.137-0.381,0.304l-0.321,1.42
		l-0.321,1.42c-0.039,0.167,0.071,0.304,0.242,0.304h3.418c0.172,0,0.342-0.137,0.379-0.305l0.311-1.419l0.311-1.419l0,0
		C-63.795-35.913-63.904-36.05-64.076-36.05L-64.076-36.05z M-64.814-31.328L-64.814-31.328l-0.994,4.602L-64.814-31.328z
		 M-68.858-31.329l-0.48,2.126L-68.858-31.329z M-65.06-31.633h-3.419c-0.171,0-0.343,0.137-0.38,0.304l-0.48,2.126l-0.479,2.126
		c-0.038,0.168-0.099,0.442-0.134,0.61l-0.461,2.171l-0.461,2.171c-0.036,0.167-0.109,0.438-0.165,0.6c0,0-0.638,1.9-1.712,1.878
		c-0.046-0.001-0.09-0.001-0.134-0.002c-0.521-0.01-0.929-0.017-0.929-0.017h-0.001c-0.172-0.002-0.344,0.131-0.384,0.298
		l-0.354,1.49l-0.354,1.49c-0.04,0.167,0.067,0.304,0.238,0.307c0.608,0.007,1.972,0.023,2.798,0.023
		c2.681,0,4.095-1.486,5.001-5.761l1.061-4.907l0.995-4.603C-64.777-31.496-64.888-31.633-65.06-31.633L-65.06-31.633z
		 M-16.501-21.825c-0.172,0-0.283-0.137-0.247-0.305l2.571-12.044 M-12.928-22.131l1.04-5.141L-12.928-22.131z M-16.711-21.978
		c-0.021-0.084-0.009-0.29,0.028-0.458l1.22-5.717l-1.286,6.022c-0.036,0.168,0.075,0.305,0.247,0.305h0.312
		C-16.361-21.825-16.69-21.894-16.711-21.978L-16.711-21.978z M-12.407-24.701l0.459-2.269c0,0.001,0,0.003-0.001,0.004
		L-12.407-24.701L-12.407-24.701z M-2.261-33.368l0.142,0.585c0.039,0.167-0.069,0.303-0.241,0.304 M-12.865-22.436l0.457-2.265
		L-12.865-22.436z M-2.402-33.968l0.141,0.6L-2.402-33.968z M-11.948-26.97c0.034-0.168,0.09-0.44,0.126-0.606l0.49-2.297
		l-0.556,2.602L-11.948-26.97L-11.948-26.97z M-14.135-34.372c-0.034,0.162-0.078,0.367-0.106,0.502l-1.221,5.718l1.285-6.022
		L-14.135-34.372L-14.135-34.372z M-2.12-32.783l-0.143-0.585l-0.14-0.6l-0.071-0.303c-0.276-1.079-1.093-1.701-2.861-1.701
		l-2.756-0.003l-2.537-0.003h-0.219h-2.637c-0.171,0-0.341,0.137-0.376,0.305l0,0l-0.126,0.596l-0.15,0.705l-0.041,0.197
		l-1.285,6.022l-1.22,5.717c-0.037,0.168-0.049,0.374-0.028,0.458s0.35,0.152,0.521,0.152h2.576c0.171,0,0.389-0.031,0.481-0.068
		c0.095-0.038,0.232-0.375,0.267-0.542l0.457-2.265l0.459-2.265c0-0.001,0-0.003,0.001-0.004l0.061-0.302l0.556-2.602l0.49-2.298
		c0.037-0.167,0.205-0.303,0.377-0.304l8.104-0.004C-2.189-32.479-2.081-32.615-2.12-32.783L-2.12-32.783z M8.313-38.075
		c-0.172,0.001-0.452,0.002-0.624,0.002H5.096c-0.173,0-0.392,0.116-0.488,0.257l-5.736,8.404c-0.098,0.142-0.208,0.121-0.245-0.046
		l-0.422-1.852c-0.039-0.167-0.21-0.304-0.382-0.304h-3.688c-0.172,0-0.273,0.135-0.227,0.3l1.652,5.789
		c0.048,0.165,0.051,0.436,0.009,0.602l-0.721,2.802c-0.043,0.166,0.062,0.302,0.234,0.302h3.645c0.172,0,0.347-0.136,0.389-0.302
		l0.722-2.802c0.041-0.166,0.161-0.415,0.265-0.551l9.312-12.36c0.104-0.137,0.047-0.248-0.124-0.247L8.313-38.075L8.313-38.075z
		 M-20.984-30.825v-0.004c-0.022,0.187-0.193,0.323-0.365,0.323h-4.675c-0.161,0-0.243-0.11-0.221-0.245
		c0.002-0.004,0.003-0.008,0.005-0.011c0,0-0.002,0-0.003,0.001c0.001-0.006,0.001-0.01,0.003-0.016c0,0,0.009-0.033,0.021-0.079
		c0.446-1.188,1.355-1.967,3.064-1.967C-21.229-32.822-20.854-31.882-20.984-30.825L-20.984-30.825z M-22.355-36.221
		c-6.002,0-7.424,3.643-8.222,7.319c-0.798,3.747-0.729,7.251,5.481,7.251h0.22c0.02-0.001,0.04-0.001,0.06-0.001h0.174h0.063h0.163
		c0.024,0,0.048,0,0.073,0c0.062,0,0.124,0,0.187,0h0.044c0.246,0,0.495-0.001,0.745-0.002h0.013
		c1.64-0.006,3.285-0.019,3.951-0.024c0.17-0.002,0.337-0.14,0.372-0.306l0.251-1.229l0.049-0.239l0.301-1.465
		c0.034-0.168-0.078-0.306-0.25-0.306h-5.582c-2.222,0-2.881-0.59-2.638-2.325h8.925l-0.001,0.001c0.003,0,0.004-0.001,0.006-0.001
		c0.142-0.002,0.273-0.1,0.325-0.23c0.01-0.025,0.019-0.051,0.021-0.079l-0.001,0.001C-16.3-32.855-16.679-36.221-22.355-36.221
		L-22.355-36.221z M-50.721-30.844l-0.084,0.299c0,0.001-0.001,0.001-0.001,0.001l-0.674,2.388l-0.673,2.387
		c-0.047,0.165-0.226,0.3-0.396,0.3h-3.567c-2.706,0-3.364-2.116-2.706-5.237c0.659-3.192,1.951-5.177,4.613-5.378
		C-50.569-36.357-49.842-33.798-50.721-30.844L-50.721-30.844z M-48.274-25.651c0,0,1.682-4.083,2.064-6.442
		c0.52-3.157-1.061-7.736-7.166-7.736c-6.071,0-8.707,4.371-9.713,9.124c-1.006,4.787,0.312,8.985,6.348,8.95l4.762-0.018
		l4.451-0.016c0.172-0.001,0.347-0.138,0.391-0.303l0.775-2.957c0.043-0.166-0.062-0.303-0.232-0.304l-0.744-0.004l-0.743-0.004
		c-0.146-0.001-0.229-0.095-0.211-0.22C-48.29-25.605-48.285-25.628-48.274-25.651L-48.274-25.651z M-18.221-28.385
		c0,0.113-0.092,0.205-0.205,0.205s-0.205-0.092-0.205-0.205c0-0.112,0.092-0.204,0.205-0.204S-18.221-28.497-18.221-28.385z"/>
	<path fill="#0A69AD" d="M-94.631-33.693c-1.676,2.409-1.468,5.543-0.188,8.104c0.031,0.061,0.062,0.121,0.094,0.182
		c0.021,0.039,0.039,0.078,0.061,0.115c0.012,0.022,0.024,0.045,0.037,0.066c0.021,0.041,0.044,0.08,0.066,0.12
		c0.04,0.07,0.081,0.14,0.122,0.209c0.023,0.038,0.047,0.077,0.07,0.115c0.046,0.075,0.094,0.148,0.142,0.222
		c0.021,0.031,0.04,0.062,0.061,0.093c0.066,0.099,0.135,0.199,0.205,0.296c0.002,0.002,0.004,0.005,0.006,0.008
		c0.012,0.016,0.023,0.031,0.035,0.046c0.061,0.084,0.124,0.167,0.188,0.249c0.023,0.03,0.047,0.06,0.07,0.09
		c0.057,0.071,0.114,0.142,0.173,0.213c0.021,0.026,0.044,0.053,0.066,0.079c0.079,0.092,0.158,0.185,0.241,0.275
		c0.001,0.002,0.003,0.004,0.005,0.005c0.003,0.004,0.006,0.006,0.009,0.01c0.08,0.087,0.162,0.172,0.245,0.258
		c0.026,0.026,0.052,0.053,0.079,0.079c0.063,0.064,0.129,0.128,0.195,0.192c0.026,0.025,0.054,0.052,0.08,0.076
		c0.088,0.083,0.177,0.164,0.268,0.244c0.002,0.001,0.003,0.003,0.005,0.003c0.016,0.014,0.031,0.027,0.046,0.04
		c0.08,0.069,0.162,0.138,0.244,0.206c0.033,0.027,0.067,0.054,0.101,0.081c0.067,0.054,0.135,0.106,0.203,0.159
		c0.036,0.027,0.072,0.055,0.108,0.083c0.075,0.056,0.151,0.11,0.228,0.164c0.028,0.02,0.056,0.04,0.083,0.059
		c0.008,0.006,0.016,0.011,0.023,0.017c0.072,0.05,0.146,0.098,0.221,0.146c0.032,0.021,0.063,0.043,0.096,0.064
		c0.114,0.072,0.229,0.143,0.347,0.212c0.031,0.019,0.063,0.036,0.096,0.054c0.086,0.05,0.173,0.098,0.26,0.146
		c0.048,0.025,0.096,0.049,0.144,0.074c0.062,0.033,0.124,0.065,0.187,0.097c0.015,0.007,0.029,0.014,0.043,0.021
		c0.025,0.012,0.051,0.024,0.076,0.037c0.098,0.047,0.195,0.092,0.295,0.137c0.021,0.009,0.041,0.019,0.062,0.028
		c0.113,0.05,0.228,0.098,0.344,0.143c0.027,0.012,0.056,0.022,0.084,0.034c0.106,0.041,0.215,0.082,0.324,0.12
		c0.014,0.005,0.027,0.01,0.041,0.014c0.119,0.042,0.24,0.081,0.361,0.119c0.029,0.008,0.059,0.018,0.088,0.026
		c0.123,0.038,0.246,0.082,0.373,0.105c8.107,1.479,10.462-4.872,10.462-4.872c-1.978,2.577-5.488,3.256-8.814,2.5
		c-0.126-0.028-0.249-0.067-0.371-0.104c-0.031-0.01-0.062-0.019-0.093-0.028c-0.12-0.037-0.239-0.076-0.357-0.116
		c-0.017-0.006-0.032-0.012-0.049-0.018c-0.106-0.037-0.211-0.076-0.315-0.117c-0.029-0.012-0.059-0.023-0.088-0.035
		c-0.114-0.045-0.229-0.092-0.341-0.142c-0.023-0.01-0.045-0.02-0.067-0.03c-0.097-0.044-0.192-0.088-0.288-0.134
		c-0.026-0.013-0.055-0.026-0.082-0.04c-0.075-0.037-0.148-0.075-0.223-0.113c-0.049-0.026-0.1-0.05-0.147-0.078
		c-0.09-0.048-0.179-0.098-0.267-0.149c-0.029-0.017-0.06-0.032-0.09-0.05c-0.117-0.069-0.232-0.14-0.347-0.212
		c-0.031-0.02-0.062-0.042-0.093-0.062c-0.083-0.053-0.166-0.108-0.247-0.164c-0.027-0.018-0.053-0.038-0.079-0.056
		c-0.079-0.055-0.156-0.112-0.233-0.168c-0.035-0.026-0.069-0.052-0.104-0.079c-0.07-0.054-0.141-0.108-0.21-0.164
		c-0.032-0.025-0.062-0.05-0.094-0.075c-0.089-0.073-0.176-0.146-0.263-0.221c-0.009-0.008-0.019-0.015-0.028-0.024
		c-0.094-0.082-0.185-0.166-0.275-0.25c-0.026-0.025-0.052-0.049-0.078-0.075c-0.066-0.063-0.133-0.127-0.197-0.194
		c-0.026-0.026-0.052-0.051-0.077-0.077c-0.083-0.085-0.164-0.17-0.243-0.257c-0.004-0.004-0.008-0.008-0.012-0.013
		c-0.084-0.092-0.167-0.186-0.246-0.28c-0.022-0.026-0.044-0.051-0.065-0.077c-0.06-0.072-0.119-0.146-0.177-0.219
		c-0.022-0.026-0.044-0.054-0.065-0.081c-0.069-0.09-0.138-0.181-0.204-0.272c-1.848-2.519-2.511-5.993-1.034-8.846 M-89.428-35.723
		c-1.212,1.744-1.146,4.08-0.2,5.924c0.158,0.31,0.336,0.609,0.535,0.895c0.182,0.26,0.384,0.57,0.625,0.779
		c0.087,0.097,0.179,0.19,0.271,0.282c0.023,0.024,0.048,0.047,0.072,0.071c0.09,0.088,0.183,0.174,0.277,0.258
		c0.004,0.003,0.008,0.007,0.012,0.01c0.001,0.001,0.002,0.001,0.002,0.002c0.105,0.093,0.215,0.182,0.325,0.269
		c0.024,0.019,0.049,0.039,0.073,0.058c0.111,0.085,0.224,0.168,0.34,0.248c0.003,0.002,0.007,0.005,0.01,0.007
		c0.051,0.035,0.104,0.068,0.155,0.102c0.024,0.017,0.048,0.034,0.073,0.049c0.083,0.053,0.166,0.104,0.252,0.154
		c0.012,0.007,0.023,0.013,0.035,0.021c0.073,0.042,0.147,0.084,0.223,0.124c0.025,0.015,0.053,0.027,0.078,0.041
		c0.052,0.027,0.104,0.055,0.156,0.081c0.008,0.003,0.017,0.007,0.023,0.011c0.106,0.052,0.215,0.103,0.325,0.151
		c0.023,0.01,0.047,0.02,0.071,0.029c0.088,0.038,0.177,0.074,0.266,0.108c0.038,0.014,0.076,0.028,0.114,0.042
		c0.081,0.03,0.162,0.058,0.244,0.085c0.037,0.012,0.073,0.024,0.11,0.036c0.117,0.036,0.231,0.082,0.354,0.102
		c6.26,1.037,7.704-3.782,7.704-3.782c-1.303,1.876-3.825,2.771-6.518,2.072c-0.119-0.031-0.237-0.066-0.354-0.102
		c-0.036-0.011-0.071-0.023-0.107-0.035c-0.083-0.027-0.165-0.056-0.248-0.085c-0.037-0.014-0.074-0.027-0.111-0.042
		c-0.09-0.034-0.179-0.07-0.268-0.107c-0.023-0.011-0.048-0.02-0.071-0.031c-0.11-0.048-0.22-0.099-0.326-0.152
		c-0.056-0.027-0.11-0.055-0.164-0.083c-0.031-0.017-0.063-0.033-0.095-0.049c-0.069-0.037-0.139-0.077-0.207-0.117
		c-0.016-0.009-0.033-0.018-0.05-0.028c-0.084-0.05-0.168-0.101-0.251-0.153c-0.025-0.017-0.05-0.034-0.075-0.051
		c-0.055-0.036-0.108-0.071-0.162-0.108c-0.116-0.079-0.228-0.163-0.339-0.248c-0.025-0.02-0.051-0.04-0.076-0.06
		c-1.179-0.93-2.112-2.202-2.556-3.643c-0.466-1.495-0.365-3.173,0.44-4.535 M-85.052-37.24c-0.714,1.052-0.784,2.358-0.289,3.52
		c0.523,1.233,1.596,2.2,2.846,2.659c0.052,0.02,0.104,0.037,0.155,0.054c0.022,0.007,0.046,0.015,0.069,0.021
		c0.073,0.023,0.146,0.05,0.222,0.064c3.456,0.668,4.395-1.773,4.644-2.133c-0.821,1.182-2.201,1.466-3.894,1.055
		c-0.134-0.033-0.281-0.081-0.41-0.126c-0.165-0.059-0.328-0.126-0.487-0.202c-0.3-0.145-0.587-0.32-0.853-0.521
		c-1.515-1.149-2.456-3.342-1.467-5.129"/>
	<path fill="#0A69AD" d="M-46.127-16.756l-0.996,2.269h-1.101l0.09-2.062l-0.809,2.062h-1.064l-0.029-2.269l0.118-0.561h0.754
		l-0.145,2.241l0.837-2.241h1.051l-0.076,2.269l0.83-2.269h0.657L-46.127-16.756L-46.127-16.756z M-44.392-16.084
		c0.097-0.443,0.069-0.526-0.159-0.526h-0.346l-0.222,1.038l-0.339,1.086H-46.1l0.525-2.463l0.076-0.36h0.588l0.076,0.167
		c0,0,0.339-0.201,0.67-0.201c0.706,0,0.651,0.532,0.498,1.259H-44.392L-44.392-16.084z M-42.302-17.669
		c-0.283,0-0.463-0.083-0.395-0.429c0.076-0.346,0.298-0.429,0.574-0.429c0.277,0,0.464,0.083,0.388,0.429
		C-41.804-17.759-42.024-17.669-42.302-17.669L-42.302-17.669z M-42.606-14.486h-0.637l0.125-1.107l0.222-1.023l-0.442-0.097
		l0.124-0.602h1.21L-42.606-14.486L-42.606-14.486z M-39.847-16.716l-0.795,0.098l-0.229,1.079c-0.062,0.298-0.062,0.381,0.2,0.381
		h0.533l-0.111,0.567c0,0-0.483,0.146-0.691,0.146c-0.816,0-0.81-0.45-0.664-1.121l0.221-1.058l-0.442-0.097l0.132-0.602h0.464
		l0.263-0.713h0.63l-0.153,0.713h0.775L-39.847-16.716L-39.847-16.716z M-38.193-16.68c-0.373,0-0.567,0.194-0.643,0.54l1.064-0.09
		C-37.723-16.465-37.771-16.68-38.193-16.68L-38.193-16.68z M-38.94-15.628c-0.048,0.346,0.083,0.464,0.525,0.464h1.113l-0.11,0.525
		c0,0-0.671,0.187-1.169,0.187c-1.238,0-1.252-0.698-1.093-1.445c0.159-0.733,0.443-1.459,1.64-1.459
		c1.155,0,1.211,0.698,0.927,1.729H-38.94L-38.94-15.628z M-34.569-14.488h-0.636l0.124-1.106l0.449-2.103l-0.442-0.104l0.132-0.602
		h1.21L-34.569-14.488L-34.569-14.488z M-32.271-16.68c-0.374,0-0.567,0.194-0.644,0.54l1.065-0.09
		C-31.801-16.465-31.849-16.68-32.271-16.68L-32.271-16.68z M-33.019-15.628c-0.048,0.346,0.084,0.464,0.526,0.464h1.113
		l-0.11,0.525c0,0-0.671,0.187-1.169,0.187c-1.239,0-1.252-0.698-1.093-1.445c0.159-0.733,0.442-1.459,1.64-1.459
		c1.155,0,1.21,0.698,0.927,1.729H-33.019L-33.019-15.628z M-28.267-16.646c0,0-0.81,0.007-1.03,0.007
		c-0.471,0-0.52,0.146-0.554,0.297l-0.028,0.138l1.495,0.111c0,0,0.007,0.478-0.056,0.747c-0.09,0.45-0.554,0.906-1.391,0.906
		c-0.415,0-1.086-0.159-1.086-0.159l0.117-0.546h1.03c0.457,0,0.52-0.125,0.548-0.249l0.034-0.18l-1.466-0.11
		c0,0-0.056-0.367,0.021-0.733c0.11-0.499,0.566-0.927,1.403-0.927c0.416,0,1.087,0.151,1.087,0.151L-28.267-16.646L-28.267-16.646z
		 M-25.485-16.646c0,0-0.809,0.007-1.03,0.007c-0.471,0-0.519,0.146-0.554,0.297l-0.028,0.138l1.495,0.111
		c0,0,0.007,0.478-0.056,0.747c-0.09,0.45-0.553,0.906-1.391,0.906c-0.415,0-1.086-0.159-1.086-0.159l0.117-0.546h1.031
		c0.456,0,0.519-0.125,0.547-0.249l0.034-0.18l-1.466-0.11c0,0-0.056-0.367,0.021-0.733c0.11-0.499,0.566-0.927,1.404-0.927
		c0.414,0,1.086,0.151,1.086,0.151L-25.485-16.646L-25.485-16.646z M-24.614-14.037h-0.553l0.021-0.416
		c-0.201-0.013-0.305-0.159-0.257-0.401c0.076-0.346,0.291-0.429,0.574-0.429c0.277,0,0.464,0.083,0.388,0.429L-24.614-14.037
		L-24.614-14.037z M-20.914-16.617c-0.415,0-0.56,0.249-0.657,0.705c-0.097,0.457-0.069,0.727,0.346,0.727h0.574l0.319-1.432
		H-20.914z M-19.966-14.854l-0.077,0.367l-0.58-0.007l-0.083-0.18c0,0-0.512,0.221-0.857,0.221c-0.887,0-0.928-0.726-0.769-1.459
		c0.159-0.747,0.505-1.452,1.384-1.452c0.318,0,0.747,0.159,0.747,0.159l0.353-1.196h0.637L-19.966-14.854L-19.966-14.854z
		 M-17.677-16.646c-0.539,0-0.712,0.304-0.809,0.747c-0.09,0.45-0.048,0.754,0.484,0.754c0.554,0,0.719-0.297,0.816-0.754
		C-17.088-16.328-17.115-16.646-17.677-16.646L-17.677-16.646z M-18.146-14.445c-1.142,0-1.231-0.713-1.079-1.453
		c0.159-0.74,0.561-1.445,1.702-1.445c1.134,0,1.238,0.705,1.079,1.445C-16.604-15.144-17.005-14.445-18.146-14.445z
		 M-11.671-14.488l0.125-1.093l0.062-0.311c0.09-0.415,0.146-0.719-0.29-0.719h-0.34c0.015,0.214-0.027,0.457-0.082,0.712
		l-0.297,1.411h-0.645l0.125-1.093l0.062-0.311c0.091-0.415,0.146-0.719-0.29-0.719h-0.276l-0.457,2.123h-0.74l0.602-2.829h0.581
		l0.09,0.173c0,0,0.395-0.208,0.713-0.208c0.242,0,0.422,0.111,0.484,0.249c0.139-0.076,0.533-0.249,0.816-0.249
		c0.885,0,0.858,0.719,0.698,1.453l-0.297,1.411H-11.671L-11.671-14.488z M-8.73-16.646c-0.54,0-0.713,0.304-0.81,0.747
		c-0.09,0.45-0.049,0.754,0.483,0.754c0.554,0,0.721-0.297,0.816-0.754C-8.143-16.328-8.171-16.646-8.73-16.646z M-9.201-14.445
		c-1.142,0-1.231-0.713-1.079-1.453c0.159-0.74,0.561-1.445,1.702-1.445c1.134,0,1.237,0.705,1.078,1.445
		C-7.658-15.144-8.06-14.445-9.201-14.445z M-5.577-16.084c0.097-0.443,0.069-0.526-0.159-0.526h-0.347l-0.221,1.038l-0.339,1.086
		h-0.644l0.525-2.463l0.077-0.36h0.588l0.075,0.167c0,0,0.34-0.201,0.672-0.201c0.705,0,0.649,0.532,0.498,1.259H-5.577
		L-5.577-16.084z M-3.1-16.68c-0.373,0-0.567,0.194-0.643,0.54l1.064-0.09C-2.629-16.465-2.678-16.68-3.1-16.68L-3.1-16.68z
		 M-3.847-15.628c-0.048,0.346,0.083,0.464,0.525,0.464h1.114l-0.11,0.525c0,0-0.672,0.187-1.17,0.187
		c-1.237,0-1.252-0.698-1.093-1.445c0.159-0.733,0.443-1.459,1.64-1.459c1.154,0,1.211,0.698,0.927,1.729H-3.847L-3.847-15.628z
		 M-1.393-14.445c-0.29,0-0.47-0.083-0.394-0.421c0.068-0.347,0.283-0.429,0.574-0.429c0.269,0,0.456,0.083,0.387,0.429
		C-0.901-14.535-1.122-14.445-1.393-14.445z"/>
</g>
<g id="Page_1">
	<path id="Rectangle_1" fill="#010101" d="M51.601-37.215h-5.344v17.761h5.568v-9.861l5.303,6.362l5.049-6.362v9.861h5.289v-17.761
		h-5.289l-5.049,6.574L51.601-37.215z M42.759-45.008h46.02c2.342,0,4.241,1.898,4.241,4.241v24.919
		c0,2.342-1.898,4.241-4.241,4.241h-46.02c-2.341,0-4.24-1.898-4.24-4.241v-24.919C38.519-43.109,40.417-45.008,42.759-45.008z
		 M76.69-37.109h-0.053v9.119h-5.09l7.847,8.536l7.847-8.588H81.94v-9.066H76.69z"/>
</g>
<path fill="#2CAAE1" d="M-58.446-4.125c-1.383,0.613-2.868,1.027-4.428,1.214c1.593-0.954,2.814-2.464,3.39-4.265
	c-1.49,0.884-3.14,1.525-4.896,1.871c-1.406-1.498-3.408-2.434-5.626-2.434c-4.256,0-7.707,3.451-7.707,7.708
	c0,0.604,0.067,1.192,0.199,1.756c-6.406-0.322-12.085-3.391-15.888-8.054c-0.663,1.139-1.043,2.462-1.043,3.875
	c0,2.675,1.36,5.034,3.43,6.416c-1.264-0.04-2.453-0.387-3.492-0.964c0,0.032,0,0.064,0,0.097c0,3.734,2.656,6.85,6.183,7.558
	c-0.647,0.176-1.328,0.27-2.03,0.27c-0.498,0-0.979-0.048-1.451-0.138c0.981,3.062,3.828,5.291,7.201,5.353
	c-2.638,2.067-5.962,3.3-9.573,3.3c-0.622,0-1.235-0.037-1.839-0.108c3.411,2.187,7.463,3.463,11.815,3.463
	c14.179,0,21.931-11.745,21.931-21.931c0-0.334-0.008-0.667-0.021-0.998C-60.786-1.222-59.479-2.579-58.446-4.125z"/>
<g>
	<g>
		<path fill="#595C5E" d="M6.046,0H0v15.675h5.957c5.643,0,8.934-3.359,8.934-7.882V7.748C14.892,3.225,11.645,0,6.046,0z
			 M10.435,7.86c0,2.53-1.724,3.963-4.32,3.963h-1.77V3.852h1.77c2.597,0,4.32,1.456,4.32,3.963V7.86z M17.78,15.674h4.365V0H17.78
			V15.674z M32.223,5.912c-2.173-0.493-2.71-0.807-2.71-1.522V4.344c0-0.56,0.516-1.007,1.567-1.007c1.389,0,2.956,0.537,4.39,1.545
			l2.172-3.068c-1.702-1.366-3.785-2.083-6.449-2.083c-3.762,0-6.068,2.105-6.068,5.016v0.045c0,3.225,2.575,4.166,5.911,4.926
			c2.128,0.493,2.643,0.851,2.643,1.501v0.044c0,0.671-0.627,1.075-1.791,1.075c-1.813,0-3.538-0.649-5.083-1.881l-2.419,2.889
			c1.926,1.724,4.568,2.598,7.345,2.598c3.807,0,6.337-1.904,6.337-5.106v-0.044C38.066,7.86,35.827,6.696,32.223,5.912z
			 M57.077,7.837V7.793c0-4.501-3.582-8.106-8.419-8.106s-8.464,3.65-8.464,8.151v0.045c0,4.5,3.582,8.106,8.419,8.106
			c1.792,0,3.426-0.515,4.77-1.389l1.724,1.545l2.194-2.44l-1.611-1.366C56.585,11.062,57.077,9.494,57.077,7.837z M52.666,7.927
			c0,0.538-0.089,1.052-0.269,1.522l-2.127-1.926l-2.194,2.463l2.172,1.859c-0.47,0.179-1.007,0.291-1.589,0.291
			c-2.396,0-4.009-1.993-4.009-4.254V7.837c0-2.261,1.59-4.232,3.963-4.232c2.419,0,4.054,1.993,4.054,4.277L52.666,7.927
			L52.666,7.927z M69.886,8.823c0,2.194-1.143,3.224-2.889,3.224s-2.889-1.074-2.889-3.336V0h-4.411v8.8
			c0,4.904,2.799,7.166,7.255,7.166c4.457,0,7.345-2.217,7.345-7.278V0h-4.411V8.823z M84.082,5.912
			c-2.172-0.493-2.71-0.807-2.71-1.522V4.344c0-0.56,0.516-1.007,1.568-1.007c1.388,0,2.956,0.537,4.389,1.545l2.172-3.068
			c-1.701-1.366-3.783-2.083-6.448-2.083c-3.762,0-6.068,2.104-6.068,5.016v0.044c0,3.225,2.575,4.165,5.911,4.926
			c2.128,0.493,2.643,0.851,2.643,1.5v0.044c0,0.671-0.627,1.075-1.792,1.075c-1.813,0-3.538-0.649-5.083-1.881l-2.418,2.889
			c1.926,1.725,4.568,2.598,7.344,2.598c3.807,0,6.338-1.904,6.338-5.105v-0.045C89.927,7.86,87.688,6.696,84.082,5.912z"/>
	</g>
</g>
</svg>
