<?xml version="1.0" encoding="utf-8"?>
<!-- Generator: Adobe Illustrator 16.0.0, SVG Export Plug-In . SVG Version: 6.00 Build 0)  -->
<!DOCTYPE svg PUBLIC "-//W3C//DTD SVG 1.1//EN" "http://www.w3.org/Graphics/SVG/1.1/DTD/svg11.dtd">
<svg version="1.1" id="Layer_1" xmlns="http://www.w3.org/2000/svg" xmlns:xlink="http://www.w3.org/1999/xlink" x="0px" y="0px"
	 width="160.821px" height="234.382px" viewBox="36.002 7.831 160.821 234.382"
	 enable-background="new 36.002 7.831 160.821 234.382" xml:space="preserve">
<path fill="#021540" d="M186.577,164.739V71.37c0.571-7.965,2.554-10.529,8.36-15.938c-12.916-4.845-27.717-19.92-35.689-35.866
	c-39.855,20.493-84.259,20.493-117.847-9.109c-3.338-2.945-7.118-4.433-4.555,1.136c9.479,20.59,29.137,33.453,51.262,39.148
	C75.392,61.772,67.91,68.258,66.242,82.234c-10.895,0.809-22.564,8.774-26.264,16.174c-4.215,8.438,2.025,8.598,6.264,5.699
	c5.409-3.7,13.092-5.119,19.638-4.845l-0.008,10.582c-10.895,0.809-21.625,8.781-25.326,16.182c-4.215,8.433,2.029,8.593,6.26,5.691
	c5.413-3.699,12.528-5.691,19.074-5.408v31.883c0,12.527-6.26,18.783-9.96,22.201c-3.7,3.426-1.651,6.988,3.701,4.847
	c11.263-4.509,22.961-15.176,25.623-31.429c4.286,0.551,9.464,0.6,13.092,0.027l-0.004,4.354c0,12.526-6.264,18.783-9.964,22.201
	c-0.051,0.048-0.092,0.094-0.142,0.141c-11.98,1.05-22.689,5.114-31.224,11.75c-19.447,15.158-22.434,43.625-19.447,49.927
	c0.191,0.404,10.963-35.188,42.9-38.979c18.506-2.176,41.219,3.355,60.574,20.156c11.955-19.937,32.173-31.312,55.794-35.34
	C188.85,178.975,186.867,174.993,186.577,164.739z M160.957,59.986v28.045c-12.735,3.815-31.222,3.686-42.701-0.39v-3.744
	c0-9.858,0.741-22.413,8.791-30.328c7.854-0.823,15.476-2.479,22.527-4.966L160.957,59.986z M118.256,97.321
	c11.479,4.069,29.966,4.198,42.701,0.39v27.027c-12.735-3.814-31.222-3.685-42.701,0.39V97.321z M117.481,54.15
	c-5.985,5.228-11.146,10.067-14.587,15.711c-4.558-1.505-8.722-2.376-12.779-2.601c2.628-5.271,6.36-10.218,10.877-14.033
	C106.467,53.942,111.997,54.247,117.481,54.15z M85.809,145.736l-0.001-61.839c0-2.723,0.426-5.615,1.213-8.538
	c4.447-0.506,8.97-0.132,12.787,1.209c-0.924,2.919-1.421,6.098-1.405,9.649l-0.059,59.166
	C95.134,146.073,90.191,146.153,85.809,145.736z M134.773,190.359c-12.336-6.096-24.5-9.304-35.848-9.97
	c10.181-6.868,19.331-18.964,19.331-35.009v-10.57c11.479-4.075,29.966-4.205,42.701-0.391v40.575
	C152.984,177.268,143.311,182.96,134.773,190.359z"/>
</svg>
