<?xml version="1.0" encoding="utf-8"?>
<!-- Generator: Adobe Illustrator 16.0.0, SVG Export Plug-In . SVG Version: 6.00 Build 0)  -->
<!DOCTYPE svg PUBLIC "-//W3C//DTD SVG 1.1//EN" "http://www.w3.org/Graphics/SVG/1.1/DTD/svg11.dtd">
<svg version="1.1" id="Layer_1" xmlns="http://www.w3.org/2000/svg" xmlns:xlink="http://www.w3.org/1999/xlink" x="0px" y="0px"
	 width="30.625px" height="30.5px" viewBox="0 0 30.625 30.5" enable-background="new 0 0 30.625 30.5" xml:space="preserve">
<g>
	<path fill-rule="evenodd" clip-rule="evenodd" fill="#273319" d="M-140.088,16.092c0-0.314-0.164-0.603-0.437-0.759l-7.225-4.159
		c-0.124-0.072-0.26-0.109-0.398-0.116c-0.014,0-0.066,0-0.076,0c-0.138,0.006-0.274,0.044-0.399,0.116l-7.227,4.159
		c-0.27,0.156-0.437,0.445-0.437,0.759l0.016,11.2c0,0.155,0.082,0.299,0.218,0.376c0.134,0.08,0.3,0.08,0.433,0l4.295-2.459
		c0.272-0.161,0.437-0.446,0.437-0.758v-5.232c0-0.312,0.166-0.6,0.436-0.755l1.829-1.054c0.136-0.079,0.285-0.117,0.438-0.117
		c0.149,0,0.302,0.039,0.436,0.117l1.827,1.054c0.27,0.156,0.437,0.444,0.437,0.755v5.232c0,0.312,0.167,0.599,0.437,0.758
		l4.295,2.459c0.135,0.08,0.303,0.08,0.437,0c0.131-0.077,0.218-0.221,0.218-0.376L-140.088,16.092z"/>
	<path fill-rule="evenodd" clip-rule="evenodd" fill="#273319" d="M-101.496,0.696c-0.136-0.075-0.301-0.074-0.435,0.005
		c-0.133,0.078-0.215,0.221-0.215,0.376v11.091c0,0.109-0.059,0.209-0.152,0.265c-0.094,0.054-0.212,0.054-0.307,0l-1.809-1.043
		c-0.271-0.156-0.604-0.156-0.873,0l-7.23,4.172c-0.27,0.157-0.437,0.445-0.437,0.757v8.347c0,0.311,0.167,0.6,0.437,0.756
		l7.23,4.176c0.269,0.156,0.603,0.156,0.873,0l7.232-4.176c0.27-0.156,0.434-0.445,0.434-0.756V3.859
		c0-0.316-0.17-0.608-0.445-0.762L-101.496,0.696z M-102.168,21.923c0,0.078-0.04,0.149-0.107,0.189l-2.483,1.431
		c-0.067,0.039-0.149,0.039-0.217,0l-2.483-1.431c-0.068-0.04-0.11-0.111-0.11-0.189v-2.866c0-0.078,0.042-0.15,0.11-0.189
		l2.483-1.435c0.067-0.039,0.149-0.039,0.219,0l2.481,1.435c0.067,0.039,0.107,0.111,0.107,0.189V21.923z"/>
	<path fill-rule="evenodd" clip-rule="evenodd" fill="#273319" d="M-75.629,18.982c0.268-0.156,0.432-0.444,0.432-0.755v-2.022
		c0-0.312-0.164-0.6-0.432-0.755l-7.186-4.171c-0.27-0.158-0.604-0.158-0.873-0.001l-7.23,4.172
		c-0.27,0.156-0.436,0.444-0.436,0.756v8.345c0,0.313,0.168,0.603,0.441,0.758l7.182,4.093c0.266,0.151,0.592,0.152,0.857,0.004
		l4.342-2.415c0.141-0.077,0.225-0.221,0.225-0.378c0.002-0.158-0.082-0.304-0.219-0.382l-7.271-4.175
		c-0.135-0.078-0.221-0.223-0.221-0.378v-2.615c0-0.156,0.086-0.3,0.219-0.377l2.264-1.306c0.135-0.078,0.301-0.078,0.438,0
		l2.262,1.306c0.137,0.077,0.221,0.222,0.221,0.377v2.058c0,0.156,0.082,0.3,0.219,0.377c0.135,0.078,0.303,0.078,0.436,0
		L-75.629,18.982z"/>
	<path fill-rule="evenodd" clip-rule="evenodd" fill="#8EC74E" d="M-126.941,11.233c0.271-0.155,0.602-0.155,0.873,0l7.228,4.172
		c0.271,0.156,0.438,0.444,0.438,0.756v8.35c0,0.313-0.166,0.6-0.437,0.757l-7.228,4.174c-0.273,0.157-0.604,0.157-0.875,0
		l-7.228-4.174c-0.271-0.156-0.437-0.444-0.437-0.757v-8.351c0-0.312,0.166-0.6,0.439-0.755L-126.941,11.233z"/>
	<path fill="#8EC74E" d="M-61.596,29.561c-0.248,0-0.496-0.065-0.713-0.191l-2.277-1.347c-0.34-0.19-0.174-0.257-0.062-0.296
		c0.455-0.157,0.545-0.193,1.031-0.468c0.049-0.028,0.115-0.018,0.168,0.013l1.748,1.039c0.062,0.035,0.152,0.035,0.213,0
		l6.816-3.935c0.062-0.036,0.102-0.109,0.102-0.184v-7.868c0-0.076-0.039-0.148-0.104-0.187l-6.814-3.931
		c-0.062-0.037-0.146-0.037-0.209,0l-6.814,3.933c-0.066,0.037-0.107,0.111-0.107,0.186v7.868c0,0.075,0.041,0.146,0.107,0.182
		l1.867,1.08c1.014,0.506,1.635-0.091,1.635-0.69v-7.768c0-0.109,0.086-0.195,0.197-0.195h0.865c0.107,0,0.197,0.086,0.197,0.195
		v7.768c0,1.353-0.736,2.127-2.018,2.127c-0.395,0-0.703,0-1.572-0.426l-1.787-1.03c-0.441-0.254-0.715-0.731-0.715-1.243v-7.868
		c0-0.511,0.273-0.987,0.715-1.242l6.818-3.939c0.43-0.244,1.002-0.244,1.432,0l6.816,3.939c0.441,0.255,0.715,0.731,0.715,1.242
		v7.868c0,0.511-0.273,0.986-0.715,1.243l-6.816,3.936C-61.096,29.496-61.344,29.561-61.596,29.561z"/>
	<path fill="#8EC74E" d="M-59.49,24.142c-2.982,0-3.607-1.369-3.607-2.518c0-0.108,0.088-0.196,0.197-0.196h0.883
		c0.098,0,0.178,0.071,0.195,0.167c0.133,0.897,0.529,1.35,2.332,1.35c1.438,0,2.049-0.324,2.049-1.087
		c0-0.439-0.174-0.765-2.406-0.984c-1.863-0.184-3.02-0.596-3.02-2.087c0-1.376,1.16-2.196,3.104-2.196
		c2.186,0,3.266,0.757,3.402,2.384c0.004,0.056-0.014,0.11-0.051,0.151c-0.039,0.04-0.09,0.063-0.146,0.063h-0.885
		c-0.092,0-0.172-0.066-0.191-0.154c-0.211-0.945-0.729-1.247-2.129-1.247c-1.568,0-1.75,0.548-1.75,0.956
		c0,0.496,0.217,0.641,2.334,0.92c2.094,0.278,3.09,0.669,3.09,2.142C-56.09,23.291-57.33,24.142-59.49,24.142z"/>
	<path fill-rule="evenodd" clip-rule="evenodd" fill="#8EC74E" d="M-83.359,18.591c0.053-0.03,0.117-0.03,0.168,0l1.387,0.801
		c0.053,0.029,0.084,0.085,0.084,0.145v1.602c0,0.06-0.031,0.115-0.084,0.144l-1.387,0.801c-0.051,0.029-0.115,0.029-0.168,0
		l-1.385-0.801c-0.055-0.029-0.084-0.084-0.084-0.144v-1.602c0-0.06,0.029-0.116,0.084-0.145L-83.359,18.591z"/>
</g>
<path fill="#F42534" d="M29.336,13.978L16.642,1.283c-0.73-0.73-1.916-0.73-2.647,0L11.358,3.92l3.343,3.344
	c0.777-0.263,1.669-0.087,2.288,0.533c0.623,0.623,0.798,1.521,0.528,2.302l3.223,3.223c0.78-0.269,1.679-0.096,2.303,0.528
	c0.87,0.87,0.87,2.279,0,3.151c-0.871,0.87-2.281,0.87-3.151,0c-0.655-0.655-0.816-1.618-0.484-2.424L16.4,11.571v7.909
	c0.212,0.104,0.412,0.245,0.589,0.421c0.87,0.871,0.87,2.28,0,3.152c-0.87,0.869-2.28,0.869-3.15,0c-0.87-0.872-0.87-2.281,0-3.152
	c0.216-0.214,0.464-0.377,0.729-0.485v-7.982c-0.266-0.109-0.514-0.271-0.729-0.486c-0.658-0.658-0.818-1.626-0.479-2.436
	l-3.298-3.297l-8.704,8.703c-0.731,0.732-0.731,1.918,0,2.649l12.695,12.693c0.729,0.731,1.916,0.731,2.647,0l12.635-12.635
	C30.067,15.895,30.067,14.708,29.336,13.978z"/>
<path fill="#CC3937" d="M-161.269,36.451v24.914h20.727v4.159h16.552v-4.159h37.278V36.451H-161.269z M-140.542,57.177h-4.173
	V44.798h-4.175v12.378h-8.174V40.639h16.521V57.177z M-119.815,57.177h-8.205v4.188h-8.318V40.639h16.523V57.177z M-90.741,57.177
	h-4.176V44.798h-4.173v12.378h-4.172V44.798h-4.176v12.378h-8.204V40.639h24.9V57.177z M-123.99,53.002h-4.029v-8.204h4.029V53.002z
	"/>
<g>
	<path fill="#6863A7" d="M-42.785,59.644v-10.32c0-0.727-0.534-1.042-1.162-1.042c-1.26,0-2.834,0.315-4.265,0.944v10.418h-2.905
		V40.481h2.905v6.323c1.381-0.509,3.029-0.945,4.677-0.945c2.64,0,3.634,1.624,3.634,3.851v9.934H-42.785L-42.785,59.644z
		 M-34.475,53.394c0.095,3.464,0.773,4.142,2.905,4.142c1.67,0,3.562-0.557,5.014-1.115l0.486,2.181
		c-1.552,0.703-3.44,1.381-5.695,1.381c-4.846,0-5.597-2.665-5.597-6.905c0-2.324,0.171-4.432,0.729-6.37
		c1.452-0.558,3.391-0.849,5.838-0.849c3.974,0,5.183,2.205,5.183,6.057v1.478H-34.475L-34.475,53.394z M-30.794,48.282
		c-0.87,0-2.256,0.024-3.392,0.241c-0.12,0.582-0.268,1.382-0.316,2.86h6.059C-28.443,49.371-28.808,48.282-30.794,48.282
		L-30.794,48.282z M-20.159,49.226v10.418h-2.908V47.918c2.446-1.333,5.039-1.745,6.736-1.866v2.423
		C-17.521,48.573-19.023,48.718-20.159,49.226L-20.159,49.226z M-8.653,59.983c-4.338,0-6.299-2.131-6.299-7.001
		c0-5.16,2.59-7.123,6.299-7.123c4.335,0,6.297,2.132,6.297,7.001C-2.356,58.021-4.948,59.983-8.653,59.983L-8.653,59.983z
		 M-8.653,48.282c-2.229,0-3.464,1.284-3.464,4.7c0,3.731,1.041,4.554,3.464,4.554c2.228,0,3.462-1.26,3.462-4.675
		C-5.191,49.129-6.23,48.282-8.653,48.282L-8.653,48.282z M11.668,59.644H8.253c-0.797-2.131-1.912-4.312-3.632-6.202H3.093v6.202
		H0.188V40.481h2.905v10.998H4.45c1.478-1.526,2.616-3.416,3.416-5.282h3.27c-1.112,2.254-2.543,4.24-4.142,5.864
		C8.908,54.484,10.409,57.051,11.668,59.644L11.668,59.644z M17.119,59.983c-2.641,0-3.634-1.623-3.634-3.851v-9.935h2.884v10.296
		c0,0.729,0.532,1.042,1.16,1.042c1.261,0,2.98-0.314,4.411-0.944V46.197h2.905v11.679C21.407,59.765,18.767,59.983,17.119,59.983
		L17.119,59.983z"/>
</g>
<path fill="#5089A1" d="M-107.112-27.371v12.388c0,0.49-0.424,1.054-0.891,1.184L-132.9-6.903c-0.318,0.088-0.774,0.139-1.251,0.139
	c-0.477,0-0.933-0.051-1.251-0.139l-24.925-6.896c-0.483-0.134-0.923-0.698-0.923-1.184v-12.388c0-0.485,0.44-1.05,0.924-1.184
	l24.914-6.896c0.319-0.088,0.776-0.139,1.255-0.139c0.479,0,0.937,0.051,1.255,0.139l24.896,6.896
	C-107.538-28.425-107.112-27.861-107.112-27.371z M-85.912-27.366c1.369,1.385,2.09,3.104,2.09,5.297v2.355
	c0,2.202-0.721,4.039-2.09,5.416s-3.215,2.113-5.465,2.113h-7.43v-1.587l2.203-0.331v-13.576l-2.203-0.331v-1.362h2.141h5.289
	C-89.127-29.372-87.281-28.75-85.912-27.366z M-86.025-22.092c0-1.625-0.561-2.928-1.48-3.978c-0.92-1.049-2.277-1.54-3.871-1.54
	h-3.021v13.663h3.021c1.594,0,2.951-0.603,3.871-1.652s1.48-2.473,1.48-4.114V-22.092z M-69.404-13.947h-6.926v-6.17h6.611v-2.204
	h-6.611v-5.289h6.783l0.189,2.204h1.842v-3.966h-13.221v1.362l2.203,0.331v13.576l-2.203,0.331v1.587h13.662v-4.407h-2.141
	L-69.404-13.947z M-53.412-28.01l1.594,0.22l-3.805,11.192l-0.391,1.328h-0.07l-0.377-1.328l-3.844-11.164l1.604-0.249v-1.362
	h-5.289v1.362l1.268,0.237l5.668,15.588h2l5.881-15.588l1.49-0.237v-1.362h-5.729V-28.01z M-45.92-25.846h2.209l0.166-1.763h3.795
	v13.507l-1.762,0.331v1.587h6.17v-1.587l-2.205-0.331v-13.507h3.99l0.178,1.763h2.004v-3.526H-45.92V-25.846z M-14.713-13.878
	l0.525,0.071v1.623h-1.195c-0.908,0-1.463-0.363-1.846-0.995c-0.383-0.631-0.484-1.444-0.484-2.344v-1.338
	c0-0.939-0.363-1.764-0.906-2.332c-0.545-0.568-1.365-0.924-2.279-0.924h-3.867v6.015l2.205,0.331v1.587h-6.17v-1.587l1.762-0.331
	v-13.576l-1.762-0.331v-1.362h1.76h5.635c1.877,0,3.316,0.352,4.318,1.184s1.504,1.982,1.504,3.513c0,0.836-0.232,1.562-0.699,2.209
	c-0.465,0.647-1.131,1.148-2,1.519c0.939,0.308,1.643,0.805,2.057,1.499s0.646,1.546,0.646,2.564v1.385
	c0,0.529,0.041,0.919,0.176,1.172C-15.199-14.075-15.021-13.925-14.713-13.878z M-17.846-24.732c0-0.907-0.283-1.59-0.852-2.119
	c-0.568-0.528-1.449-0.758-2.639-0.758h-3.43v5.729h3.191c1.303,0,2.25-0.212,2.842-0.709S-17.846-23.777-17.846-24.732z
	 M1.826-27.264c1.439,1.665,2.057,3.748,2.057,6.25v0.248c0,2.509-0.629,4.592-2.068,6.25c-1.439,1.657-3.258,2.485-5.545,2.485
	c-2.225,0-3.967-0.829-5.355-2.485c-1.389-1.657-2.018-3.74-2.018-6.25v-0.248c0-2.501,0.652-4.584,2.041-6.25
	s3.174-2.498,5.4-2.498C-1.375-29.762,0.385-28.929,1.826-27.264z M1.678-21.039c0-2.004-0.449-3.639-1.408-4.906
	c-0.959-1.266-2.258-1.899-3.953-1.899c-1.627,0-2.916,0.635-3.828,1.906c-0.91,1.271-1.387,2.904-1.387,4.899v0.272
	c0,2.02,0.477,3.663,1.387,4.929c0.912,1.267,2.191,1.9,3.816,1.9c1.721,0,3.029-0.631,3.977-1.894
	c0.947-1.262,1.396-2.907,1.396-4.936V-21.039z M6.967-28.01l1.764,0.331v13.576l-1.764,0.331v1.587h6.17v-1.587l-1.762-0.331
	v-13.576l1.762-0.331v-1.362h-6.17V-28.01z M15.781-29.372v3.526h1.895l0.166-1.763h3.67v13.507l-1.764,0.331v1.587h6.17v-1.587
	l-1.764-0.331v-13.507h3.678l0.178,1.763h1.875v-3.526H15.781z"/>
<g id="Page_1">
	<path id="Rectangle_1" fill="#010101" d="M-8.583,82.664h-4.651v15.46h4.848V89.54l4.615,5.538l4.395-5.538v8.584h4.604v-15.46
		H0.623l-4.395,5.722L-8.583,82.664z M-16.279,75.88h40.059c2.038,0,3.691,1.652,3.691,3.691v21.69c0,2.039-1.652,3.691-3.691,3.691
		h-40.059c-2.037,0-3.69-1.652-3.69-3.691v-21.69C-19.97,77.533-18.317,75.88-16.279,75.88z M13.257,82.756h-0.046v7.938H8.78
		l6.831,7.43l6.83-7.476h-4.614v-7.892H13.257z"/>
</g>
<path fill="#2CAAE1" d="M-141.015,106.901c-0.746,0.33-1.546,0.554-2.387,0.654c0.858-0.514,1.518-1.328,1.828-2.299
	c-0.804,0.477-1.693,0.822-2.639,1.009c-0.758-0.808-1.837-1.312-3.033-1.312c-2.294,0-4.155,1.86-4.155,4.155
	c0,0.325,0.037,0.643,0.108,0.947c-3.454-0.174-6.515-1.828-8.565-4.342c-0.357,0.613-0.562,1.327-0.562,2.089
	c0,1.441,0.733,2.714,1.849,3.459c-0.681-0.021-1.322-0.209-1.883-0.521c0,0.018,0,0.035,0,0.053c0,2.013,1.432,3.692,3.333,4.074
	c-0.349,0.095-0.716,0.146-1.094,0.146c-0.269,0-0.528-0.026-0.783-0.074c0.529,1.65,2.064,2.852,3.882,2.886
	c-1.422,1.114-3.214,1.779-5.161,1.779c-0.335,0-0.666-0.021-0.992-0.059c1.839,1.179,4.023,1.866,6.37,1.866
	c7.644,0,11.822-6.331,11.822-11.822c0-0.18-0.004-0.359-0.011-0.537C-142.276,108.467-141.572,107.735-141.015,106.901z"/>
<g>
	<g>
		<path fill="#595C5E" d="M-55.976,118.724h-6.046V134.4h5.957c5.644,0,8.935-3.359,8.935-7.882v-0.045
			C-47.129,121.949-50.376,118.724-55.976,118.724z M-51.587,126.584c0,2.53-1.724,3.964-4.32,3.964h-1.77v-7.973h1.77
			c2.597,0,4.32,1.456,4.32,3.964V126.584z M-44.24,134.399h4.365v-15.675h-4.365V134.399z M-29.797,124.637
			c-2.173-0.493-2.71-0.807-2.71-1.523v-0.045c0-0.56,0.516-1.007,1.567-1.007c1.389,0,2.956,0.537,4.39,1.546l2.172-3.069
			c-1.702-1.366-3.785-2.083-6.449-2.083c-3.762,0-6.068,2.105-6.068,5.017v0.045c0,3.225,2.575,4.166,5.911,4.926
			c2.128,0.493,2.643,0.851,2.643,1.501v0.044c0,0.672-0.627,1.075-1.791,1.075c-1.813,0-3.538-0.649-5.083-1.881l-2.42,2.889
			c1.927,1.724,4.569,2.598,7.346,2.598c3.807,0,6.337-1.904,6.337-5.106v-0.044C-23.953,126.584-26.192,125.42-29.797,124.637z
			 M-4.94,126.562v-0.044c0-4.501-3.582-8.107-8.42-8.107c-4.837,0-8.464,3.65-8.464,8.151v0.045c0,4.501,3.582,8.106,8.419,8.106
			c1.792,0,3.427-0.515,4.771-1.389l1.724,1.545l2.194-2.44l-1.611-1.366C-5.433,129.787-4.94,128.219-4.94,126.562z
			 M-9.352,126.651c0,0.538-0.089,1.052-0.269,1.522l-2.128-1.926l-2.194,2.463l2.172,1.86c-0.47,0.179-1.007,0.291-1.589,0.291
			c-2.396,0-4.009-1.993-4.009-4.255v-0.045c0-2.261,1.59-4.233,3.963-4.233c2.419,0,4.055,1.994,4.055,4.278L-9.352,126.651
			L-9.352,126.651z M7.869,127.547c0,2.194-1.143,3.224-2.889,3.224s-2.89-1.075-2.89-3.336v-8.711H-2.32v8.801
			c0,4.905,2.799,7.167,7.256,7.167s7.345-2.217,7.345-7.278v-8.689H7.869V127.547z M22.066,124.637
			c-2.172-0.493-2.71-0.807-2.71-1.523v-0.045c0-0.56,0.516-1.007,1.568-1.007c1.388,0,2.956,0.537,4.389,1.546l2.172-3.068
			c-1.701-1.366-3.783-2.083-6.448-2.083c-3.762,0-6.069,2.104-6.069,5.017v0.044c0,3.225,2.576,4.165,5.912,4.926
			c2.128,0.493,2.643,0.851,2.643,1.5v0.044c0,0.672-0.627,1.075-1.792,1.075c-1.813,0-3.538-0.649-5.084-1.881l-2.418,2.889
			c1.926,1.725,4.569,2.598,7.345,2.598c3.807,0,6.338-1.904,6.338-5.106v-0.045C27.911,126.584,25.672,125.42,22.066,124.637z"/>
	</g>
</g>
<path fill-rule="evenodd" clip-rule="evenodd" d="M-149.097,92.802c-0.585-0.026-1.187-0.13-1.741-0.315
	c-1.374-0.455-2.123-1.474-2.374-2.875c-0.24-1.348-0.013-2.658,0.359-3.951c0.364-1.267,0.907-2.439,1.806-3.426
	c0.931-1.021,2.091-1.615,3.446-1.824c1.215-0.188,2.423-0.151,3.573,0.325c1.596,0.66,2.428,1.902,2.639,3.592
	c0.136,1.082-0.161,2.099-0.487,3.104c-0.282,0.871-0.615,1.726-0.928,2.586c-0.091,0.251-0.061,0.305,0.203,0.307
	c0.286,0.002,0.571,0.004,0.857,0c0.176-0.003,0.249,0.086,0.209,0.246c-0.172,0.679-0.35,1.356-0.539,2.031
	c-0.021,0.075-0.132,0.142-0.216,0.18c-0.073,0.033-0.166,0.025-0.251,0.025C-143.629,92.808-148.002,92.851-149.097,92.802z
	 M-146,90.24c0.39,0,0.418-0.023,0.524-0.402c0.319-1.134,0.66-2.261,0.948-3.403c0.126-0.503,0.204-1.033,0.2-1.55
	c-0.008-1.021-0.587-1.71-1.549-1.912c-0.306-0.063-0.629-0.074-0.943-0.066c-0.938,0.025-1.717,0.392-2.294,1.148
	c-0.442,0.581-0.697,1.249-0.88,1.946c-0.229,0.884-0.409,1.774-0.254,2.695c0.141,0.835,0.617,1.371,1.45,1.488
	C-148.284,90.258-146.41,90.24-146,90.24z M-124.86,88.808c-0.943,0-1.886,0-2.829,0c-0.305,0-0.401,0.096-0.408,0.397
	c-0.017,0.687,0.336,1.071,1.08,1.16c0.268,0.032,0.538,0.049,0.807,0.05c1.236,0.005,2.473,0.002,3.709,0.002
	c0.294,0,0.331,0.052,0.271,0.346c-0.119,0.572-0.232,1.146-0.346,1.718c-0.065,0.327-0.133,0.388-0.459,0.389
	c-1.438,0.002-2.873,0.012-4.31,0.001c-0.69-0.006-1.366-0.128-2-0.417c-0.896-0.407-1.374-1.115-1.478-2.081
	c-0.14-1.303,0.172-2.546,0.547-3.771c0.156-0.512,0.378-1.012,0.637-1.481c0.501-0.912,1.256-1.562,2.24-1.909
	c1.406-0.493,2.843-0.556,4.278-0.165c1.163,0.317,1.816,1.171,1.892,2.375c0.064,1.085-0.152,2.132-0.423,3.173
	c-0.049,0.191-0.191,0.214-0.359,0.214C-122.959,88.806-123.912,88.808-124.86,88.808z M-125.837,86.763
	c0.509,0,1.019-0.003,1.528,0.001c0.19,0.002,0.304-0.077,0.338-0.271c0.1-0.565-0.183-1.074-0.743-1.214
	c-0.344-0.086-0.717-0.116-1.072-0.093c-0.828,0.053-1.442,0.452-1.77,1.24c-0.118,0.282-0.08,0.336,0.235,0.337
	C-126.826,86.764-126.333,86.763-125.837,86.763z M-135.473,92.777c0.788,0,1.576-0.003,2.364,0.002
	c0.228,0.001,0.358-0.081,0.399-0.319c0.053-0.311,0.132-0.617,0.198-0.926c0.588-2.75,1.177-5.501,1.764-8.251
	c0.054-0.25-0.009-0.328-0.262-0.329c-0.595-0.002-1.189,0-1.783,0c-0.454,0-0.48,0.026-0.576,0.472
	c-0.476,2.214-0.957,4.428-1.428,6.643c-0.05,0.233-0.175,0.316-0.396,0.316c-0.22,0-1.12,0-1.667,0
	c-0.546,0-0.912-0.357-0.956-0.96c-0.009-0.13-0.003-0.264,0.02-0.392c0.134-0.758,0.267-1.518,0.416-2.273
	c0.229-1.148,0.471-2.294,0.705-3.441c0.063-0.311,0.016-0.365-0.309-0.365c-0.633,0-1.267,0-1.899,0
	c-0.299,0-0.361,0.055-0.422,0.343c-0.301,1.431-0.606,2.862-0.907,4.294c-0.199,0.953-0.376,1.905-0.26,2.889
	c0.156,1.32,0.987,2.172,2.313,2.247c0.892,0.05,1.79,0.009,2.685,0.009C-135.473,92.75-135.473,92.764-135.473,92.777z
	 M-110.432,87.403c-0.085-0.36-0.175-0.719-0.247-1.081c-0.047-0.226-0.158-0.321-0.397-0.318c-0.771,0.011-1.545,0.004-2.316,0.005
	c-0.301,0-0.333,0.045-0.246,0.345c0.349,1.236,0.711,2.471,1.046,3.712c0.059,0.226,0.059,0.489,0.01,0.719
	c-0.118,0.565-0.284,1.119-0.426,1.679c-0.062,0.244-0.006,0.313,0.241,0.314c0.779,0.001,1.56-0.003,2.338,0.002
	c0.215,0.001,0.327-0.094,0.377-0.297c0.087-0.367,0.177-0.734,0.28-1.096c0.127-0.447,0.194-0.909,0.494-1.305
	c2.09-2.754,6.107-8.098,6.245-8.279c0.136-0.182,0.095-0.28-0.153-0.28c-0.251,0-2.227,0-2.527,0c-0.299,0-0.525,0.104-0.706,0.371
	c-1.229,1.822-2.471,3.635-3.711,5.451c-0.06,0.085-0.127,0.165-0.221,0.287C-110.39,87.524-110.417,87.464-110.432,87.403z
	 M-118.693,82.991c-0.226-0.002-0.343,0.075-0.387,0.293c-0.072,0.363-0.16,0.721-0.239,1.082c-0.335,1.566-0.669,3.133-1.001,4.699
	c-0.245,1.147-0.482,2.295-0.729,3.442c-0.042,0.197,0.029,0.27,0.223,0.269c0.656-0.003,1.313,0.002,1.969,0
	c0.375,0,0.425-0.046,0.502-0.421c0.449-2.185,0.899-4.369,1.35-6.553c0.073-0.356,0.122-0.395,0.497-0.395
	c1.769,0,3.537,0,5.305-0.001c0.259,0,0.316-0.069,0.259-0.321c-0.077-0.322-0.154-0.644-0.241-0.962
	c-0.137-0.498-0.445-0.844-0.947-0.988c-0.241-0.069-0.496-0.139-0.745-0.143C-113.829,82.976-117.705,82.999-118.693,82.991z
	 M-159.944,96.764c0.278,0,0.557,0.001,0.834,0c1.168-0.007,2.04-0.507,2.592-1.548c0.331-0.624,0.552-1.289,0.703-1.974
	c0.513-2.316,1.015-4.634,1.519-6.951c0.052-0.236-0.018-0.313-0.285-0.314c-0.688-0.003-1.375-0.001-2.062-0.001
	c-0.342,0-0.419,0.057-0.492,0.39c-0.425,1.949-0.852,3.897-1.268,5.849c-0.127,0.593-0.289,1.166-0.674,1.652
	c-0.219,0.276-0.484,0.444-0.856,0.403c-0.152-0.017-0.31,0.009-0.463-0.006c-0.25-0.025-0.364,0.091-0.416,0.324
	c-0.139,0.616-0.287,1.229-0.431,1.844c-0.06,0.252-0.028,0.307,0.234,0.317c0.354,0.013,0.71,0.004,1.064,0.004
	C-159.944,96.754-159.944,96.759-159.944,96.764z M-154.394,85.321c0.211,0.005,0.333-0.08,0.377-0.287
	c0.13-0.609,0.257-1.219,0.396-1.827c0.047-0.203-0.029-0.271-0.219-0.271c-0.748,0.002-1.497,0.002-2.245-0.001
	c-0.188,0-0.281,0.095-0.32,0.267c-0.138,0.607-0.277,1.215-0.412,1.823c-0.05,0.224,0.008,0.291,0.248,0.292
	c0.363,0.003,0.726,0,1.088,0C-155.119,85.318-154.756,85.312-154.394,85.321z"/>
<g>
	<polygon opacity="0.4" fill="#EAAF78" points="-93.103,138.442 -101.585,136.09 -103.581,113.733 -93.103,113.733 	"/>
	<path fill="#E44F26" d="M-105.92,111.593l2.332,26.167l10.47,2.906l10.498-2.91l2.335-26.163H-105.92z M-85.151,117.803
		l-0.146,1.627l-0.064,0.722h-0.01h-7.731h-0.011h-4.528l0.293,3.286h4.235h0.011h6.585h0.863l-0.078,0.861l-0.754,8.45
		l-0.048,0.542l-6.568,1.821l-0.015,0.004l-6.574-1.825l-0.449-5.039h1.484h1.736l0.229,2.559l3.573,0.966l0.004-0.001v0l0.01-0.002
		l0.001,0l3.568-0.963l0.372-4.162h-3.94h-0.011h-7.172l-0.788-8.844l-0.077-0.861h8.037h0.011h8.028L-85.151,117.803z"/>
	<g>
		<polygon opacity="0.4" fill="#EAAF78" points="-89.162,126.647 -93.103,126.647 -93.103,131.772 -89.534,130.809 		"/>
		<polygon opacity="0.4" fill="#EAAF78" points="-93.103,113.733 -93.103,116.942 -85.074,116.942 -85.151,117.803 -85.297,119.43 
			-85.361,120.152 -85.371,120.152 -93.103,120.152 -93.103,123.438 -86.518,123.438 -85.654,123.438 -85.732,124.299 
			-86.486,132.749 -86.534,133.291 -93.103,135.112 -93.103,138.442 -84.62,136.09 -82.624,113.733 		"/>
	</g>
</g>
<g>
	<path id="Shape_1_" opacity="0.3" fill="#35A9DA" d="M-59.617,174.579l-8.478-2.352l-1.996-22.357h10.474V174.579z"/>
	<path fill="#1673B6" d="M-72.441,147.73l2.333,26.167l10.469,2.906l10.498-2.91l2.336-26.163H-72.441z M-53.036,169.203
		l-6.581,1.824v0.001l-6.576-1.825l-0.449-5.039h3.222l0.229,2.56l3.575,0.965v-0.001l3.581-0.966l0.374-4.163h-3.955h-3.525h-0.01
		l-0.288-3.208h3.823h4.24l0.293-3.288h-4.533h-7.737h-0.01l-0.288-3.208h8.035h8.041L-53.036,169.203z"/>
	<path fill="#35A9DA" d="M-55.377,159.35h-4.24v-3.288h4.533L-55.377,159.35z M-55.662,162.558h-3.955v5.129l3.581-0.966
		L-55.662,162.558z M-59.617,149.87v2.984h8.041l-1.46,16.349l-6.581,1.824v0.001v3.551l8.477-2.352l1.996-22.357H-59.617z"/>
</g>
<path fill="#F0DC4E" d="M-110.656,147.438v29.073h29.074v-29.073H-110.656z M-95.331,172.338c-0.429,0.871-1.247,1.442-2.194,1.719
	c-1.457,0.334-2.85,0.144-3.886-0.478c-0.694-0.426-1.235-1.081-1.604-1.835c0.738-0.451,1.474-0.904,2.211-1.354
	c0.02,0.008,0.077,0.113,0.155,0.249c0.281,0.473,0.524,0.807,1.003,1.042c0.47,0.16,1.501,0.262,1.898-0.564
	c0.243-0.42,0.166-1.791,0.166-3.286c0-2.349,0.011-4.682,0.011-7.03h2.72c0,2.501,0.014,4.994,0,7.486
	C-94.845,169.814-94.713,171.196-95.331,172.338z M-84.05,171.569c-0.945,3.234-6.216,3.339-8.322,1.202
	c-0.444-0.503-0.724-0.765-0.989-1.346c1.119-0.644,1.119-0.644,2.208-1.274c0.592,0.909,1.139,1.409,2.123,1.614
	c1.335,0.163,2.678-0.295,2.377-1.713c-0.31-1.158-2.733-1.44-4.384-2.678c-1.675-1.125-2.067-3.858-0.69-5.42
	c0.459-0.578,1.24-1.009,2.062-1.216c0.284-0.036,0.572-0.075,0.856-0.11c1.645-0.033,2.673,0.4,3.427,1.244
	c0.211,0.212,0.382,0.442,0.702,0.939c-0.876,0.558-0.873,0.553-2.128,1.365c-0.268-0.578-0.713-0.939-1.183-1.097
	c-0.729-0.221-1.65,0.02-1.841,0.791c-0.066,0.237-0.053,0.458,0.053,0.851c0.296,0.674,1.288,0.967,2.178,1.376
	c2.562,1.039,3.427,2.153,3.64,3.479C-83.758,170.718-84.012,171.459-84.05,171.569z"/>
</svg>
