<?xml version="1.0" encoding="utf-8"?>
<!-- Generator: Adobe Illustrator 16.0.0, SVG Export Plug-In . SVG Version: 6.00 Build 0)  -->
<!DOCTYPE svg PUBLIC "-//W3C//DTD SVG 1.1//EN" "http://www.w3.org/Graphics/SVG/1.1/DTD/svg11.dtd">
<svg version="1.1" id="Layer_1" xmlns="http://www.w3.org/2000/svg" xmlns:xlink="http://www.w3.org/1999/xlink" x="0px" y="0px"
	 width="77.75px" height="21.875px" viewBox="0 0 77.75 21.875" enable-background="new 0 0 77.75 21.875" xml:space="preserve">
<g>
	<path fill-rule="evenodd" clip-rule="evenodd" fill="#8EC74E" d="M-88.213-22.658c0-0.314-0.164-0.603-0.437-0.759l-7.225-4.159
		c-0.124-0.072-0.26-0.109-0.398-0.116c-0.014,0-0.066,0-0.076,0c-0.138,0.006-0.274,0.044-0.399,0.116l-7.227,4.159
		c-0.27,0.156-0.437,0.445-0.437,0.759l0.016,11.2c0,0.155,0.082,0.299,0.218,0.376c0.134,0.08,0.3,0.08,0.433,0l4.295-2.459
		c0.272-0.161,0.437-0.446,0.437-0.758v-5.232c0-0.312,0.166-0.6,0.436-0.755l1.829-1.054c0.136-0.079,0.285-0.117,0.438-0.117
		c0.149,0,0.302,0.039,0.436,0.117l1.827,1.054c0.27,0.156,0.437,0.444,0.437,0.755v5.232c0,0.312,0.167,0.599,0.437,0.758
		l4.295,2.459c0.135,0.08,0.303,0.08,0.437,0c0.131-0.077,0.218-0.221,0.218-0.376L-88.213-22.658z"/>
	<path fill-rule="evenodd" clip-rule="evenodd" fill="#8EC74E" d="M-49.621-38.054c-0.136-0.075-0.301-0.074-0.435,0.005
		c-0.133,0.078-0.215,0.221-0.215,0.376v11.091c0,0.109-0.059,0.209-0.152,0.265c-0.094,0.054-0.212,0.054-0.307,0l-1.809-1.043
		c-0.271-0.156-0.604-0.156-0.873,0l-7.23,4.172c-0.27,0.157-0.437,0.445-0.437,0.757v8.347c0,0.311,0.167,0.6,0.437,0.756
		l7.23,4.176c0.269,0.156,0.603,0.156,0.873,0l7.232-4.176c0.27-0.156,0.434-0.445,0.434-0.756v-20.807
		c0-0.316-0.17-0.608-0.445-0.762L-49.621-38.054z M-50.293-16.827c0,0.078-0.04,0.149-0.107,0.189l-2.483,1.431
		c-0.067,0.039-0.149,0.039-0.217,0l-2.483-1.431c-0.068-0.04-0.11-0.111-0.11-0.189v-2.866c0-0.078,0.042-0.15,0.11-0.189
		l2.483-1.435c0.067-0.039,0.149-0.039,0.219,0l2.481,1.435c0.067,0.039,0.107,0.111,0.107,0.189V-16.827z"/>
	<path fill-rule="evenodd" clip-rule="evenodd" fill="#8EC74E" d="M-23.754-19.768c0.268-0.156,0.432-0.444,0.432-0.755v-2.022
		c0-0.312-0.164-0.6-0.432-0.755l-7.186-4.171c-0.27-0.158-0.604-0.158-0.873-0.001l-7.23,4.172
		c-0.27,0.156-0.436,0.444-0.436,0.756v8.345c0,0.313,0.168,0.603,0.441,0.758l7.182,4.093c0.266,0.151,0.592,0.152,0.857,0.004
		l4.342-2.415c0.141-0.077,0.225-0.221,0.225-0.378c0.002-0.158-0.082-0.304-0.219-0.382l-7.271-4.175
		c-0.135-0.078-0.221-0.223-0.221-0.378v-2.615c0-0.156,0.086-0.3,0.219-0.377l2.264-1.306c0.135-0.078,0.301-0.078,0.438,0
		l2.262,1.306c0.137,0.077,0.221,0.222,0.221,0.377v2.058c0,0.156,0.082,0.3,0.219,0.377c0.135,0.078,0.303,0.078,0.436,0
		L-23.754-19.768z"/>
	<path fill-rule="evenodd" clip-rule="evenodd" fill="#8EC74E" d="M-75.066-27.517c0.271-0.155,0.602-0.155,0.873,0l7.228,4.172
		c0.271,0.156,0.438,0.444,0.438,0.756v8.35c0,0.313-0.166,0.6-0.437,0.757l-7.228,4.174c-0.273,0.157-0.604,0.157-0.875,0
		l-7.228-4.174c-0.271-0.156-0.437-0.444-0.437-0.757v-8.351c0-0.312,0.166-0.6,0.439-0.755L-75.066-27.517z"/>
	<path fill="#8EC74E" d="M-9.721-9.189c-0.248,0-0.496-0.065-0.713-0.191l-2.277-1.347c-0.34-0.19-0.174-0.257-0.062-0.296
		c0.455-0.157,0.545-0.193,1.031-0.468c0.049-0.028,0.115-0.018,0.168,0.013l1.748,1.039c0.062,0.035,0.152,0.035,0.213,0
		l6.816-3.935c0.062-0.036,0.102-0.109,0.102-0.184v-7.868c0-0.076-0.039-0.148-0.104-0.187l-6.814-3.931
		c-0.062-0.037-0.146-0.037-0.209,0l-6.814,3.933c-0.066,0.037-0.107,0.111-0.107,0.186v7.868c0,0.075,0.041,0.146,0.107,0.182
		l1.867,1.08c1.014,0.506,1.635-0.091,1.635-0.69v-7.768c0-0.109,0.086-0.195,0.197-0.195h0.865c0.107,0,0.197,0.086,0.197,0.195
		v7.768c0,1.353-0.736,2.127-2.018,2.127c-0.395,0-0.703,0-1.572-0.426l-1.787-1.03c-0.441-0.254-0.715-0.731-0.715-1.243v-7.868
		c0-0.511,0.273-0.987,0.715-1.242l6.818-3.939c0.43-0.244,1.002-0.244,1.432,0l6.816,3.939c0.441,0.255,0.715,0.731,0.715,1.242
		v7.868c0,0.511-0.273,0.986-0.715,1.243L-9.002-9.38C-9.221-9.254-9.469-9.189-9.721-9.189z"/>
	<path fill="#8EC74E" d="M-7.615-14.608c-2.982,0-3.607-1.369-3.607-2.518c0-0.108,0.088-0.196,0.197-0.196h0.883
		c0.098,0,0.178,0.071,0.195,0.167c0.133,0.897,0.529,1.35,2.332,1.35c1.438,0,2.049-0.324,2.049-1.087
		c0-0.439-0.174-0.765-2.406-0.984c-1.863-0.184-3.02-0.596-3.02-2.087c0-1.376,1.16-2.196,3.104-2.196
		c2.186,0,3.266,0.757,3.402,2.384c0.004,0.056-0.014,0.11-0.051,0.151c-0.039,0.04-0.09,0.063-0.146,0.063h-0.885
		c-0.092,0-0.172-0.066-0.191-0.154c-0.211-0.945-0.729-1.247-2.129-1.247c-1.568,0-1.75,0.548-1.75,0.956
		c0,0.496,0.217,0.641,2.334,0.92c2.094,0.278,3.09,0.669,3.09,2.142C-4.215-15.459-5.455-14.608-7.615-14.608z"/>
	<path fill-rule="evenodd" clip-rule="evenodd" fill="#8EC74E" d="M-31.484-20.159c0.053-0.03,0.117-0.03,0.168,0l1.387,0.801
		c0.053,0.029,0.084,0.085,0.084,0.145v1.602c0,0.06-0.031,0.115-0.084,0.144l-1.387,0.801c-0.051,0.029-0.115,0.029-0.168,0
		l-1.385-0.801c-0.055-0.029-0.084-0.084-0.084-0.144v-1.602c0-0.06,0.029-0.116,0.084-0.145L-31.484-20.159z"/>
</g>
<path fill="#F42534" d="M81.211-24.772L68.517-37.467c-0.73-0.73-1.916-0.73-2.647,0l-2.636,2.637l3.343,3.344
	c0.777-0.263,1.669-0.087,2.288,0.533c0.623,0.623,0.798,1.521,0.528,2.302l3.223,3.223c0.78-0.269,1.679-0.096,2.303,0.528
	c0.87,0.87,0.87,2.279,0,3.151c-0.871,0.87-2.281,0.87-3.151,0c-0.655-0.655-0.816-1.618-0.484-2.424l-3.007-3.006v7.909
	c0.212,0.104,0.412,0.245,0.589,0.421c0.87,0.871,0.87,2.28,0,3.152c-0.87,0.869-2.28,0.869-3.15,0c-0.87-0.872-0.87-2.281,0-3.152
	c0.216-0.214,0.464-0.377,0.729-0.485v-7.982c-0.266-0.109-0.514-0.271-0.729-0.486c-0.658-0.658-0.818-1.626-0.479-2.436
	l-3.298-3.297l-8.704,8.703c-0.731,0.732-0.731,1.918,0,2.649L65.929-9.489c0.729,0.731,1.916,0.731,2.647,0l12.635-12.635
	C81.942-22.855,81.942-24.042,81.211-24.772z"/>
<path fill="#CC3937" d="M-109.394-2.299v24.914h20.727v4.159h16.552v-4.159h37.278V-2.299H-109.394z M-88.667,18.427h-4.173V6.048
	h-4.175v12.378h-8.174V1.889h16.521V18.427z M-67.94,18.427h-8.205v4.188h-8.318V1.889h16.523V18.427z M-38.866,18.427h-4.176V6.048
	h-4.173v12.378h-4.172V6.048h-4.176v12.378h-8.204V1.889h24.9V18.427z M-72.115,14.252h-4.029V6.048h4.029V14.252z"/>
<g>
	<path fill="#6863A7" d="M9.09,20.894v-10.32c0-0.727-0.534-1.042-1.162-1.042c-1.26,0-2.834,0.315-4.265,0.944v10.418H0.758V1.731
		h2.905v6.323C5.044,7.545,6.692,7.109,8.34,7.109c2.64,0,3.634,1.624,3.634,3.851v9.934H9.09L9.09,20.894z M17.4,14.644
		c0.095,3.464,0.773,4.142,2.905,4.142c1.67,0,3.562-0.557,5.014-1.115l0.486,2.181c-1.552,0.703-3.44,1.381-5.695,1.381
		c-4.846,0-5.597-2.665-5.597-6.905c0-2.324,0.171-4.432,0.729-6.37c1.452-0.558,3.391-0.849,5.838-0.849
		c3.974,0,5.183,2.205,5.183,6.057v1.478H17.4L17.4,14.644z M21.081,9.532c-0.87,0-2.256,0.024-3.392,0.241
		c-0.12,0.582-0.268,1.382-0.316,2.86h6.059C23.432,10.621,23.067,9.532,21.081,9.532L21.081,9.532z M31.716,10.476v10.418h-2.908
		V9.168c2.446-1.333,5.039-1.745,6.736-1.866v2.423C34.354,9.823,32.852,9.968,31.716,10.476L31.716,10.476z M43.222,21.233
		c-4.338,0-6.299-2.131-6.299-7.001c0-5.16,2.59-7.123,6.299-7.123c4.335,0,6.297,2.132,6.297,7.001
		C49.519,19.271,46.927,21.233,43.222,21.233L43.222,21.233z M43.222,9.532c-2.229,0-3.464,1.284-3.464,4.7
		c0,3.731,1.041,4.554,3.464,4.554c2.228,0,3.462-1.26,3.462-4.675C46.684,10.379,45.645,9.532,43.222,9.532L43.222,9.532z
		 M63.543,20.894h-3.415c-0.797-2.131-1.912-4.312-3.632-6.202h-1.528v6.202h-2.905V1.731h2.905v10.998h1.357
		c1.478-1.526,2.616-3.416,3.416-5.282h3.27c-1.112,2.254-2.543,4.24-4.142,5.864C60.783,15.734,62.284,18.301,63.543,20.894
		L63.543,20.894z M68.994,21.233c-2.641,0-3.634-1.623-3.634-3.851V7.447h2.884v10.296c0,0.729,0.532,1.042,1.16,1.042
		c1.261,0,2.98-0.314,4.411-0.944V7.447h2.905v11.679C73.282,21.015,70.642,21.233,68.994,21.233L68.994,21.233z"/>
</g>
<path fill="#5089A1" d="M-55.237-66.121v12.388c0,0.49-0.424,1.054-0.891,1.184l-24.897,6.896c-0.318,0.088-0.774,0.139-1.251,0.139
	c-0.477,0-0.933-0.051-1.251-0.139l-24.925-6.896c-0.483-0.134-0.923-0.698-0.923-1.184v-12.388c0-0.485,0.44-1.05,0.924-1.184
	l24.914-6.896c0.319-0.088,0.776-0.139,1.255-0.139c0.479,0,0.937,0.051,1.255,0.139l24.896,6.896
	C-55.663-67.175-55.237-66.611-55.237-66.121z M-34.037-66.116c1.369,1.385,2.09,3.104,2.09,5.297v2.355
	c0,2.202-0.721,4.039-2.09,5.416s-3.215,2.113-5.465,2.113h-7.43v-1.587l2.203-0.331v-13.576l-2.203-0.331v-1.362h2.141h5.289
	C-37.252-68.122-35.406-67.5-34.037-66.116z M-34.15-60.842c0-1.625-0.561-2.928-1.48-3.978c-0.92-1.049-2.277-1.54-3.871-1.54
	h-3.021v13.663h3.021c1.594,0,2.951-0.603,3.871-1.652s1.48-2.473,1.48-4.114V-60.842z M-17.529-52.697h-6.926v-6.17h6.611v-2.204
	h-6.611v-5.289h6.783l0.189,2.204h1.842v-3.966h-13.221v1.362l2.203,0.331v13.576l-2.203,0.331v1.587h13.662v-4.407h-2.141
	L-17.529-52.697z M-1.537-66.76l1.594,0.22l-3.805,11.192l-0.391,1.328h-0.07l-0.377-1.328L-8.43-66.511l1.604-0.249v-1.362h-5.289
	v1.362l1.268,0.237l5.668,15.588h2l5.881-15.588l1.49-0.237v-1.362h-5.729V-66.76z M5.955-64.596h2.209l0.166-1.763h3.795v13.507
	l-1.762,0.331v1.587h6.17v-1.587l-2.205-0.331v-13.507h3.99l0.178,1.763H20.5v-3.526H5.955V-64.596z M37.162-52.628l0.525,0.071
	v1.623h-1.195c-0.908,0-1.463-0.363-1.846-0.995c-0.383-0.631-0.484-1.444-0.484-2.344v-1.338c0-0.939-0.363-1.764-0.906-2.332
	c-0.545-0.568-1.365-0.924-2.279-0.924h-3.867v6.015l2.205,0.331v1.587h-6.17v-1.587l1.762-0.331v-13.576l-1.762-0.331v-1.362h1.76
	h5.635c1.877,0,3.316,0.352,4.318,1.184s1.504,1.982,1.504,3.513c0,0.836-0.232,1.562-0.699,2.209c-0.465,0.647-1.131,1.148-2,1.519
	c0.939,0.308,1.643,0.805,2.057,1.499s0.646,1.546,0.646,2.564v1.385c0,0.529,0.041,0.919,0.176,1.172
	C36.676-52.825,36.854-52.675,37.162-52.628z M34.029-63.482c0-0.907-0.283-1.59-0.852-2.119c-0.568-0.528-1.449-0.758-2.639-0.758
	h-3.43v5.729h3.191c1.303,0,2.25-0.212,2.842-0.709S34.029-62.527,34.029-63.482z M53.701-66.014
	c1.439,1.665,2.057,3.748,2.057,6.25v0.248c0,2.509-0.629,4.592-2.068,6.25c-1.439,1.657-3.258,2.485-5.545,2.485
	c-2.225,0-3.967-0.829-5.355-2.485c-1.389-1.657-2.018-3.74-2.018-6.25v-0.248c0-2.501,0.652-4.584,2.041-6.25
	s3.174-2.498,5.4-2.498C50.5-68.512,52.26-67.679,53.701-66.014z M53.553-59.789c0-2.004-0.449-3.639-1.408-4.906
	c-0.959-1.266-2.258-1.899-3.953-1.899c-1.627,0-2.916,0.635-3.828,1.906c-0.91,1.271-1.387,2.904-1.387,4.899v0.272
	c0,2.02,0.477,3.663,1.387,4.929c0.912,1.267,2.191,1.9,3.816,1.9c1.721,0,3.029-0.631,3.977-1.894
	c0.947-1.262,1.396-2.907,1.396-4.936V-59.789z M58.842-66.76l1.764,0.331v13.576l-1.764,0.331v1.587h6.17v-1.587l-1.762-0.331
	v-13.576l1.762-0.331v-1.362h-6.17V-66.76z M67.656-68.122v3.526h1.895l0.166-1.763h3.67v13.507l-1.764,0.331v1.587h6.17v-1.587
	l-1.764-0.331v-13.507h3.678l0.178,1.763h1.875v-3.526H67.656z"/>
<g id="Page_1">
	<path id="Rectangle_1" fill="#010101" d="M43.292,43.914h-4.651v15.46h4.848V50.79l4.615,5.538l4.395-5.538v8.584h4.604v-15.46
		h-4.604l-4.395,5.722L43.292,43.914z M35.596,37.13h40.059c2.038,0,3.691,1.652,3.691,3.691v21.69c0,2.039-1.652,3.691-3.691,3.691
		H35.596c-2.037,0-3.69-1.652-3.69-3.691v-21.69C31.905,38.783,33.558,37.13,35.596,37.13z M65.132,44.006h-0.046v7.938h-4.431
		l6.831,7.43l6.83-7.476h-4.614v-7.892H65.132z"/>
</g>
<path fill="#2CAAE1" d="M-72.702,76.952c-1.317,0.583-2.731,0.979-4.216,1.156c1.517-0.908,2.68-2.347,3.228-4.061
	c-1.419,0.841-2.99,1.452-4.662,1.781c-1.339-1.426-3.246-2.317-5.357-2.317c-4.053,0-7.339,3.286-7.339,7.339
	c0,0.575,0.064,1.135,0.19,1.673c-6.101-0.307-11.508-3.229-15.129-7.669c-0.631,1.084-0.993,2.345-0.993,3.689
	c0,2.547,1.295,4.793,3.266,6.11c-1.204-0.038-2.336-0.368-3.326-0.918c0,0.031,0,0.062,0,0.093c0,3.556,2.529,6.522,5.887,7.197
	c-0.616,0.167-1.265,0.257-1.933,0.257c-0.474,0-0.933-0.046-1.382-0.132c0.935,2.916,3.645,5.038,6.857,5.097
	c-2.512,1.969-5.677,3.143-9.116,3.143c-0.592,0-1.176-0.036-1.751-0.103c3.248,2.082,7.106,3.297,11.251,3.297
	c13.501,0,20.883-11.184,20.883-20.883c0-0.318-0.007-0.635-0.021-0.95C-74.93,79.716-73.686,78.424-72.702,76.952z"/>
<g>
	<g>
		<path fill="#595C5E" d="M-4.098,79.975h-6.046v15.675h5.957c5.643,0,8.934-3.359,8.934-7.882v-0.045
			C4.748,83.199,1.501,79.975-4.098,79.975z M0.291,87.834c0,2.53-1.724,3.963-4.32,3.963h-1.77v-7.972h1.77
			c2.597,0,4.32,1.456,4.32,3.963V87.834z M7.637,95.648h4.365V79.975H7.637V95.648z M22.079,85.887
			c-2.173-0.493-2.71-0.807-2.71-1.522v-0.045c0-0.56,0.516-1.007,1.567-1.007c1.389,0,2.956,0.537,4.39,1.545l2.172-3.068
			c-1.702-1.366-3.785-2.083-6.449-2.083c-3.762,0-6.068,2.105-6.068,5.016v0.045c0,3.225,2.575,4.166,5.911,4.926
			c2.128,0.493,2.643,0.851,2.643,1.501v0.044c0,0.671-0.627,1.075-1.791,1.075c-1.813,0-3.538-0.649-5.083-1.881l-2.419,2.889
			c1.926,1.724,4.568,2.598,7.345,2.598c3.807,0,6.337-1.904,6.337-5.106v-0.044C27.923,87.834,25.684,86.67,22.079,85.887z
			 M46.934,87.812v-0.044c0-4.501-3.582-8.106-8.419-8.106s-8.464,3.65-8.464,8.151v0.045c0,4.5,3.582,8.106,8.419,8.106
			c1.792,0,3.426-0.515,4.77-1.389l1.724,1.545l2.194-2.44l-1.611-1.366C46.441,91.037,46.934,89.469,46.934,87.812z M42.522,87.901
			c0,0.538-0.089,1.052-0.269,1.522l-2.127-1.926l-2.194,2.463l2.172,1.859c-0.47,0.179-1.007,0.291-1.589,0.291
			c-2.396,0-4.009-1.993-4.009-4.254v-0.045c0-2.261,1.59-4.232,3.963-4.232c2.419,0,4.054,1.993,4.054,4.277L42.522,87.901
			L42.522,87.901z M59.742,88.797c0,2.194-1.143,3.224-2.889,3.224s-2.889-1.074-2.889-3.336v-8.71h-4.411v8.8
			c0,4.904,2.799,7.166,7.255,7.166c4.457,0,7.345-2.217,7.345-7.278v-8.688h-4.411V88.797z M73.938,85.887
			c-2.172-0.493-2.71-0.807-2.71-1.522v-0.045c0-0.56,0.516-1.007,1.568-1.007c1.388,0,2.956,0.537,4.389,1.545l2.172-3.068
			c-1.701-1.366-3.783-2.083-6.448-2.083c-3.762,0-6.068,2.104-6.068,5.016v0.044c0,3.225,2.575,4.165,5.911,4.926
			c2.128,0.493,2.643,0.851,2.643,1.5v0.044c0,0.671-0.627,1.075-1.792,1.075c-1.813,0-3.538-0.649-5.083-1.881l-2.418,2.889
			c1.926,1.725,4.568,2.598,7.344,2.598c3.807,0,6.338-1.904,6.338-5.105v-0.045C79.783,87.834,77.544,86.67,73.938,85.887z"/>
	</g>
</g>
<path fill-rule="evenodd" clip-rule="evenodd" d="M-87.875,60.947c-1.034-0.046-2.096-0.23-3.077-0.556
	c-2.426-0.804-3.75-2.604-4.191-5.079c-0.425-2.381-0.023-4.694,0.634-6.978c0.643-2.237,1.603-4.309,3.189-6.052
	c1.645-1.805,3.693-2.854,6.088-3.223c2.145-0.332,4.278-0.267,6.312,0.574c2.819,1.166,4.288,3.359,4.661,6.346
	c0.239,1.912-0.284,3.707-0.86,5.482c-0.499,1.539-1.087,3.048-1.639,4.569c-0.161,0.444-0.107,0.538,0.358,0.542
	c0.505,0.004,1.009,0.007,1.515,0c0.311-0.005,0.44,0.152,0.368,0.435c-0.304,1.199-0.616,2.396-0.952,3.587
	c-0.037,0.133-0.232,0.25-0.381,0.317c-0.129,0.058-0.293,0.045-0.442,0.045C-78.217,60.958-85.941,61.033-87.875,60.947z
	 M-82.405,56.422c0.688,0,0.738-0.041,0.926-0.711c0.563-2.002,1.166-3.995,1.675-6.011c0.224-0.888,0.361-1.825,0.354-2.737
	c-0.014-1.803-1.036-3.02-2.735-3.376c-0.54-0.113-1.111-0.132-1.666-0.117c-1.658,0.045-3.032,0.692-4.052,2.029
	c-0.782,1.026-1.231,2.206-1.554,3.438c-0.407,1.56-0.724,3.133-0.449,4.76c0.248,1.476,1.09,2.422,2.561,2.629
	C-86.438,56.455-83.128,56.422-82.405,56.422z M-45.063,53.892c-1.666,0-3.33-0.001-4.996,0c-0.538,0-0.709,0.169-0.722,0.701
	c-0.029,1.213,0.594,1.893,1.907,2.05c0.473,0.057,0.951,0.086,1.426,0.088c2.184,0.008,4.367,0.003,6.551,0.004
	c0.521,0,0.586,0.091,0.479,0.611c-0.209,1.01-0.41,2.022-0.611,3.034c-0.115,0.576-0.234,0.685-0.811,0.687
	c-2.539,0.003-5.074,0.022-7.612,0.002c-1.219-0.01-2.413-0.227-3.534-0.736c-1.581-0.718-2.427-1.969-2.608-3.676
	c-0.247-2.301,0.304-4.498,0.966-6.662c0.275-0.903,0.667-1.787,1.123-2.616c0.886-1.61,2.219-2.76,3.958-3.372
	c2.485-0.871,5.022-0.981,7.557-0.291c2.055,0.56,3.211,2.069,3.342,4.195c0.115,1.917-0.27,3.767-0.746,5.605
	c-0.086,0.337-0.338,0.378-0.635,0.377C-41.706,53.889-43.388,53.892-45.063,53.892z M-46.79,50.281
	c0.898,0,1.799-0.006,2.699,0.001c0.338,0.003,0.537-0.136,0.598-0.477c0.176-1-0.322-1.897-1.312-2.146
	c-0.607-0.153-1.266-0.205-1.895-0.165c-1.463,0.094-2.547,0.798-3.126,2.19c-0.208,0.499-0.141,0.594,0.417,0.596
	C-48.536,50.282-47.665,50.281-46.79,50.281z M-63.81,60.903c1.392,0,2.783-0.005,4.176,0.004c0.402,0.002,0.634-0.142,0.705-0.563
	c0.094-0.549,0.233-1.09,0.352-1.635c1.038-4.858,2.077-9.716,3.115-14.575c0.094-0.442-0.017-0.579-0.463-0.581
	c-1.051-0.002-2.101,0-3.15,0c-0.803,0-0.848,0.046-1.018,0.834c-0.841,3.911-1.69,7.82-2.522,11.733
	c-0.088,0.412-0.309,0.559-0.697,0.559s-1.979,0-2.945,0c-0.965,0-1.611-0.631-1.688-1.696c-0.016-0.229-0.005-0.466,0.034-0.692
	c0.236-1.34,0.471-2.681,0.735-4.016c0.402-2.028,0.831-4.052,1.245-6.078c0.112-0.549,0.027-0.644-0.545-0.645
	c-1.118,0-2.237,0-3.355,0c-0.528,0-0.639,0.097-0.746,0.605c-0.531,2.528-1.07,5.056-1.602,7.585
	c-0.353,1.683-0.665,3.364-0.46,5.103c0.276,2.332,1.746,3.837,4.087,3.969c1.576,0.088,3.162,0.017,4.743,0.017
	C-63.81,60.854-63.81,60.879-63.81,60.903z M-19.577,51.41c-0.15-0.636-0.309-1.27-0.438-1.908
	c-0.082-0.399-0.279-0.568-0.701-0.562c-1.363,0.02-2.729,0.007-4.092,0.008c-0.531,0.001-0.588,0.079-0.436,0.609
	c0.617,2.184,1.256,4.364,1.848,6.556c0.105,0.399,0.104,0.864,0.018,1.271c-0.209,0.997-0.502,1.977-0.752,2.965
	c-0.109,0.43-0.01,0.553,0.426,0.554c1.377,0.002,2.756-0.005,4.131,0.004c0.379,0.002,0.578-0.165,0.664-0.524
	c0.154-0.648,0.312-1.296,0.496-1.936c0.225-0.791,0.344-1.606,0.873-2.305c3.691-4.864,10.789-14.303,11.031-14.625
	c0.24-0.321,0.168-0.494-0.271-0.494c-0.441,0-3.932,0-4.463,0c-0.529,0-0.93,0.184-1.248,0.655
	c-2.172,3.218-4.365,6.421-6.555,9.628c-0.105,0.151-0.225,0.292-0.391,0.507C-19.503,51.624-19.55,51.52-19.577,51.41z
	 M-34.169,43.618c-0.398-0.003-0.605,0.133-0.684,0.519c-0.127,0.64-0.283,1.272-0.422,1.91c-0.592,2.767-1.182,5.534-1.77,8.3
	c-0.432,2.026-0.852,4.054-1.285,6.08c-0.074,0.347,0.051,0.477,0.393,0.475c1.158-0.006,2.32,0.003,3.479-0.001
	c0.662-0.001,0.75-0.081,0.887-0.744c0.793-3.858,1.588-7.716,2.383-11.575c0.129-0.629,0.217-0.698,0.879-0.698
	c3.123,0,6.246,0,9.369-0.001c0.457,0,0.561-0.123,0.457-0.568c-0.135-0.569-0.271-1.137-0.426-1.7
	c-0.242-0.88-0.787-1.491-1.672-1.745c-0.428-0.123-0.877-0.245-1.318-0.252C-25.577,43.591-32.423,43.63-34.169,43.618z
	 M-107.034,67.945c0.491,0,0.981,0.002,1.473,0c2.063-0.012,3.603-0.896,4.578-2.735c0.584-1.103,0.974-2.276,1.241-3.486
	c0.906-4.091,1.792-8.186,2.683-12.279c0.091-0.418-0.031-0.553-0.504-0.555c-1.214-0.005-2.428-0.002-3.641-0.001
	c-0.604,0.001-0.74,0.101-0.869,0.689c-0.751,3.442-1.505,6.884-2.24,10.33c-0.224,1.048-0.51,2.061-1.189,2.918
	c-0.387,0.488-0.856,0.783-1.513,0.711c-0.27-0.03-0.547,0.017-0.817-0.011c-0.441-0.044-0.645,0.16-0.736,0.573
	c-0.243,1.088-0.507,2.171-0.761,3.256c-0.104,0.445-0.05,0.543,0.415,0.561c0.626,0.023,1.253,0.006,1.881,0.006
	C-107.034,67.93-107.034,67.938-107.034,67.945z M-97.232,47.733c0.374,0.009,0.589-0.14,0.667-0.507
	c0.229-1.077,0.454-2.154,0.698-3.227c0.082-0.357-0.052-0.478-0.387-0.478c-1.321,0.003-2.644,0.005-3.965-0.001
	c-0.331,0-0.498,0.168-0.567,0.471c-0.242,1.073-0.489,2.146-0.728,3.22c-0.088,0.396,0.015,0.513,0.438,0.516
	c0.642,0.005,1.281,0.001,1.922,0.001S-97.871,47.718-97.232,47.733z"/>
<g>
	<path fill="#E44F26" d="M-54.045,72.843l2.332,26.167l10.47,2.906l10.498-2.91l2.335-26.163H-54.045z M-33.276,79.053l-0.146,1.627
		l-0.064,0.722h-0.01h-7.731h-0.011h-4.528l0.293,3.286h4.235h0.011h6.585h0.863l-0.078,0.861l-0.754,8.45l-0.048,0.542
		l-6.568,1.821l-0.015,0.004l-6.574-1.825l-0.449-5.039h1.484h1.736l0.229,2.559l3.573,0.966l0.004-0.001v0l0.01-0.002l0.001,0
		l3.568-0.963l0.372-4.162h-3.94h-0.011h-7.172l-0.788-8.844l-0.077-0.861h8.037h0.011h8.028L-33.276,79.053z"/>
	<polygon opacity="0.4" fill="#EAAF78" points="-41.228,99.692 -32.745,97.34 -30.749,74.983 -41.228,74.983 	"/>
</g>
</svg>
