<?xml version="1.0" encoding="utf-8"?>
<!-- Generator: Adobe Illustrator 16.0.0, SVG Export Plug-In . SVG Version: 6.00 Build 0)  -->
<!DOCTYPE svg PUBLIC "-//W3C//DTD SVG 1.1//EN" "http://www.w3.org/Graphics/SVG/1.1/DTD/svg11.dtd">
<svg version="1.1" id="Layer_1" xmlns="http://www.w3.org/2000/svg" xmlns:xlink="http://www.w3.org/1999/xlink" x="0px" y="0px"
	 width="29.074px" height="29.073px" viewBox="0 0 29.074 29.073" enable-background="new 0 0 29.074 29.073" xml:space="preserve">
<g>
	<path fill="#010101" d="M-89.738,48.447l-0.004-0.002l0.023-0.138c-2.542-0.622-2.853-0.628-4.783-0.548
		c0.318-1.143,0.413-2.458,0.413-3.923c0-2.103-0.79-3.785-2.072-5.065c0.224-0.723,0.523-2.33-0.299-4.386
		c0,0-1.45-0.46-4.733,1.736c-1.284-0.321-2.652-0.48-4.022-0.48c-1.509,0-3.031,0.192-4.451,0.582
		c-3.387-2.31-4.883-1.837-4.883-1.837c-0.975,2.44-0.372,4.247-0.188,4.696c-1.147,1.238-1.848,2.818-1.848,4.755
		c0,1.462,0.166,2.774,0.573,3.915c-1.946-0.071-2.12-0.043-4.571,0.556l0.022,0.139c2.466-0.603,2.667-0.624,4.603-0.551
		c0.089,0.236,0.189,0.466,0.301,0.687c-1.913,0.061-2.316,0.305-4.875,1.188l0.031,0.136c2.581-0.89,3.022-1.127,4.917-1.186
		c1.143,2.131,3.396,3.507,7.406,3.94c-0.568,0.382-1.149,1.032-1.385,2.132c-0.775,0.371-3.23,1.276-4.704-1.257
		c0,0-0.824-1.507-2.403-1.625c0,0-1.529-0.023-0.104,0.954c0,0,1.024,0.483,1.731,2.296c0,0,0.922,3.094,5.371,2.102v3.196
		c0,0-0.093,1.13-1.13,1.507c0,0-0.613,0.424,0.047,0.659c0,0,2.872,0.235,2.872-2.119V57.02c0,0-0.113-1.382,0.565-1.862v5.724
		c0,0-0.047,1.366-0.753,1.884c0,0-0.471,0.848,0.564,0.613c0,0,1.979-0.283,2.072-2.59l0.045-5.793h0.476l0.046,5.793
		c0.094,2.308,2.071,2.59,2.071,2.59c1.036,0.235,0.564-0.613,0.564-0.613c-0.705-0.518-0.753-1.884-0.753-1.884v-5.674
		c0.679,0.528,0.565,1.813,0.565,1.813v3.484c0,2.355,2.873,2.119,2.873,2.119c0.658-0.235,0.047-0.659,0.047-0.659
		c-1.036-0.377-1.13-1.507-1.13-1.507v-4.569c0-1.781-0.752-2.724-1.485-3.223c4.277-0.424,6.329-1.805,7.274-3.95
		c1.873,0.051,2.403,0.279,5.039,1.189l0.031-0.136c-2.621-0.904-3.118-1.138-5.01-1.193c0.089-0.217,0.168-0.442,0.237-0.674
		C-92.621,47.822-92.289,47.823-89.738,48.447z M-115.985,52.287C-115.985,52.287-115.985,52.287-115.985,52.287
		c0,0.117-0.138,0.211-0.308,0.211c-0.168,0-0.305-0.094-0.305-0.212c0-0.117,0.137-0.212,0.305-0.212
		C-116.123,52.074-115.985,52.169-115.985,52.287L-115.985,52.287L-115.985,52.287z M-115.751,52.757
		c0-0.117,0.139-0.211,0.308-0.211c0.168,0,0.305,0.094,0.306,0.212v0v0.001v0c-0.001,0.118-0.138,0.211-0.306,0.211
		C-115.612,52.969-115.751,52.875-115.751,52.757z M-115.231,53.37c0-0.117,0.136-0.212,0.306-0.212
		c0.169,0,0.307,0.095,0.307,0.212c0,0,0,0,0,0v0l0,0c0,0.117-0.138,0.211-0.307,0.211
		C-115.096,53.582-115.231,53.487-115.231,53.37z M-114.456,54.288c-0.168,0-0.305-0.095-0.305-0.212
		c0-0.117,0.137-0.212,0.305-0.212c0.17,0,0.308,0.095,0.308,0.212C-114.148,54.193-114.286,54.288-114.456,54.288z
		 M-113.631,54.736L-113.631,54.736c0,0.116-0.139,0.211-0.307,0.211s-0.307-0.095-0.307-0.211c0-0.117,0.139-0.212,0.307-0.212
		S-113.631,54.619-113.631,54.736C-113.631,54.736-113.631,54.736-113.631,54.736L-113.631,54.736z M-112.924,55.301
		L-112.924,55.301c0,0.117-0.138,0.211-0.306,0.211c-0.17,0-0.307-0.094-0.307-0.212c0-0.117,0.137-0.212,0.307-0.212
		C-113.062,55.088-112.924,55.183-112.924,55.301C-112.924,55.3-112.924,55.3-112.924,55.301L-112.924,55.301z M-111.935,55.678
		C-111.935,55.678-111.935,55.678-111.935,55.678c0,0.116-0.138,0.211-0.308,0.211c-0.168,0-0.306-0.095-0.306-0.211
		c0-0.117,0.138-0.212,0.306-0.212C-112.072,55.465-111.935,55.56-111.935,55.678L-111.935,55.678L-111.935,55.678z M-110.95,55.678
		C-110.95,55.678-110.95,55.678-110.95,55.678c0,0.116-0.137,0.211-0.307,0.211c-0.169,0-0.305-0.095-0.305-0.211
		c0-0.117,0.136-0.212,0.305-0.212C-111.087,55.465-110.95,55.56-110.95,55.678L-110.95,55.678L-110.95,55.678z M-110.258,55.726
		c-0.169,0-0.306-0.094-0.306-0.211c0-0.118,0.137-0.212,0.306-0.212c0.17,0,0.307,0.095,0.307,0.212
		C-109.951,55.631-110.088,55.726-110.258,55.726z M-105.251,51.871c-4.661,0-8.44-0.702-8.44-5.207c0-1.078,0.532-2.08,1.441-2.911
		c1.518-1.385,4.086-0.652,6.999-0.652c2.9,0,5.46-0.741,6.979,0.634l0.001,0c0.921,0.834,1.459,1.842,1.459,2.928
		C-96.812,51.733-100.59,51.871-105.251,51.871z"/>
	<path opacity="0.4" fill="#F4CBB3" d="M-98.271,43.737L-98.271,43.737c-1.521-1.376-4.08-0.635-6.98-0.635
		c-2.913,0-5.481-0.733-6.999,0.652c-0.909,0.831-1.441,1.833-1.441,2.911c0,4.505,3.779,5.207,8.44,5.207s8.439-0.138,8.439-5.207
		C-96.812,45.579-97.35,44.571-98.271,43.737z M-109.814,49.45c-0.97,0-1.755-1.131-1.755-2.528c0-1.396,0.785-2.527,1.755-2.527
		c0.97,0.001,1.757,1.131,1.757,2.527C-108.058,48.319-108.845,49.45-109.814,49.45z M-100.393,49.45
		c-0.97,0-1.756-1.131-1.756-2.528c0-1.396,0.786-2.527,1.756-2.527c0.97,0.001,1.757,1.131,1.757,2.527
		C-98.636,48.319-99.423,49.45-100.393,49.45z"/>
	<path fill="#AE5D52" d="M-108.621,46.955c0,0.931-0.524,1.685-1.171,1.685c-0.646,0-1.17-0.754-1.17-1.685
		c0-0.931,0.523-1.686,1.17-1.686S-108.621,46.023-108.621,46.955L-108.621,46.955z M-99.2,46.955c0,0.931-0.523,1.685-1.17,1.685
		s-1.171-0.754-1.171-1.685c0-0.931,0.524-1.686,1.171-1.686C-99.726,45.269-99.2,46.023-99.2,46.955L-99.2,46.955z
		 M-105.224,48.728c0.241,0,0.438,0.197,0.438,0.439c0,0.243-0.197,0.439-0.438,0.439c-0.243,0-0.439-0.197-0.439-0.439
		C-105.663,48.925-105.467,48.728-105.224,48.728z M-106.249,50.278c-0.026-0.073,0.013-0.154,0.087-0.18
		c0.073-0.026,0.153,0.013,0.179,0.085c0.113,0.319,0.416,0.534,0.754,0.534s0.64-0.215,0.752-0.534
		c0.027-0.073,0.107-0.112,0.181-0.085c0.074,0.025,0.112,0.106,0.087,0.18c-0.153,0.432-0.563,0.721-1.02,0.721
		C-105.687,50.999-106.096,50.711-106.249,50.278L-106.249,50.278z"/>
	<path id="drop" fill="#9EDAF1" d="M-117.111,52.915l-0.305,1.066c0,0-0.08,0.385,0.283,0.453c0.379-0.007,0.348-0.362,0.32-0.477
		L-117.111,52.915z"/>
</g>
<g>
	<path fill-rule="evenodd" clip-rule="evenodd" fill="#273319" d="M-105.432-19.346c0-0.314-0.164-0.603-0.437-0.759l-7.225-4.159
		c-0.124-0.072-0.26-0.109-0.398-0.116c-0.014,0-0.066,0-0.076,0c-0.138,0.006-0.274,0.044-0.399,0.116l-7.227,4.159
		c-0.27,0.156-0.437,0.445-0.437,0.759l0.016,11.2c0,0.155,0.082,0.299,0.218,0.376c0.134,0.08,0.3,0.08,0.433,0l4.295-2.459
		c0.272-0.161,0.437-0.446,0.437-0.758v-5.232c0-0.312,0.166-0.6,0.436-0.755l1.829-1.054c0.136-0.079,0.285-0.117,0.438-0.117
		c0.149,0,0.302,0.039,0.436,0.117l1.827,1.054c0.27,0.156,0.437,0.444,0.437,0.755v5.232c0,0.312,0.167,0.599,0.437,0.758
		l4.295,2.459c0.135,0.08,0.303,0.08,0.437,0c0.131-0.077,0.218-0.221,0.218-0.376L-105.432-19.346z"/>
	<path fill-rule="evenodd" clip-rule="evenodd" fill="#273319" d="M-66.839-34.741c-0.136-0.075-0.301-0.074-0.435,0.005
		c-0.133,0.078-0.215,0.221-0.215,0.376v11.091c0,0.109-0.059,0.209-0.152,0.265c-0.094,0.054-0.212,0.054-0.307,0l-1.809-1.043
		c-0.271-0.156-0.604-0.156-0.873,0l-7.23,4.172c-0.27,0.157-0.437,0.445-0.437,0.757v8.347c0,0.311,0.167,0.6,0.437,0.756
		l7.23,4.176c0.269,0.156,0.603,0.156,0.873,0l7.232-4.176c0.27-0.156,0.434-0.445,0.434-0.756v-20.807
		c0-0.316-0.17-0.608-0.445-0.762L-66.839-34.741z M-67.512-13.514c0,0.078-0.04,0.149-0.107,0.189l-2.483,1.431
		c-0.067,0.039-0.149,0.039-0.217,0l-2.483-1.431c-0.068-0.04-0.11-0.111-0.11-0.189v-2.866c0-0.078,0.042-0.15,0.11-0.189
		l2.483-1.435c0.067-0.039,0.149-0.039,0.219,0l2.481,1.435c0.067,0.039,0.107,0.111,0.107,0.189V-13.514z"/>
	<path fill-rule="evenodd" clip-rule="evenodd" fill="#273319" d="M-40.973-16.455c0.268-0.156,0.432-0.444,0.432-0.755v-2.022
		c0-0.312-0.164-0.6-0.432-0.755l-7.186-4.171c-0.27-0.158-0.604-0.158-0.873-0.001l-7.23,4.172
		c-0.27,0.156-0.436,0.444-0.436,0.756v8.345c0,0.313,0.168,0.603,0.441,0.758l7.182,4.093c0.266,0.151,0.592,0.152,0.857,0.004
		l4.342-2.415c0.141-0.077,0.225-0.221,0.225-0.378c0.002-0.158-0.082-0.304-0.219-0.382l-7.271-4.175
		c-0.135-0.078-0.221-0.223-0.221-0.378v-2.615c0-0.156,0.086-0.3,0.219-0.377l2.264-1.306c0.135-0.078,0.301-0.078,0.438,0
		l2.262,1.306c0.137,0.077,0.221,0.222,0.221,0.377v2.058c0,0.156,0.082,0.3,0.219,0.377c0.135,0.078,0.303,0.078,0.436,0
		L-40.973-16.455z"/>
	<path fill-rule="evenodd" clip-rule="evenodd" fill="#8EC74E" d="M-92.285-24.205c0.271-0.155,0.602-0.155,0.873,0l7.228,4.172
		c0.271,0.156,0.438,0.444,0.438,0.756v8.35c0,0.313-0.166,0.6-0.437,0.757l-7.228,4.174c-0.273,0.157-0.604,0.157-0.875,0
		l-7.228-4.174c-0.271-0.156-0.437-0.444-0.437-0.757v-8.351c0-0.312,0.166-0.6,0.439-0.755L-92.285-24.205z"/>
	<path fill="#8EC74E" d="M-26.939-5.876c-0.248,0-0.496-0.065-0.713-0.191l-2.277-1.347c-0.34-0.19-0.174-0.257-0.062-0.296
		c0.455-0.157,0.545-0.193,1.031-0.468c0.049-0.028,0.115-0.018,0.168,0.013l1.748,1.039c0.062,0.035,0.152,0.035,0.213,0
		l6.816-3.935c0.062-0.036,0.102-0.109,0.102-0.184v-7.868c0-0.076-0.039-0.148-0.104-0.187l-6.814-3.931
		c-0.062-0.037-0.146-0.037-0.209,0l-6.814,3.933c-0.066,0.037-0.107,0.111-0.107,0.186v7.868c0,0.075,0.041,0.146,0.107,0.182
		l1.867,1.08c1.014,0.506,1.635-0.091,1.635-0.69v-7.768c0-0.109,0.086-0.195,0.197-0.195h0.865c0.107,0,0.197,0.086,0.197,0.195
		v7.768c0,1.353-0.736,2.127-2.018,2.127c-0.395,0-0.703,0-1.572-0.426l-1.787-1.03c-0.441-0.254-0.715-0.731-0.715-1.243v-7.868
		c0-0.511,0.273-0.987,0.715-1.242l6.818-3.939c0.43-0.244,1.002-0.244,1.432,0l6.816,3.939c0.441,0.255,0.715,0.731,0.715,1.242
		v7.868c0,0.511-0.273,0.986-0.715,1.243l-6.816,3.936C-26.439-5.941-26.688-5.876-26.939-5.876z"/>
	<path fill="#8EC74E" d="M-24.834-11.296c-2.982,0-3.607-1.369-3.607-2.518c0-0.108,0.088-0.196,0.197-0.196h0.883
		c0.098,0,0.178,0.071,0.195,0.167c0.133,0.897,0.529,1.35,2.332,1.35c1.438,0,2.049-0.324,2.049-1.087
		c0-0.439-0.174-0.765-2.406-0.984c-1.863-0.184-3.02-0.596-3.02-2.087c0-1.376,1.16-2.196,3.104-2.196
		c2.186,0,3.266,0.757,3.402,2.384c0.004,0.056-0.014,0.11-0.051,0.151c-0.039,0.04-0.09,0.063-0.146,0.063h-0.885
		c-0.092,0-0.172-0.066-0.191-0.154c-0.211-0.945-0.729-1.247-2.129-1.247c-1.568,0-1.75,0.548-1.75,0.956
		c0,0.496,0.217,0.641,2.334,0.92c2.094,0.278,3.09,0.669,3.09,2.142C-21.434-12.147-22.674-11.296-24.834-11.296z"/>
	<path fill-rule="evenodd" clip-rule="evenodd" fill="#8EC74E" d="M-48.703-16.847c0.053-0.03,0.117-0.03,0.168,0l1.387,0.801
		c0.053,0.029,0.084,0.085,0.084,0.145v1.602c0,0.06-0.031,0.115-0.084,0.144l-1.387,0.801c-0.051,0.029-0.115,0.029-0.168,0
		l-1.385-0.801c-0.055-0.029-0.084-0.084-0.084-0.144v-1.602c0-0.06,0.029-0.116,0.084-0.145L-48.703-16.847z"/>
</g>
<path fill="#E93135" d="M63.992,13.04L51.298,0.346c-0.73-0.73-1.916-0.73-2.647,0l-2.636,2.637l3.343,3.344
	c0.777-0.263,1.669-0.087,2.288,0.533c0.623,0.623,0.798,1.521,0.528,2.302l3.223,3.223c0.78-0.269,1.679-0.096,2.303,0.528
	c0.87,0.87,0.87,2.279,0,3.151c-0.871,0.87-2.281,0.87-3.151,0c-0.655-0.655-0.816-1.618-0.484-2.424l-3.007-3.006v7.909
	c0.212,0.104,0.412,0.245,0.589,0.421c0.87,0.871,0.87,2.28,0,3.152c-0.87,0.869-2.28,0.869-3.15,0c-0.87-0.872-0.87-2.281,0-3.152
	c0.216-0.214,0.464-0.377,0.729-0.485v-7.982c-0.266-0.109-0.514-0.271-0.729-0.486c-0.658-0.658-0.818-1.626-0.479-2.436
	l-3.298-3.297l-8.704,8.703c-0.731,0.732-0.731,1.918,0,2.649L48.71,28.323c0.729,0.731,1.916,0.731,2.647,0l12.635-12.635
	C64.724,14.957,64.724,13.771,63.992,13.04z"/>
<path fill="#CC3937" d="M-12.362-34.987v24.914H8.364v4.159h16.552v-4.159h37.278v-24.914H-12.362z M8.364-14.261H4.191v-12.378
	H0.017v12.378h-8.174v-16.538H8.364V-14.261z M29.092-14.261h-8.205v4.188h-8.318v-20.726h16.523V-14.261z M58.165-14.261h-4.176
	v-12.378h-4.173v12.378h-4.172v-12.378h-4.176v12.378h-8.203v-16.538h24.899V-14.261z M24.916-18.435h-4.029v-8.204h4.029V-18.435z"
	/>
<g>
	<path fill="#6863A3" d="M-71.629,60.206v-10.32c0-0.727-0.534-1.042-1.162-1.042c-1.26,0-2.834,0.315-4.265,0.944v10.418h-2.905
		V41.043h2.905v6.323c1.381-0.509,3.029-0.945,4.677-0.945c2.64,0,3.634,1.624,3.634,3.851v9.934H-71.629L-71.629,60.206z
		 M-63.318,53.956c0.095,3.464,0.773,4.142,2.905,4.142c1.67,0,3.562-0.557,5.014-1.115l0.486,2.181
		c-1.552,0.703-3.44,1.381-5.695,1.381c-4.846,0-5.597-2.665-5.597-6.905c0-2.324,0.171-4.432,0.729-6.37
		c1.452-0.558,3.391-0.849,5.838-0.849c3.974,0,5.183,2.205,5.183,6.057v1.478H-63.318L-63.318,53.956z M-59.638,48.844
		c-0.87,0-2.256,0.024-3.392,0.241c-0.12,0.582-0.268,1.382-0.316,2.86h6.059C-57.287,49.934-57.651,48.844-59.638,48.844
		L-59.638,48.844z M-49.003,49.788v10.418h-2.908V48.481c2.446-1.333,5.039-1.745,6.736-1.866v2.423
		C-46.365,49.135-47.867,49.28-49.003,49.788L-49.003,49.788z M-37.497,60.545c-4.338,0-6.299-2.131-6.299-7.001
		c0-5.16,2.59-7.123,6.299-7.123c4.335,0,6.297,2.132,6.297,7.001C-31.2,58.583-33.792,60.545-37.497,60.545L-37.497,60.545z
		 M-37.497,48.844c-2.229,0-3.464,1.284-3.464,4.7c0,3.731,1.041,4.554,3.464,4.554c2.228,0,3.462-1.26,3.462-4.675
		C-34.035,49.691-35.074,48.844-37.497,48.844L-37.497,48.844z M-17.176,60.206h-3.415c-0.797-2.131-1.912-4.312-3.632-6.202h-1.528
		v6.202h-2.905V41.043h2.905v10.998h1.357c1.478-1.526,2.616-3.416,3.416-5.282h3.27c-1.112,2.254-2.543,4.24-4.142,5.864
		C-19.936,55.046-18.435,57.614-17.176,60.206L-17.176,60.206z M-11.725,60.545c-2.641,0-3.634-1.623-3.634-3.851V46.76h2.884
		v10.296c0,0.729,0.532,1.042,1.16,1.042c1.261,0,2.98-0.314,4.411-0.944V46.76h2.905v11.679
		C-7.437,60.328-10.077,60.545-11.725,60.545L-11.725,60.545z"/>
</g>
<g id="Page_1">
	<path id="Rectangle_1" fill="#010101" d="M-109.927,7.226h-4.651v15.46h4.848v-8.584l4.615,5.538l4.395-5.538v8.584h4.604V7.226
		h-4.604l-4.395,5.722L-109.927,7.226z M-117.623,0.442h40.059c2.038,0,3.691,1.652,3.691,3.691v21.69
		c0,2.039-1.652,3.691-3.691,3.691h-40.059c-2.037,0-3.69-1.652-3.69-3.691V4.134C-121.313,2.095-119.661,0.442-117.623,0.442z
		 M-88.087,7.318h-0.046v7.938h-4.431l6.831,7.43l6.83-7.476h-4.614V7.318H-88.087z"/>
</g>
<path fill="#2CAAE1" d="M-101.858,71.214c-0.745,0.33-1.546,0.554-2.388,0.654c0.859-0.514,1.518-1.328,1.828-2.299
	c-0.804,0.477-1.693,0.822-2.639,1.009c-0.759-0.808-1.838-1.312-3.033-1.312c-2.295,0-4.155,1.86-4.155,4.155
	c0,0.325,0.036,0.643,0.108,0.947c-3.455-0.174-6.516-1.828-8.565-4.342c-0.357,0.613-0.562,1.327-0.562,2.089
	c0,1.441,0.733,2.714,1.849,3.459c-0.681-0.021-1.322-0.209-1.883-0.521c0,0.018,0,0.035,0,0.053c0,2.013,1.433,3.692,3.334,4.074
	c-0.35,0.095-0.717,0.146-1.095,0.146c-0.269,0-0.528-0.026-0.782-0.074c0.529,1.65,2.063,2.852,3.882,2.886
	c-1.423,1.114-3.214,1.779-5.161,1.779c-0.335,0-0.666-0.021-0.991-0.059c1.839,1.179,4.023,1.866,6.37,1.866
	c7.643,0,11.822-6.331,11.822-11.822c0-0.18-0.004-0.359-0.012-0.537C-103.12,72.779-102.416,72.048-101.858,71.214z"/>
<g>
	<g>
		<path fill="#5A5B5D" d="M-21.569,68.537h-6.046v15.676h5.957c5.644,0,8.935-3.359,8.935-7.882v-0.045
			C-12.723,71.761-15.97,68.537-21.569,68.537z M-17.181,76.397c0,2.53-1.724,3.964-4.32,3.964h-1.77v-7.973h1.77
			c2.597,0,4.32,1.456,4.32,3.964V76.397z M-9.834,84.211h4.365V68.537h-4.365V84.211z M4.609,74.449
			c-2.173-0.493-2.71-0.807-2.71-1.523v-0.045c0-0.56,0.516-1.007,1.567-1.007c1.389,0,2.956,0.537,4.39,1.546l2.172-3.069
			c-1.702-1.366-3.785-2.083-6.449-2.083c-3.762,0-6.068,2.105-6.068,5.017v0.045c0,3.225,2.575,4.166,5.911,4.926
			c2.128,0.493,2.643,0.851,2.643,1.501V79.8c0,0.672-0.627,1.075-1.791,1.075c-1.813,0-3.538-0.649-5.083-1.881l-2.42,2.889
			c1.927,1.724,4.569,2.598,7.346,2.598c3.807,0,6.337-1.904,6.337-5.106v-0.044C10.453,76.397,8.214,75.233,4.609,74.449z
			 M29.466,76.375V76.33c0-4.501-3.582-8.107-8.42-8.107c-4.837,0-8.464,3.65-8.464,8.151v0.045c0,4.501,3.582,8.106,8.419,8.106
			c1.792,0,3.427-0.515,4.771-1.389l1.724,1.545l2.194-2.44l-1.611-1.366C28.974,79.599,29.466,78.031,29.466,76.375z
			 M25.055,76.464c0,0.538-0.089,1.052-0.269,1.522l-2.128-1.926l-2.194,2.463l2.172,1.86c-0.47,0.179-1.007,0.291-1.589,0.291
			c-2.396,0-4.009-1.993-4.009-4.255v-0.045c0-2.261,1.59-4.233,3.963-4.233c2.419,0,4.055,1.994,4.055,4.278L25.055,76.464
			L25.055,76.464z M42.275,77.36c0,2.194-1.143,3.224-2.889,3.224s-2.89-1.075-2.89-3.336v-8.711h-4.411v8.801
			c0,4.905,2.799,7.167,7.256,7.167s7.345-2.217,7.345-7.278v-8.689h-4.411V77.36z M56.473,74.449
			c-2.172-0.493-2.71-0.807-2.71-1.523v-0.045c0-0.56,0.516-1.007,1.568-1.007c1.388,0,2.956,0.537,4.389,1.546l2.172-3.068
			c-1.701-1.366-3.783-2.083-6.448-2.083c-3.762,0-6.069,2.104-6.069,5.017v0.044c0,3.225,2.576,4.165,5.912,4.926
			c2.128,0.493,2.643,0.851,2.643,1.5v0.044c0,0.672-0.627,1.075-1.792,1.075c-1.813,0-3.538-0.649-5.084-1.881l-2.418,2.889
			c1.926,1.725,4.569,2.598,7.345,2.598c3.807,0,6.338-1.904,6.338-5.106v-0.045C62.317,76.397,60.078,75.233,56.473,74.449z"/>
	</g>
</g>
<path d="M-79.191,82.114c-0.585-0.026-1.187-0.13-1.741-0.315c-1.374-0.455-2.123-1.474-2.374-2.875
	c-0.24-1.348-0.013-2.658,0.359-3.951c0.364-1.267,0.907-2.439,1.806-3.426c0.931-1.021,2.091-1.615,3.446-1.824
	c1.215-0.188,2.423-0.151,3.573,0.325c1.596,0.66,2.428,1.902,2.639,3.592c0.136,1.082-0.161,2.099-0.487,3.104
	c-0.282,0.871-0.615,1.726-0.928,2.586c-0.091,0.251-0.061,0.305,0.203,0.307c0.286,0.002,0.571,0.004,0.857,0
	c0.176-0.003,0.249,0.086,0.209,0.246c-0.172,0.679-0.35,1.356-0.539,2.031c-0.021,0.075-0.132,0.142-0.216,0.18
	c-0.073,0.033-0.166,0.025-0.251,0.025C-73.723,82.12-78.096,82.163-79.191,82.114z M-76.094,79.553c0.39,0,0.418-0.023,0.524-0.402
	c0.319-1.134,0.66-2.261,0.948-3.403c0.126-0.503,0.204-1.033,0.2-1.55c-0.008-1.021-0.587-1.71-1.549-1.912
	c-0.306-0.063-0.629-0.074-0.943-0.066c-0.938,0.025-1.717,0.392-2.294,1.148c-0.442,0.581-0.697,1.249-0.88,1.946
	c-0.229,0.884-0.409,1.774-0.254,2.695c0.141,0.835,0.617,1.371,1.45,1.488C-78.377,79.571-76.503,79.553-76.094,79.553z
	 M-54.953,78.12c-0.943,0-1.887,0-2.83,0c-0.305,0-0.4,0.096-0.408,0.397c-0.016,0.687,0.336,1.071,1.08,1.16
	c0.268,0.032,0.539,0.049,0.807,0.05c1.236,0.005,2.473,0.002,3.709,0.002c0.295,0,0.332,0.052,0.271,0.346
	c-0.119,0.572-0.232,1.146-0.346,1.718c-0.066,0.327-0.133,0.388-0.459,0.389c-1.438,0.002-2.873,0.012-4.311,0.001
	c-0.689-0.006-1.365-0.128-2-0.417c-0.895-0.407-1.373-1.115-1.477-2.081c-0.141-1.303,0.172-2.546,0.547-3.771
	c0.156-0.512,0.377-1.012,0.637-1.481c0.5-0.912,1.256-1.562,2.24-1.909c1.406-0.493,2.842-0.556,4.277-0.165
	c1.164,0.317,1.816,1.171,1.893,2.375c0.064,1.085-0.152,2.132-0.424,3.173c-0.049,0.191-0.191,0.214-0.359,0.214
	C-53.053,78.118-54.006,78.12-54.953,78.12z M-55.932,76.076c0.51,0,1.02-0.003,1.529,0.001c0.189,0.002,0.303-0.077,0.338-0.271
	c0.1-0.565-0.184-1.074-0.744-1.214c-0.344-0.086-0.717-0.116-1.072-0.093c-0.828,0.053-1.441,0.452-1.77,1.24
	c-0.117,0.282-0.08,0.336,0.236,0.337C-56.92,76.077-56.428,76.076-55.932,76.076z M-65.566,82.09c0.787,0,1.576-0.003,2.363,0.002
	c0.229,0.001,0.359-0.081,0.4-0.319c0.053-0.311,0.131-0.617,0.197-0.926c0.588-2.75,1.178-5.501,1.764-8.251
	c0.055-0.25-0.008-0.328-0.262-0.329c-0.594-0.002-1.189,0-1.783,0c-0.453,0-0.48,0.026-0.576,0.472
	c-0.475,2.214-0.957,4.428-1.428,6.643c-0.049,0.233-0.174,0.316-0.395,0.316s-1.121,0-1.667,0c-0.546,0-0.912-0.357-0.956-0.96
	c-0.009-0.13-0.003-0.264,0.02-0.392c0.134-0.758,0.267-1.518,0.416-2.273c0.229-1.148,0.471-2.294,0.705-3.441
	c0.063-0.311,0.016-0.365-0.309-0.365c-0.633,0-1.267,0-1.899,0c-0.299,0-0.361,0.055-0.422,0.343
	c-0.301,1.431-0.606,2.862-0.907,4.294c-0.199,0.953-0.376,1.905-0.26,2.889c0.156,1.32,0.987,2.172,2.313,2.247
	c0.892,0.05,1.79,0.009,2.685,0.009C-65.566,82.062-65.566,82.076-65.566,82.09z M-40.525,76.715
	c-0.086-0.36-0.176-0.719-0.248-1.081c-0.047-0.226-0.158-0.321-0.396-0.318c-0.771,0.011-1.545,0.004-2.316,0.005
	c-0.301,0-0.334,0.045-0.246,0.345c0.348,1.236,0.711,2.471,1.045,3.712c0.059,0.226,0.059,0.489,0.01,0.719
	c-0.117,0.565-0.283,1.119-0.426,1.679c-0.062,0.244-0.006,0.313,0.242,0.314c0.779,0.001,1.559-0.003,2.338,0.002
	c0.215,0.001,0.326-0.094,0.377-0.297c0.086-0.367,0.176-0.734,0.279-1.096c0.127-0.447,0.195-0.909,0.494-1.305
	c2.09-2.754,6.107-8.098,6.246-8.279c0.135-0.182,0.094-0.28-0.154-0.28c-0.25,0-2.227,0-2.527,0c-0.299,0-0.525,0.104-0.705,0.371
	c-1.23,1.822-2.471,3.635-3.711,5.451c-0.061,0.085-0.127,0.165-0.221,0.287C-40.484,76.836-40.51,76.777-40.525,76.715z
	 M-48.787,72.304c-0.225-0.002-0.342,0.075-0.387,0.293c-0.072,0.363-0.16,0.721-0.238,1.082c-0.336,1.566-0.67,3.133-1.002,4.699
	c-0.244,1.147-0.482,2.295-0.729,3.442c-0.041,0.197,0.029,0.27,0.223,0.269c0.656-0.003,1.314,0.002,1.969,0
	c0.375,0,0.426-0.046,0.502-0.421c0.449-2.185,0.9-4.369,1.35-6.553c0.074-0.356,0.123-0.395,0.498-0.395
	c1.768,0,3.537,0,5.305-0.001c0.258,0,0.316-0.069,0.258-0.321c-0.076-0.322-0.154-0.644-0.24-0.962
	c-0.137-0.498-0.445-0.844-0.947-0.988c-0.242-0.069-0.496-0.139-0.746-0.143C-43.922,72.288-47.799,72.311-48.787,72.304z
	 M-90.038,86.076c0.278,0,0.557,0.001,0.834,0c1.168-0.007,2.04-0.507,2.592-1.548c0.331-0.624,0.552-1.289,0.703-1.974
	c0.513-2.316,1.015-4.634,1.519-6.951c0.052-0.236-0.018-0.313-0.285-0.314c-0.688-0.003-1.375-0.001-2.062-0.001
	c-0.342,0-0.419,0.057-0.492,0.39c-0.425,1.949-0.852,3.897-1.268,5.849c-0.127,0.593-0.289,1.166-0.674,1.652
	c-0.219,0.276-0.484,0.444-0.856,0.403c-0.152-0.017-0.31,0.009-0.463-0.006c-0.25-0.025-0.364,0.091-0.416,0.324
	c-0.139,0.616-0.287,1.229-0.431,1.844c-0.06,0.252-0.028,0.307,0.234,0.317c0.354,0.013,0.71,0.004,1.064,0.004
	C-90.038,86.067-90.038,86.072-90.038,86.076z M-84.488,74.633c0.211,0.005,0.333-0.08,0.377-0.287
	c0.13-0.609,0.257-1.219,0.396-1.827c0.047-0.203-0.029-0.271-0.219-0.271c-0.748,0.002-1.497,0.002-2.245-0.001
	c-0.188,0-0.281,0.095-0.32,0.267c-0.138,0.607-0.277,1.215-0.412,1.823c-0.05,0.224,0.008,0.291,0.248,0.292
	c0.363,0.003,0.726,0,1.088,0C-85.212,74.631-84.85,74.625-84.488,74.633z"/>
<g>
	<polygon opacity="0.4" fill="#EAAF78" points="-18.946,27.004 -27.429,24.653 -29.425,2.295 -18.946,2.295 	"/>
	<path fill="#E44F26" d="M-31.764,0.156l2.332,26.167l10.47,2.906l10.498-2.91l2.335-26.163H-31.764z M-10.995,6.366l-0.146,1.627
		l-0.064,0.722h-0.01h-7.731h-0.011h-4.528L-23.192,12h4.235h0.011h6.585h0.863l-0.078,0.861l-0.754,8.45l-0.048,0.542l-6.568,1.821
		l-0.015,0.004l-6.574-1.825l-0.449-5.039h1.484h1.736l0.229,2.559l3.573,0.966l0.004-0.001v0l0.01-0.002l0.001,0l3.568-0.963
		l0.372-4.162h-3.94h-0.011h-7.172l-0.788-8.844l-0.077-0.861h8.037h0.011h8.028L-10.995,6.366z"/>
	<g>
		<polygon opacity="0.4" fill="#EAAF78" points="-15.006,15.209 -18.946,15.209 -18.946,20.335 -15.378,19.372 		"/>
		<polygon opacity="0.4" fill="#EAAF78" points="-18.946,2.295 -18.946,5.505 -10.918,5.505 -10.995,6.366 -11.141,7.993 
			-11.205,8.714 -11.215,8.714 -18.946,8.714 -18.946,12 -12.361,12 -11.498,12 -11.576,12.862 -12.33,21.312 -12.378,21.854 
			-18.946,23.674 -18.946,27.004 -10.464,24.653 -8.468,2.295 		"/>
	</g>
</g>
<g>
	<path id="Shape_1_" opacity="0.3" fill="#35A9DA" d="M-50.711,27.642l-8.478-2.352l-1.996-22.357h10.474V27.642z"/>
	<path fill="#1673B6" d="M-63.535,0.792l2.333,26.167l10.469,2.906l10.498-2.91l2.336-26.163H-63.535z M-44.13,22.265l-6.581,1.824
		v0.001l-6.576-1.825l-0.449-5.039h3.222l0.229,2.56l3.575,0.965V20.75l3.581-0.966l0.374-4.163h-3.955h-3.525h-0.01l-0.288-3.208
		h3.823h4.24l0.293-3.288h-4.533h-7.737h-0.01l-0.288-3.208h8.035h8.041L-44.13,22.265z"/>
	<path fill="#35A9DA" d="M-46.471,12.413h-4.24V9.125h4.533L-46.471,12.413z M-46.756,15.621h-3.955v5.129l3.581-0.966
		L-46.756,15.621z M-50.711,2.932v2.984h8.041l-1.46,16.349l-6.581,1.824v0.001v3.551l8.477-2.352l1.996-22.357H-50.711z"/>
</g>
<path fill="#F0DC4E" d="M0,0v29.073h29.074V0H0z M15.325,24.9c-0.429,0.871-1.247,1.442-2.194,1.719
	c-1.457,0.334-2.85,0.144-3.886-0.478c-0.694-0.426-1.235-1.081-1.604-1.835c0.738-0.451,1.474-0.904,2.211-1.354
	c0.02,0.008,0.077,0.113,0.155,0.249c0.281,0.473,0.524,0.807,1.003,1.042c0.47,0.16,1.501,0.262,1.898-0.564
	c0.243-0.42,0.166-1.791,0.166-3.286c0-2.349,0.011-4.682,0.011-7.03h2.72c0,2.501,0.014,4.994,0,7.486
	C15.812,22.377,15.943,23.759,15.325,24.9z M26.606,24.132c-0.945,3.234-6.216,3.339-8.322,1.202
	c-0.444-0.503-0.724-0.765-0.989-1.346c1.119-0.644,1.119-0.644,2.208-1.274c0.592,0.909,1.139,1.409,2.123,1.614
	c1.335,0.163,2.678-0.295,2.377-1.713c-0.31-1.158-2.733-1.44-4.384-2.678c-1.675-1.125-2.067-3.858-0.69-5.42
	c0.459-0.578,1.24-1.009,2.062-1.216c0.284-0.036,0.572-0.075,0.856-0.11c1.645-0.033,2.673,0.4,3.427,1.244
	c0.211,0.212,0.382,0.442,0.702,0.939c-0.876,0.558-0.873,0.553-2.128,1.365c-0.268-0.578-0.713-0.939-1.183-1.097
	c-0.729-0.221-1.65,0.02-1.841,0.791c-0.066,0.237-0.053,0.458,0.053,0.851c0.296,0.674,1.288,0.967,2.178,1.376
	c2.562,1.039,3.427,2.153,3.64,3.479C26.898,23.281,26.645,24.021,26.606,24.132z"/>
</svg>
