<?xml version="1.0" encoding="utf-8"?>
<!-- Generator: Adobe Illustrator 16.0.0, SVG Export Plug-In . SVG Version: 6.00 Build 0)  -->
<!DOCTYPE svg PUBLIC "-//W3C//DTD SVG 1.1//EN" "http://www.w3.org/Graphics/SVG/1.1/DTD/svg11.dtd">
<svg version="1.1" id="Layer_1" xmlns="http://www.w3.org/2000/svg" xmlns:xlink="http://www.w3.org/1999/xlink" x="0px" y="0px"
	 width="33.081px" height="29.314px" viewBox="0 0 33.081 29.314" enable-background="new 0 0 33.081 29.314" xml:space="preserve">
<g>
	<path fill="#010101" d="M31.953,14.343l-0.004-0.002l0.023-0.138c-2.542-0.622-2.853-0.628-4.783-0.548
		c0.318-1.143,0.413-2.458,0.413-3.923c0-2.103-0.79-3.785-2.072-5.065c0.224-0.723,0.523-2.33-0.299-4.386
		c0,0-1.45-0.46-4.733,1.736c-1.284-0.321-2.652-0.48-4.022-0.48c-1.509,0-3.031,0.192-4.451,0.582
		c-3.387-2.31-4.883-1.837-4.883-1.837C6.167,2.722,6.77,4.528,6.954,4.977C5.807,6.215,5.106,7.795,5.106,9.732
		c0,1.462,0.166,2.774,0.573,3.915c-1.946-0.071-2.12-0.043-4.571,0.556l0.022,0.139c2.466-0.603,2.667-0.624,4.603-0.551
		c0.089,0.236,0.189,0.466,0.301,0.687c-1.913,0.061-2.316,0.305-4.875,1.188l0.031,0.136c2.581-0.89,3.022-1.127,4.917-1.186
		c1.143,2.131,3.396,3.507,7.406,3.94c-0.568,0.382-1.149,1.032-1.385,2.132c-0.775,0.371-3.23,1.276-4.704-1.257
		c0,0-0.824-1.507-2.403-1.625c0,0-1.529-0.023-0.104,0.954c0,0,1.024,0.483,1.731,2.296c0,0,0.922,3.094,5.371,2.102v3.196
		c0,0-0.093,1.13-1.13,1.507c0,0-0.613,0.424,0.047,0.659c0,0,2.872,0.235,2.872-2.119v-3.485c0,0-0.113-1.382,0.565-1.862v5.724
		c0,0-0.047,1.366-0.753,1.884c0,0-0.471,0.848,0.564,0.613c0,0,1.979-0.283,2.072-2.59l0.045-5.793h0.476l0.046,5.793
		c0.094,2.308,2.071,2.59,2.071,2.59c1.036,0.235,0.564-0.613,0.564-0.613c-0.705-0.518-0.753-1.884-0.753-1.884v-5.674
		c0.679,0.528,0.565,1.813,0.565,1.813V26.4c0,2.355,2.873,2.119,2.873,2.119c0.658-0.235,0.047-0.659,0.047-0.659
		c-1.036-0.377-1.13-1.507-1.13-1.507v-4.569c0-1.781-0.752-2.724-1.485-3.223c4.277-0.424,6.329-1.805,7.274-3.95
		c1.873,0.051,2.403,0.279,5.039,1.189l0.031-0.136c-2.621-0.904-3.118-1.138-5.01-1.193c0.089-0.217,0.168-0.442,0.237-0.674
		C29.07,13.718,29.402,13.719,31.953,14.343z M5.706,18.183C5.706,18.183,5.706,18.183,5.706,18.183
		c0,0.117-0.138,0.211-0.308,0.211c-0.168,0-0.305-0.094-0.305-0.212c0-0.117,0.137-0.212,0.305-0.212
		C5.568,17.97,5.706,18.065,5.706,18.183L5.706,18.183L5.706,18.183z M5.94,18.653c0-0.117,0.139-0.211,0.308-0.211
		c0.168,0,0.305,0.094,0.306,0.212v0v0.001v0c-0.001,0.118-0.138,0.211-0.306,0.211C6.079,18.865,5.94,18.771,5.94,18.653z
		 M6.46,19.266c0-0.117,0.136-0.212,0.306-0.212c0.169,0,0.307,0.095,0.307,0.212c0,0,0,0,0,0v0l0,0
		c0,0.117-0.138,0.211-0.307,0.211C6.596,19.478,6.46,19.383,6.46,19.266z M7.235,20.184c-0.168,0-0.305-0.095-0.305-0.212
		c0-0.117,0.137-0.212,0.305-0.212c0.17,0,0.308,0.095,0.308,0.212C7.543,20.089,7.405,20.184,7.235,20.184z M8.061,20.632
		L8.061,20.632c0,0.116-0.139,0.211-0.307,0.211s-0.307-0.095-0.307-0.211c0-0.117,0.139-0.212,0.307-0.212
		S8.061,20.515,8.061,20.632C8.061,20.632,8.061,20.632,8.061,20.632L8.061,20.632z M8.768,21.197L8.768,21.197
		c0,0.117-0.138,0.211-0.306,0.211c-0.17,0-0.307-0.094-0.307-0.212c0-0.117,0.137-0.212,0.307-0.212
		C8.63,20.984,8.768,21.079,8.768,21.197C8.768,21.196,8.768,21.196,8.768,21.197L8.768,21.197z M9.757,21.574
		C9.757,21.574,9.757,21.574,9.757,21.574c0,0.116-0.138,0.211-0.308,0.211c-0.168,0-0.306-0.095-0.306-0.211
		c0-0.117,0.138-0.212,0.306-0.212C9.619,21.361,9.757,21.456,9.757,21.574L9.757,21.574L9.757,21.574z M10.741,21.574
		C10.741,21.574,10.741,21.574,10.741,21.574c0,0.116-0.137,0.211-0.307,0.211c-0.169,0-0.305-0.095-0.305-0.211
		c0-0.117,0.136-0.212,0.305-0.212C10.604,21.361,10.741,21.456,10.741,21.574L10.741,21.574L10.741,21.574z M11.434,21.622
		c-0.169,0-0.306-0.094-0.306-0.211c0-0.118,0.137-0.212,0.306-0.212c0.17,0,0.307,0.095,0.307,0.212
		C11.74,21.527,11.604,21.622,11.434,21.622z M16.44,17.767c-4.661,0-8.44-0.702-8.44-5.207c0-1.078,0.532-2.08,1.441-2.911
		c1.518-1.385,4.086-0.652,6.999-0.652c2.9,0,5.46-0.741,6.979,0.634l0.001,0c0.921,0.834,1.459,1.842,1.459,2.928
		C24.88,17.629,21.102,17.767,16.44,17.767z"/>
	<path opacity="0.4" fill="#F4CBB3" d="M23.421,9.633L23.421,9.633c-1.521-1.376-4.08-0.635-6.98-0.635
		c-2.913,0-5.481-0.733-6.999,0.652C8.532,10.481,8,11.482,8,12.561c0,4.505,3.779,5.207,8.44,5.207s8.439-0.138,8.439-5.207
		C24.88,11.475,24.342,10.467,23.421,9.633z M11.877,15.346c-0.97,0-1.755-1.131-1.755-2.528c0-1.396,0.785-2.527,1.755-2.527
		c0.97,0.001,1.757,1.131,1.757,2.527C13.634,14.215,12.847,15.346,11.877,15.346z M21.299,15.346c-0.97,0-1.756-1.131-1.756-2.528
		c0-1.396,0.786-2.527,1.756-2.527c0.97,0.001,1.757,1.131,1.757,2.527C23.056,14.215,22.269,15.346,21.299,15.346z"/>
	<path fill="#AE5D52" d="M13.07,12.851c0,0.931-0.524,1.685-1.171,1.685c-0.646,0-1.17-0.754-1.17-1.685
		c0-0.931,0.523-1.686,1.17-1.686S13.07,11.919,13.07,12.851L13.07,12.851z M22.491,12.851c0,0.931-0.523,1.685-1.17,1.685
		s-1.171-0.754-1.171-1.685c0-0.931,0.524-1.686,1.171-1.686C21.966,11.165,22.491,11.919,22.491,12.851L22.491,12.851z
		 M16.468,14.624c0.241,0,0.438,0.197,0.438,0.439c0,0.243-0.197,0.439-0.438,0.439c-0.243,0-0.439-0.197-0.439-0.439
		C16.028,14.821,16.225,14.624,16.468,14.624z M15.442,16.174c-0.026-0.073,0.013-0.154,0.087-0.18
		c0.073-0.026,0.153,0.013,0.179,0.085c0.113,0.319,0.416,0.534,0.754,0.534s0.64-0.215,0.752-0.534
		c0.027-0.073,0.107-0.112,0.181-0.085c0.074,0.025,0.112,0.106,0.087,0.18c-0.153,0.432-0.563,0.721-1.02,0.721
		C16.005,16.895,15.596,16.607,15.442,16.174L15.442,16.174z"/>
	<path id="drop" fill="#9EDAF1" d="M4.58,18.811l-0.305,1.066c0,0-0.08,0.385,0.283,0.453c0.379-0.007,0.348-0.362,0.32-0.477
		L4.58,18.811z"/>
</g>
<g>
	<path fill-rule="evenodd" clip-rule="evenodd" fill="#273319" d="M16.26-53.45c0-0.314-0.164-0.603-0.437-0.759l-7.225-4.159
		c-0.124-0.072-0.26-0.109-0.398-0.116c-0.014,0-0.066,0-0.076,0c-0.138,0.006-0.274,0.044-0.399,0.116l-7.227,4.159
		c-0.27,0.156-0.437,0.445-0.437,0.759l0.016,11.2c0,0.155,0.082,0.299,0.218,0.376c0.134,0.08,0.3,0.08,0.433,0l4.295-2.459
		c0.272-0.161,0.437-0.446,0.437-0.758v-5.232c0-0.312,0.166-0.6,0.436-0.755l1.829-1.054c0.136-0.079,0.285-0.117,0.438-0.117
		c0.149,0,0.302,0.039,0.436,0.117l1.827,1.054c0.27,0.156,0.437,0.444,0.437,0.755v5.232c0,0.312,0.167,0.599,0.437,0.758
		l4.295,2.459c0.135,0.08,0.303,0.08,0.437,0c0.131-0.077,0.218-0.221,0.218-0.376L16.26-53.45z"/>
	<path fill-rule="evenodd" clip-rule="evenodd" fill="#273319" d="M54.852-68.845c-0.136-0.075-0.301-0.074-0.435,0.005
		c-0.133,0.078-0.215,0.221-0.215,0.376v11.091c0,0.109-0.059,0.209-0.152,0.265c-0.094,0.054-0.212,0.054-0.307,0l-1.809-1.043
		c-0.271-0.156-0.604-0.156-0.873,0l-7.23,4.172c-0.27,0.157-0.437,0.445-0.437,0.757v8.347c0,0.311,0.167,0.6,0.437,0.756
		l7.23,4.176c0.269,0.156,0.603,0.156,0.873,0l7.232-4.176c0.27-0.156,0.434-0.445,0.434-0.756v-20.807
		c0-0.316-0.17-0.608-0.445-0.762L54.852-68.845z M54.179-47.618c0,0.078-0.04,0.149-0.107,0.189l-2.483,1.431
		c-0.067,0.039-0.149,0.039-0.217,0l-2.483-1.431c-0.068-0.04-0.11-0.111-0.11-0.189v-2.866c0-0.078,0.042-0.15,0.11-0.189
		l2.483-1.435c0.067-0.039,0.149-0.039,0.219,0l2.481,1.435c0.067,0.039,0.107,0.111,0.107,0.189V-47.618z"/>
	<path fill-rule="evenodd" clip-rule="evenodd" fill="#273319" d="M80.719-50.559c0.268-0.156,0.432-0.444,0.432-0.755v-2.022
		c0-0.312-0.164-0.6-0.432-0.755l-7.186-4.171c-0.27-0.158-0.604-0.158-0.873-0.001l-7.23,4.172
		c-0.27,0.156-0.436,0.444-0.436,0.756v8.345c0,0.313,0.168,0.603,0.441,0.758l7.182,4.093c0.266,0.151,0.592,0.152,0.857,0.004
		l4.342-2.415c0.141-0.077,0.225-0.221,0.225-0.378c0.002-0.158-0.082-0.304-0.219-0.382l-7.271-4.175
		c-0.135-0.078-0.221-0.223-0.221-0.378v-2.615c0-0.156,0.086-0.3,0.219-0.377l2.264-1.306c0.135-0.078,0.301-0.078,0.438,0
		l2.262,1.306c0.137,0.077,0.221,0.222,0.221,0.377v2.058c0,0.156,0.082,0.3,0.219,0.377c0.135,0.078,0.303,0.078,0.436,0
		L80.719-50.559z"/>
	<path fill-rule="evenodd" clip-rule="evenodd" fill="#8EC74E" d="M29.407-58.309c0.271-0.155,0.602-0.155,0.873,0l7.228,4.172
		c0.271,0.156,0.438,0.444,0.438,0.756v8.35c0,0.313-0.166,0.6-0.437,0.757L30.281-40.1c-0.273,0.157-0.604,0.157-0.875,0
		l-7.228-4.174c-0.271-0.156-0.437-0.444-0.437-0.757v-8.351c0-0.312,0.166-0.6,0.439-0.755L29.407-58.309z"/>
	<path fill="#8EC74E" d="M94.752-39.98c-0.248,0-0.496-0.065-0.713-0.191l-2.277-1.347c-0.34-0.19-0.174-0.257-0.062-0.296
		c0.455-0.157,0.545-0.193,1.031-0.468c0.049-0.028,0.115-0.018,0.168,0.013l1.748,1.039c0.062,0.035,0.152,0.035,0.213,0
		l6.816-3.935c0.062-0.036,0.102-0.109,0.102-0.184v-7.868c0-0.076-0.039-0.148-0.104-0.187l-6.814-3.931
		c-0.062-0.037-0.146-0.037-0.209,0l-6.814,3.933c-0.066,0.037-0.107,0.111-0.107,0.186v7.868c0,0.075,0.041,0.146,0.107,0.182
		l1.867,1.08c1.014,0.506,1.635-0.091,1.635-0.69v-7.768c0-0.109,0.086-0.195,0.197-0.195H92.4c0.107,0,0.197,0.086,0.197,0.195
		v7.768c0,1.353-0.736,2.127-2.018,2.127c-0.395,0-0.703,0-1.572-0.426l-1.787-1.03c-0.441-0.254-0.715-0.731-0.715-1.243v-7.868
		c0-0.511,0.273-0.987,0.715-1.242l6.818-3.939c0.43-0.244,1.002-0.244,1.432,0l6.816,3.939c0.441,0.255,0.715,0.731,0.715,1.242
		v7.868c0,0.511-0.273,0.986-0.715,1.243l-6.816,3.936C95.252-40.045,95.004-39.98,94.752-39.98z"/>
	<path fill="#8EC74E" d="M96.857-45.4c-2.982,0-3.607-1.369-3.607-2.518c0-0.108,0.088-0.196,0.197-0.196h0.883
		c0.098,0,0.178,0.071,0.195,0.167c0.133,0.897,0.529,1.35,2.332,1.35c1.438,0,2.049-0.324,2.049-1.087
		c0-0.439-0.174-0.765-2.406-0.984c-1.863-0.184-3.02-0.596-3.02-2.087c0-1.376,1.16-2.196,3.104-2.196
		c2.186,0,3.266,0.757,3.402,2.384c0.004,0.056-0.014,0.11-0.051,0.151c-0.039,0.04-0.09,0.063-0.146,0.063h-0.885
		c-0.092,0-0.172-0.066-0.191-0.154c-0.211-0.945-0.729-1.247-2.129-1.247c-1.568,0-1.75,0.548-1.75,0.956
		c0,0.496,0.217,0.641,2.334,0.92c2.094,0.278,3.09,0.669,3.09,2.142C100.258-46.251,99.018-45.4,96.857-45.4z"/>
	<path fill-rule="evenodd" clip-rule="evenodd" fill="#8EC74E" d="M72.988-50.951c0.053-0.03,0.117-0.03,0.168,0l1.387,0.801
		c0.053,0.029,0.084,0.085,0.084,0.145v1.602c0,0.06-0.031,0.115-0.084,0.144l-1.387,0.801c-0.051,0.029-0.115,0.029-0.168,0
		l-1.385-0.801c-0.055-0.029-0.084-0.084-0.084-0.144v-1.602c0-0.06,0.029-0.116,0.084-0.145L72.988-50.951z"/>
</g>
<path fill="#E93135" d="M185.684-21.064l-12.694-12.694c-0.73-0.73-1.916-0.73-2.647,0l-2.636,2.637l3.343,3.344
	c0.777-0.263,1.669-0.087,2.288,0.533c0.623,0.623,0.798,1.521,0.528,2.302l3.223,3.223c0.78-0.269,1.679-0.096,2.303,0.528
	c0.87,0.87,0.87,2.279,0,3.151c-0.871,0.87-2.281,0.87-3.151,0c-0.655-0.655-0.816-1.618-0.484-2.424l-3.007-3.006v7.909
	c0.212,0.104,0.412,0.245,0.589,0.421c0.87,0.871,0.87,2.28,0,3.152c-0.87,0.869-2.28,0.869-3.15,0c-0.87-0.872-0.87-2.281,0-3.152
	c0.216-0.214,0.464-0.377,0.729-0.485v-7.982c-0.266-0.109-0.514-0.271-0.729-0.486c-0.658-0.658-0.818-1.626-0.479-2.436
	l-3.298-3.297l-8.704,8.703c-0.731,0.732-0.731,1.918,0,2.649l12.695,12.693c0.729,0.731,1.916,0.731,2.647,0l12.635-12.635
	C186.415-19.147,186.415-20.333,185.684-21.064z"/>
<path fill="#CC3937" d="M109.329-69.091v24.914h20.727v4.159h16.552v-4.159h37.278v-24.914H109.329z M130.056-48.365h-4.173v-12.378
	h-4.175v12.378h-8.174v-16.538h16.521V-48.365z M150.783-48.365h-8.205v4.188h-8.318v-20.726h16.523V-48.365z M179.856-48.365
	h-4.176v-12.378h-4.173v12.378h-4.172v-12.378h-4.176v12.378h-8.203v-16.538h24.899V-48.365z M146.607-52.539h-4.029v-8.204h4.029
	V-52.539z"/>
<g>
	<path fill="#6863A3" d="M50.062,26.102v-10.32c0-0.727-0.534-1.042-1.162-1.042c-1.26,0-2.834,0.315-4.265,0.944v10.418H41.73
		V6.939h2.905v6.323c1.381-0.509,3.029-0.945,4.677-0.945c2.64,0,3.634,1.624,3.634,3.851v9.934H50.062L50.062,26.102z
		 M58.373,19.852c0.095,3.464,0.773,4.142,2.905,4.142c1.67,0,3.562-0.557,5.014-1.115l0.486,2.181
		c-1.552,0.703-3.44,1.381-5.695,1.381c-4.846,0-5.597-2.665-5.597-6.905c0-2.324,0.171-4.432,0.729-6.37
		c1.452-0.558,3.391-0.849,5.838-0.849c3.974,0,5.183,2.205,5.183,6.057v1.478H58.373L58.373,19.852z M62.054,14.74
		c-0.87,0-2.256,0.024-3.392,0.241c-0.12,0.582-0.268,1.382-0.316,2.86h6.059C64.404,15.83,64.04,14.74,62.054,14.74L62.054,14.74z
		 M72.688,15.684v10.418H69.78V14.377c2.446-1.333,5.039-1.745,6.736-1.866v2.423C75.326,15.031,73.824,15.176,72.688,15.684
		L72.688,15.684z M84.194,26.441c-4.338,0-6.299-2.131-6.299-7.001c0-5.16,2.59-7.123,6.299-7.123c4.335,0,6.297,2.132,6.297,7.001
		C90.491,24.479,87.899,26.441,84.194,26.441L84.194,26.441z M84.194,14.74c-2.229,0-3.464,1.284-3.464,4.7
		c0,3.731,1.041,4.554,3.464,4.554c2.228,0,3.462-1.26,3.462-4.675C87.656,15.587,86.617,14.74,84.194,14.74L84.194,14.74z
		 M104.516,26.102h-3.415c-0.797-2.131-1.912-4.312-3.632-6.202H95.94v6.202h-2.905V6.939h2.905v10.998h1.357
		c1.478-1.526,2.616-3.416,3.416-5.282h3.27c-1.112,2.254-2.543,4.24-4.142,5.864C101.756,20.942,103.257,23.51,104.516,26.102
		L104.516,26.102z M109.967,26.441c-2.641,0-3.634-1.623-3.634-3.851v-9.935h2.884v10.296c0,0.729,0.532,1.042,1.16,1.042
		c1.261,0,2.98-0.314,4.411-0.944V12.656h2.905v11.679C114.255,26.224,111.614,26.441,109.967,26.441L109.967,26.441z"/>
</g>
<g id="Page_1">
	<path id="Rectangle_1" fill="#010101" d="M11.765-26.878H7.113v15.46h4.848v-8.584l4.615,5.538l4.395-5.538v8.584h4.604v-15.46
		h-4.604l-4.395,5.722L11.765-26.878z M4.068-33.662h40.059c2.038,0,3.691,1.652,3.691,3.691v21.69c0,2.039-1.652,3.691-3.691,3.691
		H4.068c-2.037,0-3.69-1.652-3.69-3.691v-21.69C0.378-32.009,2.03-33.662,4.068-33.662z M33.604-26.786h-0.046v7.938h-4.431
		l6.831,7.43l6.83-7.476h-4.614v-7.892H33.604z"/>
</g>
<path fill="#2CAAE1" d="M19.833,37.11c-0.745,0.33-1.546,0.554-2.388,0.654c0.859-0.514,1.518-1.328,1.828-2.299
	c-0.804,0.477-1.693,0.822-2.639,1.009c-0.759-0.808-1.838-1.312-3.033-1.312c-2.295,0-4.155,1.86-4.155,4.155
	c0,0.325,0.036,0.643,0.108,0.947C6.1,40.09,3.039,38.436,0.989,35.922c-0.357,0.613-0.562,1.327-0.562,2.089
	c0,1.441,0.733,2.714,1.849,3.459c-0.681-0.021-1.322-0.209-1.883-0.521c0,0.018,0,0.035,0,0.053c0,2.013,1.433,3.692,3.334,4.074
	c-0.35,0.095-0.717,0.146-1.095,0.146c-0.269,0-0.528-0.026-0.782-0.074c0.529,1.65,2.063,2.852,3.882,2.886
	c-1.423,1.114-3.214,1.779-5.161,1.779c-0.335,0-0.666-0.021-0.991-0.059c1.839,1.179,4.023,1.866,6.37,1.866
	c7.643,0,11.822-6.331,11.822-11.822c0-0.18-0.004-0.359-0.012-0.537C18.571,38.675,19.275,37.944,19.833,37.11z"/>
<g>
	<g>
		<path fill="#5A5B5D" d="M100.122,34.433h-6.046v15.676h5.957c5.644,0,8.935-3.359,8.935-7.882v-0.045
			C108.969,37.657,105.722,34.433,100.122,34.433z M104.511,42.293c0,2.53-1.724,3.964-4.32,3.964h-1.77v-7.973h1.77
			c2.597,0,4.32,1.456,4.32,3.964V42.293z M111.857,50.107h4.365V34.433h-4.365V50.107z M126.301,40.345
			c-2.173-0.493-2.71-0.807-2.71-1.523v-0.045c0-0.56,0.516-1.007,1.567-1.007c1.389,0,2.956,0.537,4.39,1.546l2.172-3.069
			c-1.702-1.366-3.785-2.083-6.449-2.083c-3.762,0-6.068,2.105-6.068,5.017v0.045c0,3.225,2.575,4.166,5.911,4.926
			c2.128,0.493,2.643,0.851,2.643,1.501v0.044c0,0.672-0.627,1.075-1.791,1.075c-1.813,0-3.538-0.649-5.083-1.881l-2.42,2.889
			c1.927,1.724,4.569,2.598,7.346,2.598c3.807,0,6.337-1.904,6.337-5.106v-0.044C132.145,42.293,129.905,41.129,126.301,40.345z
			 M151.157,42.271v-0.044c0-4.501-3.582-8.107-8.42-8.107c-4.837,0-8.464,3.65-8.464,8.151v0.045c0,4.501,3.582,8.106,8.419,8.106
			c1.792,0,3.427-0.515,4.771-1.389l1.724,1.545l2.194-2.44l-1.611-1.366C150.665,45.495,151.157,43.927,151.157,42.271z
			 M146.746,42.36c0,0.538-0.089,1.052-0.269,1.522l-2.128-1.926l-2.194,2.463l2.172,1.86c-0.47,0.179-1.007,0.291-1.589,0.291
			c-2.396,0-4.009-1.993-4.009-4.255v-0.045c0-2.261,1.59-4.233,3.963-4.233c2.419,0,4.055,1.994,4.055,4.278L146.746,42.36
			L146.746,42.36z M163.967,43.256c0,2.194-1.143,3.224-2.889,3.224s-2.89-1.075-2.89-3.336v-8.711h-4.411v8.801
			c0,4.905,2.799,7.167,7.256,7.167s7.345-2.217,7.345-7.278v-8.689h-4.411V43.256z M178.164,40.345
			c-2.172-0.493-2.71-0.807-2.71-1.523v-0.045c0-0.56,0.516-1.007,1.568-1.007c1.388,0,2.956,0.537,4.389,1.546l2.172-3.068
			c-1.701-1.366-3.783-2.083-6.448-2.083c-3.762,0-6.069,2.104-6.069,5.017v0.044c0,3.225,2.576,4.165,5.912,4.926
			c2.128,0.493,2.643,0.851,2.643,1.5v0.044c0,0.672-0.627,1.075-1.792,1.075c-1.813,0-3.538-0.649-5.084-1.881l-2.418,2.889
			c1.926,1.725,4.569,2.598,7.345,2.598c3.807,0,6.338-1.904,6.338-5.106v-0.045C184.009,42.293,181.77,41.129,178.164,40.345z"/>
	</g>
</g>
<path d="M42.5,48.01c-0.585-0.026-1.187-0.13-1.741-0.315c-1.374-0.455-2.123-1.474-2.374-2.875
	c-0.24-1.348-0.013-2.658,0.359-3.951c0.364-1.267,0.907-2.439,1.806-3.426c0.931-1.021,2.091-1.615,3.446-1.824
	c1.215-0.188,2.423-0.151,3.573,0.325c1.596,0.66,2.428,1.902,2.639,3.592c0.136,1.082-0.161,2.099-0.487,3.104
	c-0.282,0.871-0.615,1.726-0.928,2.586c-0.091,0.251-0.061,0.305,0.203,0.307c0.286,0.002,0.571,0.004,0.857,0
	c0.176-0.003,0.249,0.086,0.209,0.246c-0.172,0.679-0.35,1.356-0.539,2.031c-0.021,0.075-0.132,0.142-0.216,0.18
	c-0.073,0.033-0.166,0.025-0.251,0.025C47.968,48.016,43.595,48.059,42.5,48.01z M45.597,45.449c0.39,0,0.418-0.023,0.524-0.402
	c0.319-1.134,0.66-2.261,0.948-3.403c0.126-0.503,0.204-1.033,0.2-1.55c-0.008-1.021-0.587-1.71-1.549-1.912
	c-0.306-0.063-0.629-0.074-0.943-0.066c-0.938,0.025-1.717,0.392-2.294,1.148c-0.442,0.581-0.697,1.249-0.88,1.946
	c-0.229,0.884-0.409,1.774-0.254,2.695c0.141,0.835,0.617,1.371,1.45,1.488C43.314,45.467,45.188,45.449,45.597,45.449z
	 M66.738,44.016c-0.943,0-1.887,0-2.83,0c-0.305,0-0.4,0.096-0.408,0.397c-0.016,0.687,0.336,1.071,1.08,1.16
	c0.268,0.032,0.539,0.049,0.807,0.05c1.236,0.005,2.473,0.002,3.709,0.002c0.295,0,0.332,0.052,0.271,0.346
	c-0.119,0.572-0.232,1.146-0.346,1.718c-0.066,0.327-0.133,0.388-0.459,0.389c-1.438,0.002-2.873,0.012-4.311,0.001
	c-0.689-0.006-1.365-0.128-2-0.417c-0.895-0.407-1.373-1.115-1.477-2.081c-0.141-1.303,0.172-2.546,0.547-3.771
	c0.156-0.512,0.377-1.012,0.637-1.481c0.5-0.912,1.256-1.562,2.24-1.909c1.406-0.493,2.842-0.556,4.277-0.165
	c1.164,0.317,1.816,1.171,1.893,2.375c0.064,1.085-0.152,2.132-0.424,3.173c-0.049,0.191-0.191,0.214-0.359,0.214
	C68.639,44.014,67.686,44.016,66.738,44.016z M65.76,41.972c0.51,0,1.02-0.003,1.529,0.001c0.189,0.002,0.303-0.077,0.338-0.271
	c0.1-0.565-0.184-1.074-0.744-1.214c-0.344-0.086-0.717-0.116-1.072-0.093c-0.828,0.053-1.441,0.452-1.77,1.24
	c-0.117,0.282-0.08,0.336,0.236,0.337C64.771,41.973,65.264,41.972,65.76,41.972z M56.125,47.986c0.787,0,1.576-0.003,2.363,0.002
	c0.229,0.001,0.359-0.081,0.4-0.319c0.053-0.311,0.131-0.617,0.197-0.926c0.588-2.75,1.178-5.501,1.764-8.251
	c0.055-0.25-0.008-0.328-0.262-0.329c-0.594-0.002-1.189,0-1.783,0c-0.453,0-0.48,0.026-0.576,0.472
	c-0.475,2.214-0.957,4.428-1.428,6.643c-0.049,0.233-0.174,0.316-0.395,0.316s-1.121,0-1.667,0c-0.546,0-0.912-0.357-0.956-0.96
	c-0.009-0.13-0.003-0.264,0.02-0.392c0.134-0.758,0.267-1.518,0.416-2.273c0.229-1.148,0.471-2.294,0.705-3.441
	c0.063-0.311,0.016-0.365-0.309-0.365c-0.633,0-1.267,0-1.899,0c-0.299,0-0.361,0.055-0.422,0.343
	c-0.301,1.431-0.606,2.862-0.907,4.294c-0.199,0.953-0.376,1.905-0.26,2.889c0.156,1.32,0.987,2.172,2.313,2.247
	c0.892,0.05,1.79,0.009,2.685,0.009C56.125,47.958,56.125,47.972,56.125,47.986z M81.166,42.611
	c-0.086-0.36-0.176-0.719-0.248-1.081c-0.047-0.226-0.158-0.321-0.396-0.318c-0.771,0.011-1.545,0.004-2.316,0.005
	c-0.301,0-0.334,0.045-0.246,0.345c0.348,1.236,0.711,2.471,1.045,3.712c0.059,0.226,0.059,0.489,0.01,0.719
	c-0.117,0.565-0.283,1.119-0.426,1.679c-0.062,0.244-0.006,0.313,0.242,0.314c0.779,0.001,1.559-0.003,2.338,0.002
	c0.215,0.001,0.326-0.094,0.377-0.297c0.086-0.367,0.176-0.734,0.279-1.096c0.127-0.447,0.195-0.909,0.494-1.305
	c2.09-2.754,6.107-8.098,6.246-8.279c0.135-0.182,0.094-0.28-0.154-0.28c-0.25,0-2.227,0-2.527,0c-0.299,0-0.525,0.104-0.705,0.371
	c-1.23,1.822-2.471,3.635-3.711,5.451c-0.061,0.085-0.127,0.165-0.221,0.287C81.207,42.732,81.182,42.673,81.166,42.611z
	 M72.904,38.2c-0.225-0.002-0.342,0.075-0.387,0.293c-0.072,0.363-0.16,0.721-0.238,1.082c-0.336,1.566-0.67,3.133-1.002,4.699
	c-0.244,1.147-0.482,2.295-0.729,3.442c-0.041,0.197,0.029,0.27,0.223,0.269c0.656-0.003,1.314,0.002,1.969,0
	c0.375,0,0.426-0.046,0.502-0.421c0.449-2.185,0.9-4.369,1.35-6.553c0.074-0.356,0.123-0.395,0.498-0.395
	c1.768,0,3.537,0,5.305-0.001c0.258,0,0.316-0.069,0.258-0.321c-0.076-0.322-0.154-0.644-0.24-0.962
	c-0.137-0.498-0.445-0.844-0.947-0.988c-0.242-0.069-0.496-0.139-0.746-0.143C77.77,38.184,73.893,38.207,72.904,38.2z
	 M31.654,51.972c0.278,0,0.557,0.001,0.834,0c1.168-0.007,2.04-0.507,2.592-1.548c0.331-0.624,0.552-1.289,0.703-1.974
	c0.513-2.316,1.015-4.634,1.519-6.951c0.052-0.236-0.018-0.313-0.285-0.314c-0.688-0.003-1.375-0.001-2.062-0.001
	c-0.342,0-0.419,0.057-0.492,0.39c-0.425,1.949-0.852,3.897-1.268,5.849c-0.127,0.593-0.289,1.166-0.674,1.652
	c-0.219,0.276-0.484,0.444-0.856,0.403c-0.152-0.017-0.31,0.009-0.463-0.006c-0.25-0.025-0.364,0.091-0.416,0.324
	c-0.139,0.616-0.287,1.229-0.431,1.844c-0.06,0.252-0.028,0.307,0.234,0.317c0.354,0.013,0.71,0.004,1.064,0.004
	C31.654,51.963,31.654,51.968,31.654,51.972z M37.204,40.529c0.211,0.005,0.333-0.08,0.377-0.287
	c0.13-0.609,0.257-1.219,0.396-1.827c0.047-0.203-0.029-0.271-0.219-0.271c-0.748,0.002-1.497,0.002-2.245-0.001
	c-0.188,0-0.281,0.095-0.32,0.267c-0.138,0.607-0.277,1.215-0.412,1.823c-0.05,0.224,0.008,0.291,0.248,0.292
	c0.363,0.003,0.726,0,1.088,0C36.479,40.527,36.841,40.521,37.204,40.529z"/>
<g>
	<polygon opacity="0.4" fill="#EAAF78" points="102.745,-7.1 94.263,-9.451 92.267,-31.809 102.745,-31.809 	"/>
	<path fill="#E44F26" d="M89.928-33.948L92.26-7.781l10.47,2.906l10.498-2.91l2.335-26.163H89.928z M110.696-27.738l-0.146,1.627
		l-0.064,0.722h-0.01h-7.731h-0.011h-4.528l0.293,3.286h4.235h0.011h6.585h0.863l-0.078,0.861l-0.754,8.45l-0.048,0.542
		l-6.568,1.821l-0.015,0.004l-6.574-1.825l-0.449-5.039h1.484h1.736l0.229,2.559l3.573,0.966l0.004-0.001v0l0.01-0.002l0.001,0
		l3.568-0.963l0.372-4.162h-3.94h-0.011h-7.172l-0.788-8.844l-0.077-0.861h8.037h0.011h8.028L110.696-27.738z"/>
	<g>
		<polygon opacity="0.4" fill="#EAAF78" points="106.686,-18.895 102.745,-18.895 102.745,-13.769 106.313,-14.732 		"/>
		<polygon opacity="0.4" fill="#EAAF78" points="102.745,-31.809 102.745,-28.599 110.773,-28.599 110.696,-27.738 110.551,-26.111 
			110.486,-25.39 110.477,-25.39 102.745,-25.39 102.745,-22.104 109.33,-22.104 110.193,-22.104 110.115,-21.242 109.361,-12.792 
			109.313,-12.25 102.745,-10.43 102.745,-7.1 111.228,-9.451 113.224,-31.809 		"/>
	</g>
</g>
<g>
	<path id="Shape_1_" opacity="0.3" fill="#35A9DA" d="M70.98-6.462l-8.478-2.352l-1.996-22.357H70.98V-6.462z"/>
	<path fill="#1673B6" d="M58.156-33.312l2.333,26.167l10.469,2.906l10.498-2.91l2.336-26.163H58.156z M77.562-11.839l-6.581,1.824
		v0.001l-6.576-1.825l-0.449-5.039h3.222l0.229,2.56l3.575,0.965v-0.001l3.581-0.966l0.374-4.163H70.98h-3.525h-0.01l-0.288-3.208
		h3.823h4.24l0.293-3.288H70.98h-7.737h-0.01l-0.288-3.208h8.035h8.041L77.562-11.839z"/>
	<path fill="#35A9DA" d="M75.221-21.691h-4.24v-3.288h4.533L75.221-21.691z M74.936-18.483H70.98v5.129l3.581-0.966L74.936-18.483z
		 M70.98-31.172v2.984h8.041l-1.46,16.349l-6.581,1.824v0.001v3.551l8.477-2.352l1.996-22.357H70.98z"/>
</g>
<path fill="#F0DC4E" d="M121.691-34.104v29.073h29.074v-29.073H121.691z M137.017-9.204c-0.429,0.871-1.247,1.442-2.194,1.719
	c-1.457,0.334-2.85,0.144-3.886-0.478c-0.694-0.426-1.235-1.081-1.604-1.835c0.738-0.451,1.474-0.904,2.211-1.354
	c0.02,0.008,0.077,0.113,0.155,0.249c0.281,0.473,0.524,0.807,1.003,1.042c0.47,0.16,1.501,0.262,1.898-0.564
	c0.243-0.42,0.166-1.791,0.166-3.286c0-2.349,0.011-4.682,0.011-7.03h2.72c0,2.501,0.014,4.994,0,7.486
	C137.503-11.727,137.635-10.345,137.017-9.204z M148.298-9.972c-0.945,3.234-6.216,3.339-8.322,1.202
	c-0.444-0.503-0.724-0.765-0.989-1.346c1.119-0.644,1.119-0.644,2.208-1.274c0.592,0.909,1.139,1.409,2.123,1.614
	c1.335,0.163,2.678-0.295,2.377-1.713c-0.31-1.158-2.733-1.44-4.384-2.678c-1.675-1.125-2.067-3.858-0.69-5.42
	c0.459-0.578,1.24-1.009,2.062-1.216c0.284-0.036,0.572-0.075,0.856-0.11c1.645-0.033,2.673,0.4,3.427,1.244
	c0.211,0.212,0.382,0.442,0.702,0.939c-0.876,0.558-0.873,0.553-2.128,1.365c-0.268-0.578-0.713-0.939-1.183-1.097
	c-0.729-0.221-1.65,0.02-1.841,0.791c-0.066,0.237-0.053,0.458,0.053,0.851c0.296,0.674,1.288,0.967,2.178,1.376
	c2.562,1.039,3.427,2.153,3.64,3.479C148.59-10.823,148.336-10.083,148.298-9.972z"/>
</svg>
