<?xml version="1.0" encoding="utf-8"?>
<!-- Generator: Adobe Illustrator 16.0.0, SVG Export Plug-In . SVG Version: 6.00 Build 0)  -->
<!DOCTYPE svg PUBLIC "-//W3C//DTD SVG 1.1//EN" "http://www.w3.org/Graphics/SVG/1.1/DTD/svg11.dtd">
<svg version="1.1" id="Layer_1" xmlns="http://www.w3.org/2000/svg" xmlns:xlink="http://www.w3.org/1999/xlink" x="0px" y="0px"
	 width="21.019px" height="18px" viewBox="0 0 21.019 18" enable-background="new 0 0 21.019 18" xml:space="preserve">
<g>
	<path fill-rule="evenodd" clip-rule="evenodd" fill="#273319" d="M21.181-87.908c0-0.314-0.164-0.603-0.437-0.759l-7.225-4.159
		c-0.124-0.072-0.26-0.109-0.398-0.116c-0.014,0-0.066,0-0.076,0c-0.138,0.006-0.274,0.044-0.399,0.116l-7.227,4.159
		c-0.27,0.156-0.437,0.445-0.437,0.759l0.016,11.2c0,0.155,0.082,0.299,0.218,0.376c0.134,0.08,0.3,0.08,0.433,0l4.295-2.459
		c0.272-0.161,0.437-0.446,0.437-0.758v-5.232c0-0.312,0.166-0.6,0.436-0.755l1.829-1.054c0.136-0.079,0.285-0.117,0.438-0.117
		c0.149,0,0.302,0.039,0.436,0.117l1.827,1.054c0.27,0.156,0.437,0.444,0.437,0.755v5.232c0,0.312,0.167,0.599,0.437,0.758
		l4.295,2.459c0.135,0.08,0.303,0.08,0.437,0c0.131-0.077,0.218-0.221,0.218-0.376L21.181-87.908z"/>
	<path fill-rule="evenodd" clip-rule="evenodd" fill="#273319" d="M59.773-103.304c-0.136-0.075-0.301-0.074-0.435,0.005
		c-0.133,0.078-0.215,0.221-0.215,0.376v11.091c0,0.109-0.059,0.209-0.152,0.265c-0.094,0.054-0.212,0.054-0.307,0l-1.809-1.043
		c-0.271-0.156-0.604-0.156-0.873,0l-7.23,4.172c-0.27,0.157-0.437,0.445-0.437,0.757v8.347c0,0.311,0.167,0.6,0.437,0.756
		l7.23,4.176c0.269,0.156,0.603,0.156,0.873,0l7.232-4.176c0.27-0.156,0.434-0.445,0.434-0.756v-20.807
		c0-0.316-0.17-0.608-0.445-0.762L59.773-103.304z M59.1-82.077c0,0.078-0.04,0.149-0.107,0.189l-2.483,1.431
		c-0.067,0.039-0.149,0.039-0.217,0l-2.483-1.431c-0.068-0.04-0.11-0.111-0.11-0.189v-2.866c0-0.078,0.042-0.15,0.11-0.189
		l2.483-1.435c0.067-0.039,0.149-0.039,0.219,0l2.481,1.435c0.067,0.039,0.107,0.111,0.107,0.189V-82.077z"/>
	<path fill-rule="evenodd" clip-rule="evenodd" fill="#273319" d="M85.64-85.018c0.268-0.156,0.432-0.444,0.432-0.755v-2.022
		c0-0.312-0.164-0.6-0.432-0.755l-7.186-4.171c-0.27-0.158-0.604-0.158-0.873-0.001l-7.23,4.172
		c-0.27,0.156-0.436,0.444-0.436,0.756v8.345c0,0.313,0.168,0.603,0.441,0.758l7.182,4.093c0.266,0.151,0.592,0.152,0.857,0.004
		l4.342-2.415c0.141-0.077,0.225-0.221,0.225-0.378c0.002-0.158-0.082-0.304-0.219-0.382l-7.271-4.175
		c-0.135-0.078-0.221-0.223-0.221-0.378v-2.615c0-0.156,0.086-0.3,0.219-0.377l2.264-1.306c0.135-0.078,0.301-0.078,0.438,0
		l2.262,1.306c0.137,0.077,0.221,0.222,0.221,0.377v2.058c0,0.156,0.082,0.3,0.219,0.377c0.135,0.078,0.303,0.078,0.436,0
		L85.64-85.018z"/>
	<path fill-rule="evenodd" clip-rule="evenodd" fill="#8EC74E" d="M34.328-92.767c0.271-0.155,0.602-0.155,0.873,0l7.228,4.172
		c0.271,0.156,0.438,0.444,0.438,0.756v8.35c0,0.313-0.166,0.6-0.437,0.757l-7.228,4.174c-0.273,0.157-0.604,0.157-0.875,0
		L27.1-78.732c-0.271-0.156-0.437-0.444-0.437-0.757v-8.351c0-0.312,0.166-0.6,0.439-0.755L34.328-92.767z"/>
	<path fill="#8EC74E" d="M99.673-74.439c-0.248,0-0.496-0.065-0.713-0.191l-2.277-1.347c-0.34-0.19-0.174-0.257-0.062-0.296
		c0.455-0.157,0.545-0.193,1.031-0.468c0.049-0.028,0.115-0.018,0.168,0.013l1.748,1.039c0.062,0.035,0.152,0.035,0.213,0
		l6.816-3.935c0.062-0.036,0.102-0.109,0.102-0.184v-7.868c0-0.076-0.039-0.148-0.104-0.187l-6.814-3.931
		c-0.062-0.037-0.146-0.037-0.209,0l-6.814,3.933c-0.066,0.037-0.107,0.111-0.107,0.186v7.868c0,0.075,0.041,0.146,0.107,0.182
		l1.867,1.08c1.014,0.506,1.635-0.091,1.635-0.69v-7.768c0-0.109,0.086-0.195,0.197-0.195h0.865c0.107,0,0.197,0.086,0.197,0.195
		v7.768c0,1.353-0.736,2.127-2.018,2.127c-0.395,0-0.703,0-1.572-0.426l-1.787-1.03c-0.441-0.254-0.715-0.731-0.715-1.243v-7.868
		c0-0.511,0.273-0.987,0.715-1.242l6.818-3.939c0.43-0.244,1.002-0.244,1.432,0l6.816,3.939c0.441,0.255,0.715,0.731,0.715,1.242
		v7.868c0,0.511-0.273,0.986-0.715,1.243l-6.816,3.936C100.173-74.504,99.925-74.439,99.673-74.439z"/>
	<path fill="#8EC74E" d="M101.778-79.858c-2.982,0-3.607-1.369-3.607-2.518c0-0.108,0.088-0.196,0.197-0.196h0.883
		c0.098,0,0.178,0.071,0.195,0.167c0.133,0.897,0.529,1.35,2.332,1.35c1.438,0,2.049-0.324,2.049-1.087
		c0-0.439-0.174-0.765-2.406-0.984c-1.863-0.184-3.02-0.596-3.02-2.087c0-1.376,1.16-2.196,3.104-2.196
		c2.186,0,3.266,0.757,3.402,2.384c0.004,0.056-0.014,0.11-0.051,0.151c-0.039,0.04-0.09,0.063-0.146,0.063h-0.885
		c-0.092,0-0.172-0.066-0.191-0.154c-0.211-0.945-0.729-1.247-2.129-1.247c-1.568,0-1.75,0.548-1.75,0.956
		c0,0.496,0.217,0.641,2.334,0.92c2.094,0.278,3.09,0.669,3.09,2.142C105.179-80.709,103.938-79.858,101.778-79.858z"/>
	<path fill-rule="evenodd" clip-rule="evenodd" fill="#8EC74E" d="M77.909-85.409c0.053-0.03,0.117-0.03,0.168,0l1.387,0.801
		c0.053,0.029,0.084,0.085,0.084,0.145v1.602c0,0.06-0.031,0.115-0.084,0.144l-1.387,0.801c-0.051,0.029-0.115,0.029-0.168,0
		l-1.385-0.801c-0.055-0.029-0.084-0.084-0.084-0.144v-1.602c0-0.06,0.029-0.116,0.084-0.145L77.909-85.409z"/>
</g>
<path fill="#F42534" d="M190.604-90.022l-12.694-12.694c-0.73-0.73-1.916-0.73-2.647,0l-2.636,2.637l3.343,3.344
	c0.777-0.263,1.669-0.087,2.288,0.533c0.623,0.623,0.798,1.521,0.528,2.302l3.223,3.223c0.78-0.269,1.679-0.096,2.303,0.528
	c0.87,0.87,0.87,2.279,0,3.151c-0.871,0.87-2.281,0.87-3.151,0c-0.655-0.655-0.816-1.618-0.484-2.424l-3.007-3.006v7.909
	c0.212,0.104,0.412,0.245,0.589,0.421c0.87,0.871,0.87,2.28,0,3.152c-0.87,0.869-2.28,0.869-3.15,0c-0.87-0.872-0.87-2.281,0-3.152
	c0.216-0.214,0.464-0.377,0.729-0.485v-7.982c-0.266-0.109-0.514-0.271-0.729-0.486c-0.658-0.658-0.818-1.626-0.479-2.436
	l-3.298-3.297l-8.704,8.703c-0.731,0.732-0.731,1.918,0,2.649l12.695,12.693c0.729,0.731,1.916,0.731,2.647,0l12.635-12.635
	C191.336-88.105,191.336-89.292,190.604-90.022z"/>
<path fill="#CC3937" d="M0-67.549v24.914h20.727v4.159h16.552v-4.159h37.278v-24.914H0z M20.727-46.823h-4.173v-12.378h-4.175
	v12.378H4.205v-16.538h16.521V-46.823z M41.454-46.823h-8.205v4.188h-8.318v-20.726h16.523V-46.823z M70.527-46.823h-4.176v-12.378
	h-4.173v12.378h-4.172v-12.378h-4.176v12.378h-8.204v-16.538h24.9V-46.823z M37.278-50.998h-4.029v-8.204h4.029V-50.998z"/>
<g>
	<path fill="#6863A7" d="M118.483-44.356v-10.32c0-0.727-0.534-1.042-1.162-1.042c-1.26,0-2.834,0.315-4.265,0.944v10.418h-2.905
		v-19.163h2.905v6.323c1.381-0.509,3.029-0.945,4.677-0.945c2.64,0,3.634,1.624,3.634,3.851v9.934H118.483L118.483-44.356z
		 M126.794-50.606c0.095,3.464,0.773,4.142,2.905,4.142c1.67,0,3.562-0.557,5.014-1.115l0.486,2.181
		c-1.552,0.703-3.44,1.381-5.695,1.381c-4.846,0-5.597-2.665-5.597-6.905c0-2.324,0.171-4.432,0.729-6.37
		c1.452-0.558,3.391-0.849,5.838-0.849c3.974,0,5.183,2.205,5.183,6.057v1.478H126.794L126.794-50.606z M130.475-55.718
		c-0.87,0-2.256,0.024-3.392,0.241c-0.12,0.582-0.268,1.382-0.316,2.86h6.059C132.825-54.629,132.461-55.718,130.475-55.718
		L130.475-55.718z M141.109-54.774v10.418h-2.908v-11.725c2.446-1.333,5.039-1.745,6.736-1.866v2.423
		C143.747-55.427,142.245-55.282,141.109-54.774L141.109-54.774z M152.615-44.017c-4.338,0-6.299-2.131-6.299-7.001
		c0-5.16,2.59-7.123,6.299-7.123c4.335,0,6.297,2.132,6.297,7.001C158.912-45.979,156.32-44.017,152.615-44.017L152.615-44.017z
		 M152.615-55.718c-2.229,0-3.464,1.284-3.464,4.7c0,3.731,1.041,4.554,3.464,4.554c2.228,0,3.462-1.26,3.462-4.675
		C156.077-54.871,155.038-55.718,152.615-55.718L152.615-55.718z M172.937-44.356h-3.415c-0.797-2.131-1.912-4.312-3.632-6.202
		h-1.528v6.202h-2.905v-19.163h2.905v10.998h1.357c1.478-1.526,2.616-3.416,3.416-5.282h3.27c-1.112,2.254-2.543,4.24-4.142,5.864
		C170.177-49.516,171.678-46.949,172.937-44.356L172.937-44.356z M178.388-44.017c-2.641,0-3.634-1.623-3.634-3.851v-9.935h2.884
		v10.296c0,0.729,0.532,1.042,1.16,1.042c1.261,0,2.98-0.314,4.411-0.944v-10.395h2.905v11.679
		C182.676-44.235,180.035-44.017,178.388-44.017L178.388-44.017z"/>
</g>
<path fill="#5089A1" d="M54.156-131.371v12.388c0,0.49-0.424,1.054-0.891,1.184l-24.897,6.896c-0.318,0.088-0.774,0.139-1.251,0.139
	c-0.477,0-0.933-0.051-1.251-0.139L0.941-117.8c-0.483-0.134-0.923-0.698-0.923-1.184v-12.388c0-0.485,0.44-1.05,0.924-1.184
	l24.914-6.896c0.319-0.088,0.776-0.139,1.255-0.139c0.479,0,0.937,0.051,1.255,0.139l24.896,6.896
	C53.73-132.425,54.156-131.861,54.156-131.371z M75.356-131.366c1.369,1.385,2.09,3.104,2.09,5.297v2.355
	c0,2.202-0.721,4.039-2.09,5.416s-3.215,2.113-5.465,2.113h-7.43v-1.587l2.203-0.331v-13.576l-2.203-0.331v-1.362h2.141h5.289
	C72.142-133.372,73.987-132.75,75.356-131.366z M75.243-126.092c0-1.625-0.561-2.928-1.48-3.978c-0.92-1.049-2.277-1.54-3.871-1.54
	H66.87v13.663h3.021c1.594,0,2.951-0.603,3.871-1.652s1.48-2.473,1.48-4.114V-126.092z M91.864-117.947h-6.926v-6.17h6.611v-2.204
	h-6.611v-5.289h6.783l0.189,2.204h1.842v-3.966H80.532v1.362l2.203,0.331v13.576l-2.203,0.331v1.587h13.662v-4.407h-2.141
	L91.864-117.947z M107.856-132.01l1.594,0.22l-3.805,11.192l-0.391,1.328h-0.07l-0.377-1.328l-3.844-11.164l1.604-0.249v-1.362
	h-5.289v1.362l1.268,0.237l5.668,15.588h2l5.881-15.588l1.49-0.237v-1.362h-5.729V-132.01z M115.349-129.846h2.209l0.166-1.763
	h3.795v13.507l-1.762,0.331v1.587h6.17v-1.587l-2.205-0.331v-13.507h3.99l0.178,1.763h2.004v-3.526h-14.545V-129.846z
	 M146.556-117.878l0.525,0.071v1.623h-1.195c-0.908,0-1.463-0.363-1.846-0.995c-0.383-0.631-0.484-1.444-0.484-2.344v-1.338
	c0-0.939-0.363-1.764-0.906-2.332c-0.545-0.568-1.365-0.924-2.279-0.924h-3.867v6.015l2.205,0.331v1.587h-6.17v-1.587l1.762-0.331
	v-13.576l-1.762-0.331v-1.362h1.76h5.635c1.877,0,3.316,0.352,4.318,1.184s1.504,1.982,1.504,3.513c0,0.836-0.232,1.562-0.699,2.209
	c-0.465,0.647-1.131,1.148-2,1.519c0.939,0.308,1.643,0.805,2.057,1.499s0.646,1.546,0.646,2.564v1.385
	c0,0.529,0.041,0.919,0.176,1.172C146.069-118.075,146.247-117.925,146.556-117.878z M143.423-128.732
	c0-0.907-0.283-1.59-0.852-2.119c-0.568-0.528-1.449-0.758-2.639-0.758h-3.43v5.729h3.191c1.303,0,2.25-0.212,2.842-0.709
	S143.423-127.777,143.423-128.732z M163.095-131.264c1.439,1.665,2.057,3.748,2.057,6.25v0.248c0,2.509-0.629,4.592-2.068,6.25
	c-1.439,1.657-3.258,2.485-5.545,2.485c-2.225,0-3.967-0.829-5.355-2.485c-1.389-1.657-2.018-3.74-2.018-6.25v-0.248
	c0-2.501,0.652-4.584,2.041-6.25s3.174-2.498,5.4-2.498C159.894-133.762,161.653-132.929,163.095-131.264z M162.946-125.039
	c0-2.004-0.449-3.639-1.408-4.906c-0.959-1.266-2.258-1.899-3.953-1.899c-1.627,0-2.916,0.635-3.828,1.906
	c-0.91,1.271-1.387,2.904-1.387,4.899v0.272c0,2.02,0.477,3.663,1.387,4.929c0.912,1.267,2.191,1.9,3.816,1.9
	c1.721,0,3.029-0.631,3.977-1.894c0.947-1.262,1.396-2.907,1.396-4.936V-125.039z M168.235-132.01l1.764,0.331v13.576l-1.764,0.331
	v1.587h6.17v-1.587l-1.762-0.331v-13.576l1.762-0.331v-1.362h-6.17V-132.01z M177.05-133.372v3.526h1.895l0.166-1.763h3.67v13.507
	l-1.764,0.331v1.587h6.17v-1.587l-1.764-0.331v-13.507h3.678l0.178,1.763h1.875v-3.526H177.05z"/>
<g id="Page_1">
	<path id="Rectangle_1" fill="#010101" d="M152.686-21.336h-4.651v15.46h4.848v-8.584l4.615,5.538l4.395-5.538v8.584h4.604v-15.46
		h-4.604l-4.395,5.722L152.686-21.336z M144.989-28.12h40.059c2.038,0,3.691,1.652,3.691,3.691v21.69
		c0,2.039-1.652,3.691-3.691,3.691h-40.059c-2.037,0-3.69-1.652-3.69-3.691v-21.69C141.299-26.467,142.951-28.12,144.989-28.12z
		 M174.525-21.244h-0.046v7.938h-4.431l6.831,7.43l6.83-7.476h-4.614v-7.892H174.525z"/>
</g>
<path fill="#2CAAE1" d="M20.254,2.901c-0.746,0.33-1.546,0.554-2.387,0.654c0.858-0.514,1.518-1.328,1.828-2.299
	c-0.804,0.477-1.693,0.822-2.639,1.009c-0.758-0.808-1.837-1.312-3.033-1.312c-2.294,0-4.155,1.86-4.155,4.155
	c0,0.325,0.037,0.643,0.108,0.947C6.521,5.882,3.46,4.228,1.41,1.714C1.053,2.327,0.848,3.041,0.848,3.803
	c0,1.441,0.733,2.714,1.849,3.459C2.016,7.24,1.375,7.053,0.814,6.741c0,0.018,0,0.035,0,0.053c0,2.013,1.432,3.692,3.333,4.074
	c-0.349,0.095-0.716,0.146-1.094,0.146c-0.269,0-0.528-0.026-0.783-0.074c0.529,1.65,2.064,2.852,3.882,2.886
	c-1.422,1.114-3.214,1.779-5.161,1.779c-0.335,0-0.666-0.021-0.992-0.059c1.839,1.179,4.023,1.866,6.37,1.866
	c7.644,0,11.822-6.331,11.822-11.822c0-0.18-0.004-0.359-0.011-0.537C18.992,4.467,19.697,3.735,20.254,2.901z"/>
<g>
	<g>
		<path fill="#595C5E" d="M105.293,14.724h-6.046V30.4h5.957c5.644,0,8.935-3.359,8.935-7.882v-0.045
			C114.14,17.949,110.893,14.724,105.293,14.724z M109.682,22.584c0,2.53-1.724,3.964-4.32,3.964h-1.77v-7.973h1.77
			c2.597,0,4.32,1.456,4.32,3.964V22.584z M117.028,30.399h4.365V14.724h-4.365V30.399z M131.472,20.637
			c-2.173-0.493-2.71-0.807-2.71-1.523v-0.045c0-0.56,0.516-1.007,1.567-1.007c1.389,0,2.956,0.537,4.39,1.546l2.172-3.069
			c-1.702-1.366-3.785-2.083-6.449-2.083c-3.762,0-6.068,2.105-6.068,5.017v0.045c0,3.225,2.575,4.166,5.911,4.926
			c2.128,0.493,2.643,0.851,2.643,1.501v0.044c0,0.672-0.627,1.075-1.791,1.075c-1.813,0-3.538-0.649-5.083-1.881l-2.42,2.889
			c1.927,1.724,4.569,2.598,7.346,2.598c3.807,0,6.337-1.904,6.337-5.106v-0.044C137.315,22.584,135.076,21.42,131.472,20.637z
			 M156.328,22.562v-0.044c0-4.501-3.582-8.107-8.42-8.107c-4.837,0-8.464,3.65-8.464,8.151v0.045c0,4.501,3.582,8.106,8.419,8.106
			c1.792,0,3.427-0.515,4.771-1.389l1.724,1.545l2.194-2.44l-1.611-1.366C155.836,25.787,156.328,24.219,156.328,22.562z
			 M151.917,22.651c0,0.538-0.089,1.052-0.269,1.522l-2.128-1.926l-2.194,2.463l2.172,1.86c-0.47,0.179-1.007,0.291-1.589,0.291
			c-2.396,0-4.009-1.993-4.009-4.255v-0.045c0-2.261,1.59-4.233,3.963-4.233c2.419,0,4.055,1.994,4.055,4.278L151.917,22.651
			L151.917,22.651z M169.138,23.547c0,2.194-1.143,3.224-2.889,3.224s-2.89-1.075-2.89-3.336v-8.711h-4.411v8.801
			c0,4.905,2.799,7.167,7.256,7.167s7.345-2.217,7.345-7.278v-8.689h-4.411V23.547z M183.335,20.637
			c-2.172-0.493-2.71-0.807-2.71-1.523v-0.045c0-0.56,0.516-1.007,1.568-1.007c1.388,0,2.956,0.537,4.389,1.546l2.172-3.068
			c-1.701-1.366-3.783-2.083-6.448-2.083c-3.762,0-6.069,2.104-6.069,5.017v0.044c0,3.225,2.576,4.165,5.912,4.926
			c2.128,0.493,2.643,0.851,2.643,1.5v0.044c0,0.672-0.627,1.075-1.792,1.075c-1.813,0-3.538-0.649-5.084-1.881l-2.418,2.889
			c1.926,1.725,4.569,2.598,7.345,2.598c3.807,0,6.338-1.904,6.338-5.106v-0.045C189.18,22.584,186.94,21.42,183.335,20.637z"/>
	</g>
</g>
<path fill-rule="evenodd" clip-rule="evenodd" d="M12.171-11.198c-0.585-0.026-1.187-0.13-1.741-0.315
	c-1.374-0.455-2.123-1.474-2.374-2.875c-0.24-1.348-0.013-2.658,0.359-3.951c0.364-1.267,0.907-2.439,1.806-3.426
	c0.931-1.021,2.091-1.615,3.446-1.824c1.215-0.188,2.423-0.151,3.573,0.325c1.596,0.66,2.428,1.902,2.639,3.592
	c0.136,1.082-0.161,2.099-0.487,3.104c-0.282,0.871-0.615,1.726-0.928,2.586c-0.091,0.251-0.061,0.305,0.203,0.307
	c0.286,0.002,0.571,0.004,0.857,0c0.176-0.003,0.249,0.086,0.209,0.246c-0.172,0.679-0.35,1.356-0.539,2.031
	c-0.021,0.075-0.132,0.142-0.216,0.18c-0.073,0.033-0.166,0.025-0.251,0.025C17.639-11.192,13.266-11.149,12.171-11.198z
	 M15.268-13.76c0.39,0,0.418-0.023,0.524-0.402c0.319-1.134,0.66-2.261,0.948-3.403c0.126-0.503,0.204-1.033,0.2-1.55
	c-0.008-1.021-0.587-1.71-1.549-1.912c-0.306-0.063-0.629-0.074-0.943-0.066c-0.938,0.025-1.717,0.392-2.294,1.148
	c-0.442,0.581-0.697,1.249-0.88,1.946c-0.229,0.884-0.409,1.774-0.254,2.695c0.141,0.835,0.617,1.371,1.45,1.488
	C12.985-13.742,14.859-13.76,15.268-13.76z M36.409-15.192c-0.943,0-1.886,0-2.829,0c-0.305,0-0.401,0.096-0.408,0.397
	c-0.017,0.687,0.336,1.071,1.08,1.16c0.268,0.032,0.538,0.049,0.807,0.05c1.236,0.005,2.473,0.002,3.709,0.002
	c0.294,0,0.331,0.052,0.271,0.346c-0.119,0.572-0.232,1.146-0.346,1.718c-0.065,0.327-0.133,0.388-0.459,0.389
	c-1.438,0.002-2.873,0.012-4.31,0.001c-0.69-0.006-1.366-0.128-2-0.417c-0.896-0.407-1.374-1.115-1.478-2.081
	c-0.14-1.303,0.172-2.546,0.547-3.771c0.156-0.512,0.378-1.012,0.637-1.481c0.501-0.912,1.256-1.562,2.24-1.909
	c1.406-0.493,2.843-0.556,4.278-0.165c1.163,0.317,1.816,1.171,1.892,2.375c0.064,1.085-0.152,2.132-0.423,3.173
	c-0.049,0.191-0.191,0.214-0.359,0.214C38.309-15.194,37.357-15.192,36.409-15.192z M35.431-17.237c0.509,0,1.019-0.003,1.528,0.001
	c0.19,0.002,0.304-0.077,0.338-0.271c0.1-0.565-0.183-1.074-0.743-1.214c-0.344-0.086-0.717-0.116-1.072-0.093
	c-0.828,0.053-1.442,0.452-1.77,1.24c-0.118,0.282-0.08,0.336,0.235,0.337C34.443-17.236,34.935-17.237,35.431-17.237z
	 M25.795-11.223c0.788,0,1.576-0.003,2.364,0.002c0.228,0.001,0.358-0.081,0.399-0.319c0.053-0.311,0.132-0.617,0.198-0.926
	c0.588-2.75,1.177-5.501,1.764-8.251c0.054-0.25-0.009-0.328-0.262-0.329c-0.595-0.002-1.189,0-1.783,0
	c-0.454,0-0.48,0.026-0.576,0.472c-0.476,2.214-0.957,4.428-1.428,6.643c-0.05,0.233-0.175,0.316-0.396,0.316
	c-0.22,0-1.12,0-1.667,0c-0.546,0-0.912-0.357-0.956-0.96c-0.009-0.13-0.003-0.264,0.02-0.392c0.134-0.758,0.267-1.518,0.416-2.273
	c0.229-1.148,0.471-2.294,0.705-3.441c0.063-0.311,0.016-0.365-0.309-0.365c-0.633,0-1.267,0-1.899,0
	c-0.299,0-0.361,0.055-0.422,0.343c-0.301,1.431-0.606,2.862-0.907,4.294c-0.199,0.953-0.376,1.905-0.26,2.889
	c0.156,1.32,0.987,2.172,2.313,2.247c0.892,0.05,1.79,0.009,2.685,0.009C25.795-11.25,25.795-11.236,25.795-11.223z M50.836-16.597
	c-0.085-0.36-0.175-0.719-0.247-1.081c-0.047-0.226-0.158-0.321-0.397-0.318c-0.771,0.011-1.545,0.004-2.316,0.005
	c-0.301,0-0.333,0.045-0.246,0.345c0.349,1.236,0.711,2.471,1.046,3.712c0.059,0.226,0.059,0.489,0.01,0.719
	c-0.118,0.565-0.284,1.119-0.426,1.679c-0.062,0.244-0.006,0.313,0.241,0.314c0.779,0.001,1.56-0.003,2.338,0.002
	c0.215,0.001,0.327-0.094,0.377-0.297c0.087-0.367,0.177-0.734,0.28-1.096c0.127-0.447,0.194-0.909,0.494-1.305
	c2.09-2.754,6.107-8.098,6.245-8.279c0.136-0.182,0.095-0.28-0.153-0.28c-0.251,0-2.227,0-2.527,0c-0.299,0-0.525,0.104-0.706,0.371
	c-1.229,1.822-2.471,3.635-3.711,5.451c-0.06,0.085-0.127,0.165-0.221,0.287C50.878-16.476,50.852-16.536,50.836-16.597z
	 M42.576-21.009c-0.226-0.002-0.343,0.075-0.387,0.293c-0.072,0.363-0.16,0.721-0.239,1.082c-0.335,1.566-0.669,3.133-1.001,4.699
	c-0.245,1.147-0.482,2.295-0.729,3.442c-0.042,0.197,0.029,0.27,0.223,0.269c0.656-0.003,1.313,0.002,1.969,0
	c0.375,0,0.425-0.046,0.502-0.421c0.449-2.185,0.899-4.369,1.35-6.553c0.073-0.356,0.122-0.395,0.497-0.395
	c1.769,0,3.537,0,5.305-0.001c0.259,0,0.316-0.069,0.259-0.321c-0.077-0.322-0.154-0.644-0.241-0.962
	c-0.137-0.498-0.445-0.844-0.947-0.988c-0.241-0.069-0.496-0.139-0.745-0.143C47.44-21.024,43.564-21.001,42.576-21.009z
	 M1.325-7.236c0.278,0,0.557,0.001,0.834,0c1.168-0.007,2.04-0.507,2.592-1.548c0.331-0.624,0.552-1.289,0.703-1.974
	c0.513-2.316,1.015-4.634,1.519-6.951c0.052-0.236-0.018-0.313-0.285-0.314C6-18.027,5.312-18.025,4.625-18.025
	c-0.342,0-0.419,0.057-0.492,0.39c-0.425,1.949-0.852,3.897-1.268,5.849c-0.127,0.593-0.289,1.166-0.674,1.652
	C1.973-9.858,1.708-9.69,1.335-9.731c-0.152-0.017-0.31,0.009-0.463-0.006c-0.25-0.025-0.364,0.091-0.416,0.324
	C0.318-8.797,0.169-8.184,0.026-7.57c-0.06,0.252-0.028,0.307,0.234,0.317C0.615-7.24,0.97-7.249,1.325-7.249
	C1.325-7.246,1.325-7.241,1.325-7.236z M6.875-18.679c0.211,0.005,0.333-0.08,0.377-0.287c0.13-0.609,0.257-1.219,0.396-1.827
	c0.047-0.203-0.029-0.271-0.219-0.271c-0.748,0.002-1.497,0.002-2.245-0.001c-0.188,0-0.281,0.095-0.32,0.267
	c-0.138,0.607-0.277,1.215-0.412,1.823c-0.05,0.224,0.008,0.291,0.248,0.292c0.363,0.003,0.726,0,1.088,0
	C6.15-18.682,6.512-18.688,6.875-18.679z"/>
<g>
	<polygon opacity="0.4" fill="#EAAF78" points="68.166,34.442 59.684,32.09 57.688,9.733 68.166,9.733 	"/>
	<path fill="#E44F26" d="M55.349,7.593l2.332,26.167l10.47,2.906l10.498-2.91l2.335-26.163H55.349z M76.117,13.803l-0.146,1.627
		l-0.064,0.722h-0.01h-7.731h-0.011h-4.528l0.293,3.286h4.235h0.011h6.585h0.863l-0.078,0.861l-0.754,8.45l-0.048,0.542
		l-6.568,1.821l-0.015,0.004l-6.574-1.825l-0.449-5.039h1.484h1.736l0.229,2.559l3.573,0.966l0.004-0.001v0l0.01-0.002l0.001,0
		l3.568-0.963l0.372-4.162h-3.94h-0.011h-7.172l-0.788-8.844l-0.077-0.861h8.037h0.011h8.028L76.117,13.803z"/>
	<g>
		<polygon opacity="0.4" fill="#EAAF78" points="72.106,22.647 68.166,22.647 68.166,27.772 71.734,26.809 		"/>
		<polygon opacity="0.4" fill="#EAAF78" points="68.166,9.733 68.166,12.942 76.194,12.942 76.117,13.803 75.972,15.43 
			75.907,16.152 75.897,16.152 68.166,16.152 68.166,19.438 74.751,19.438 75.614,19.438 75.536,20.299 74.782,28.749 
			74.734,29.291 68.166,31.112 68.166,34.442 76.648,32.09 78.645,9.733 		"/>
	</g>
</g>
<g>
	<path id="Shape_1_" opacity="0.3" fill="#35A9DA" d="M101.651,70.579l-8.478-2.352L91.178,45.87h10.474V70.579z"/>
	<path fill="#1673B6" d="M88.827,43.73l2.333,26.167l10.469,2.906l10.498-2.91l2.336-26.163H88.827z M108.232,65.203l-6.581,1.824
		v0.001l-6.576-1.825l-0.449-5.039h3.222l0.229,2.56l3.575,0.965v-0.001l3.581-0.966l0.374-4.163h-3.955h-3.525h-0.01l-0.288-3.208
		h3.823h4.24l0.293-3.288h-4.533h-7.737h-0.01l-0.288-3.208h8.035h8.041L108.232,65.203z"/>
	<path fill="#35A9DA" d="M105.892,55.35h-4.24v-3.288h4.533L105.892,55.35z M105.606,58.558h-3.955v5.129l3.581-0.966
		L105.606,58.558z M101.651,45.87v2.984h8.041l-1.46,16.349l-6.581,1.824v0.001v3.551l8.477-2.352l1.996-22.357H101.651z"/>
</g>
<path fill="#F0DC4E" d="M50.612,43.438v29.073h29.074V43.438H50.612z M65.938,68.338c-0.429,0.871-1.247,1.442-2.194,1.719
	c-1.457,0.334-2.85,0.144-3.886-0.478c-0.694-0.426-1.235-1.081-1.604-1.835c0.738-0.451,1.474-0.904,2.211-1.354
	c0.02,0.008,0.077,0.113,0.155,0.249c0.281,0.473,0.524,0.807,1.003,1.042c0.47,0.16,1.501,0.262,1.898-0.564
	c0.243-0.42,0.166-1.791,0.166-3.286c0-2.349,0.011-4.682,0.011-7.03h2.72c0,2.501,0.014,4.994,0,7.486
	C66.424,65.814,66.556,67.196,65.938,68.338z M77.219,67.569c-0.945,3.234-6.216,3.339-8.322,1.202
	c-0.444-0.503-0.724-0.765-0.989-1.346c1.119-0.644,1.119-0.644,2.208-1.274c0.592,0.909,1.139,1.409,2.123,1.614
	c1.335,0.163,2.678-0.295,2.377-1.713c-0.31-1.158-2.733-1.44-4.384-2.678c-1.675-1.125-2.067-3.858-0.69-5.42
	c0.459-0.578,1.24-1.009,2.062-1.216c0.284-0.036,0.572-0.075,0.856-0.11c1.645-0.033,2.673,0.4,3.427,1.244
	c0.211,0.212,0.382,0.442,0.702,0.939c-0.876,0.558-0.873,0.553-2.128,1.365c-0.268-0.578-0.713-0.939-1.183-1.097
	c-0.729-0.221-1.65,0.02-1.841,0.791c-0.066,0.237-0.053,0.458,0.053,0.851c0.296,0.674,1.288,0.967,2.178,1.376
	c2.562,1.039,3.427,2.153,3.64,3.479C77.511,66.718,77.257,67.459,77.219,67.569z"/>
</svg>
