<?xml version="1.0" encoding="utf-8"?>
<svg version="1.1" id="Layer_1" xmlns="http://www.w3.org/2000/svg" xmlns:xlink="http://www.w3.org/1999/xlink" x="0px" y="0px"
	 viewBox="0 0 25.6 29.1" style="enable-background:new 0 0 25.6 29.1;" xml:space="preserve">
<style type="text/css">
	.st0{opacity:0.3;fill:#35A9DA;enable-background:new    ;}
	.st1{fill:#1673B6;}
	.st2{fill:#35A9DA;}
</style>
<g>
	<path id="Shape_1_" class="st0" d="M12.8,26.8l-8.5-2.4l-2-22.4h10.5L12.8,26.8L12.8,26.8z"/>
	<path class="st1" d="M0,0l2.3,26.2l10.5,2.9l10.5-2.9L25.6,0H0z M19.4,21.5l-6.6,1.8v0l-6.6-1.8l-0.4-5H9L9.3,19l3.6,1v0l3.6-1
		l0.4-4.2h-4H9.3h0L9,11.6h3.8h4.2l0.3-3.3h-4.5H5.1h0L4.8,5.1h8h8L19.4,21.5z"/>
	<path class="st2" d="M17.1,11.6h-4.2V8.3h4.5L17.1,11.6z M16.8,14.8h-4V20l3.6-1L16.8,14.8z M12.8,2.1v3h8l-1.5,16.3l-6.6,1.8v0
		v3.6l8.5-2.4l2-22.4H12.8z"/>
</g>
</svg>
