<?xml version="1.0" encoding="utf-8"?>
<svg version="1.1" id="Layer_1" xmlns="http://www.w3.org/2000/svg" xmlns:xlink="http://www.w3.org/1999/xlink" x="0px" y="0px"
	 viewBox="0 0 30.6 30.5" style="enable-background:new 0 0 30.6 30.5;" xml:space="preserve">
<style type="text/css">
	.st0{fill:#E93135;}
</style>
<path class="st0" d="M29.3,14L16.6,1.3c-0.7-0.7-1.9-0.7-2.6,0l-2.6,2.6l3.3,3.3C15.5,7,16.4,7.2,17,7.8c0.6,0.6,0.8,1.5,0.5,2.3
	l3.2,3.2c0.8-0.3,1.7-0.1,2.3,0.5c0.9,0.9,0.9,2.3,0,3.2c-0.9,0.9-2.3,0.9-3.2,0c-0.7-0.7-0.8-1.6-0.5-2.4l-3-3v7.9
	c0.2,0.1,0.4,0.2,0.6,0.4c0.9,0.9,0.9,2.3,0,3.2c-0.9,0.9-2.3,0.9-3.1,0c-0.9-0.9-0.9-2.3,0-3.2c0.2-0.2,0.5-0.4,0.7-0.5v-8
	c-0.3-0.1-0.5-0.3-0.7-0.5c-0.7-0.7-0.8-1.6-0.5-2.4l-3.3-3.3l-8.7,8.7c-0.7,0.7-0.7,1.9,0,2.6l12.7,12.7c0.7,0.7,1.9,0.7,2.6,0
	l12.6-12.6C30.1,15.9,30.1,14.7,29.3,14z"/>
</svg>
