<?xml version="1.0" encoding="utf-8"?>
<svg version="1.1" id="Layer_1" xmlns="http://www.w3.org/2000/svg" xmlns:xlink="http://www.w3.org/1999/xlink" x="0px" y="0px"
	 viewBox="0 0 47.4 29.1" style="enable-background:new 0 0 47.4 29.1;" xml:space="preserve">
<style type="text/css">
	.st0{fill:#010101;}
</style>
<g id="Page_1">
	<path id="Rectangle_1" class="st0" d="M11.4,6.8H6.7v15.5h4.8v-8.6l4.6,5.5l4.4-5.5v8.6h4.6V6.8h-4.6l-4.4,5.7L11.4,6.8z M3.7,0
		h40.1c2,0,3.7,1.7,3.7,3.7v21.7c0,2-1.7,3.7-3.7,3.7H3.7c-2,0-3.7-1.7-3.7-3.7V3.7C0,1.7,1.7,0,3.7,0z M33.2,6.9L33.2,6.9l0,7.9
		h-4.4l6.8,7.4l6.8-7.5h-4.6V6.9H33.2z"/>
</g>
</svg>
