<svg version="1.1" id="Layer_1" xmlns="http://www.w3.org/2000/svg" xmlns:xlink="http://www.w3.org/1999/xlink" x="0" y="0" viewBox="0 0 1200 800" style="enable-background:new 0 0 1200 800" xml:space="preserve"><style>.st1{fill:#231f20}</style><path transform="rotate(-180 600.479 400.017)" style="fill:#fff" d="M.48.02h1200v800H.48z"/><path transform="rotate(-180 600.479 750.017)" class="st1" d="M.48 700.02h1200v100H.48z"/><path transform="rotate(-180 600.479 550.017)" class="st1" d="M.48 500.02h1200v100H.48z"/><path transform="rotate(-180 600.479 350.017)" class="st1" d="M.48 300.02h1200v100H.48z"/><path transform="rotate(-180 600.479 150.017)" class="st1" d="M.48 100.02h1200v100H.48z"/><g><defs><path id="SVGID_1_" d="m.48 800.02 600-800 600 800H793.24L600.32 542.79 407.4 800.02z"/></defs><clipPath id="SVGID_00000002344161235534963500000013316900331063829640_"><use xlink:href="#SVGID_1_" style="overflow:visible"/></clipPath><g style="clip-path:url(#SVGID_00000002344161235534963500000013316900331063829640_)"><path class="st1" d="M.48.02h1200v100H.48z"/><path style="fill:#866332" d="M.48 100.02h1200v100H.48z"/><path style="fill:#ef4a2a" d="M.48 200.02h1200v100H.48z"/><path style="fill:#f3a143" d="M.48 300.02h1200v100H.48z"/><path style="fill:#fbe55d" d="M.48 400.02h1200v100H.48z"/><path style="fill:#57a646" d="M.48 500.02h1200v100H.48z"/><path style="fill:#2e60ac" d="M.48 600.02h1200v100H.48z"/><path style="fill:#a469ab" d="M.48 700.02h1200v100H.48z"/></g></g></svg>