<svg id="Layer_1" data-name="Layer 1" xmlns="http://www.w3.org/2000/svg" viewBox="0 0 1199.52 630"><defs><style>.cls-1{fill:#ff3831;}.cls-2{fill:#ffa427;}.cls-3{fill:#fffb00;}.cls-4{fill:#00c400;}.cls-5{fill:#012da9;}.cls-6{fill:#8a2199;}.cls-7{fill:#744819;}.cls-8{fill:#82dcee;}.cls-9{fill:#ffbfd0;}.cls-10{fill:#fcf9f6;}.cls-11{fill:#fcf900;}</style></defs><rect id="red_bar" data-name="red bar" class="cls-1" width="1199.52" height="105"/><rect id="orange_bar" data-name="orange bar" class="cls-2" y="105" width="1199.52" height="105"/><rect id="yellow_bar" data-name="yellow bar" class="cls-3" y="210" width="1199.52" height="105"/><rect id="green_bar" data-name="green bar" class="cls-4" y="315" width="1199.52" height="105"/><rect id="navy_bar" data-name="navy bar" class="cls-5" y="420" width="1199.52" height="105"/><rect id="purple_bar" data-name="purple bar" class="cls-6" y="525" width="1199.52" height="105"/><polygon id="black_chevron" data-name="black chevron" points="539.18 315 224.19 630 290.87 630 605.87 315 290.87 0 224.19 0 539.18 315"/><polygon id="brown_chevron" data-name="brown chevron" class="cls-7" points="472.5 315 157.5 630 224.19 630 539.18 315 224.19 0 157.5 0 472.5 315"/><polygon id="blue_chevron" data-name="blue chevron" class="cls-8" points="405.81 315 90.81 630 157.5 630 472.5 315 157.5 0 90.81 0 405.81 315"/><polygon id="pink_chevron" data-name="pink chevron" class="cls-9" points="339.12 315 24.12 630 90.81 630 405.81 315 90.81 0 24.12 0 339.12 315"/><polygon id="white_chevron" data-name="white chevron" class="cls-10" points="0 42.57 272.43 315 0 587.43 0 630 24.12 630 339.12 315 24.12 0 0 0 0 42.57"/><polygon id="yellow_triangle" data-name="yellow triangle" class="cls-11" points="0 587.43 272.43 315 0 42.57 0 587.43"/><path id="purple_circle" data-name="purple circle" class="cls-6" d="M99.7,249.91A65.09,65.09,0,1,1,34.61,315,65.16,65.16,0,0,1,99.7,249.91m0-16.45A81.54,81.54,0,1,0,181.23,315,81.54,81.54,0,0,0,99.7,233.46Z" transform="translate(-0.48 0)"/></svg>